<?xml version="1.0" encoding="utf-8" standalone="no"?>
<!DOCTYPE svg PUBLIC "-//W3C//DTD SVG 1.1//EN"
  "http://www.w3.org/Graphics/SVG/1.1/DTD/svg11.dtd">
<svg xmlns:xlink="http://www.w3.org/1999/xlink" width="864pt" height="432pt" viewBox="0 0 864 432" xmlns="http://www.w3.org/2000/svg" version="1.1">
 <metadata>
  <rdf:RDF xmlns:dc="http://purl.org/dc/elements/1.1/" xmlns:cc="http://creativecommons.org/ns#" xmlns:rdf="http://www.w3.org/1999/02/22-rdf-syntax-ns#">
   <cc:Work>
    <dc:type rdf:resource="http://purl.org/dc/dcmitype/StillImage"/>
    <dc:date>2024-11-01T15:55:06.199110</dc:date>
    <dc:format>image/svg+xml</dc:format>
    <dc:creator>
     <cc:Agent>
      <dc:title>Matplotlib v3.9.2, https://matplotlib.org/</dc:title>
     </cc:Agent>
    </dc:creator>
   </cc:Work>
  </rdf:RDF>
 </metadata>
 <defs>
  <style type="text/css">*{stroke-linejoin: round; stroke-linecap: butt}</style>
 </defs>
 <g id="figure_1">
  <g id="patch_1">
   <path d="M 0 432 
L 864 432 
L 864 0 
L 0 0 
z
" style="fill: #20272d"/>
  </g>
  <g id="axes_1">
   <g id="patch_2">
    <path d="M 62.03 390.04 
L 853.2 390.04 
L 853.2 25.44 
L 62.03 25.44 
z
" style="fill: #20272d"/>
   </g>
   <g id="matplotlib.axis_1">
    <g id="xtick_1">
     <g id="line2d_1">
      <path d="M 87.79021 390.04 
L 87.79021 25.44 
" clip-path="url(#p778d3497ee)" style="fill: none; stroke-dasharray: 1.85,0.8; stroke-dashoffset: 0; stroke: #fff8e8; stroke-opacity: 0.3; stroke-width: 0.5"/>
     </g>
     <g id="text_1">
      <!-- 1880 -->
      <g style="fill: #fff8e8" transform="translate(75.749585 404.691562) scale(0.1 -0.1)">
       <defs>
        <path id="DejaVuSansMono-31" d="M 844 531 
L 1825 531 
L 1825 4097 
L 769 3859 
L 769 4434 
L 1819 4666 
L 2450 4666 
L 2450 531 
L 3419 531 
L 3419 0 
L 844 0 
L 844 531 
z
" transform="scale(0.015625)"/>
        <path id="DejaVuSansMono-38" d="M 1925 2216 
Q 1503 2216 1273 1980 
Q 1044 1744 1044 1313 
Q 1044 881 1276 642 
Q 1509 403 1925 403 
Q 2350 403 2579 639 
Q 2809 875 2809 1313 
Q 2809 1741 2576 1978 
Q 2344 2216 1925 2216 
z
M 1375 2478 
Q 972 2581 745 2862 
Q 519 3144 519 3541 
Q 519 4097 897 4423 
Q 1275 4750 1925 4750 
Q 2578 4750 2956 4423 
Q 3334 4097 3334 3541 
Q 3334 3144 3107 2862 
Q 2881 2581 2478 2478 
Q 2947 2375 3195 2062 
Q 3444 1750 3444 1253 
Q 3444 622 3041 265 
Q 2638 -91 1925 -91 
Q 1213 -91 811 264 
Q 409 619 409 1247 
Q 409 1747 657 2061 
Q 906 2375 1375 2478 
z
M 1147 3481 
Q 1147 3106 1347 2909 
Q 1547 2713 1925 2713 
Q 2306 2713 2506 2909 
Q 2706 3106 2706 3481 
Q 2706 3863 2507 4063 
Q 2309 4263 1925 4263 
Q 1547 4263 1347 4061 
Q 1147 3859 1147 3481 
z
" transform="scale(0.015625)"/>
        <path id="DejaVuSansMono-30" d="M 1509 2344 
Q 1509 2516 1629 2641 
Q 1750 2766 1919 2766 
Q 2094 2766 2219 2641 
Q 2344 2516 2344 2344 
Q 2344 2169 2220 2047 
Q 2097 1925 1919 1925 
Q 1744 1925 1626 2044 
Q 1509 2163 1509 2344 
z
M 1925 4250 
Q 1484 4250 1267 3775 
Q 1050 3300 1050 2328 
Q 1050 1359 1267 884 
Q 1484 409 1925 409 
Q 2369 409 2586 884 
Q 2803 1359 2803 2328 
Q 2803 3300 2586 3775 
Q 2369 4250 1925 4250 
z
M 1925 4750 
Q 2672 4750 3055 4137 
Q 3438 3525 3438 2328 
Q 3438 1134 3055 521 
Q 2672 -91 1925 -91 
Q 1178 -91 797 521 
Q 416 1134 416 2328 
Q 416 3525 797 4137 
Q 1178 4750 1925 4750 
z
" transform="scale(0.015625)"/>
       </defs>
       <use xlink:href="#DejaVuSansMono-31"/>
       <use xlink:href="#DejaVuSansMono-38" x="60.205078"/>
       <use xlink:href="#DejaVuSansMono-38" x="120.410156"/>
       <use xlink:href="#DejaVuSansMono-30" x="180.615234"/>
      </g>
     </g>
    </g>
    <g id="xtick_2">
     <g id="line2d_2">
      <path d="M 189.810841 390.04 
L 189.810841 25.44 
" clip-path="url(#p778d3497ee)" style="fill: none; stroke-dasharray: 1.85,0.8; stroke-dashoffset: 0; stroke: #fff8e8; stroke-opacity: 0.3; stroke-width: 0.5"/>
     </g>
     <g id="text_2">
      <!-- 1900 -->
      <g style="fill: #fff8e8" transform="translate(177.770216 404.691562) scale(0.1 -0.1)">
       <defs>
        <path id="DejaVuSansMono-39" d="M 1863 2069 
Q 2266 2069 2495 2359 
Q 2725 2650 2725 3163 
Q 2725 3675 2495 3965 
Q 2266 4256 1863 4256 
Q 1444 4256 1231 3979 
Q 1019 3703 1019 3163 
Q 1019 2619 1230 2344 
Q 1441 2069 1863 2069 
z
M 738 97 
L 738 678 
Q 934 563 1156 502 
Q 1378 441 1619 441 
Q 2219 441 2526 892 
Q 2834 1344 2834 2222 
Q 2688 1909 2422 1742 
Q 2156 1575 1813 1575 
Q 1138 1575 767 1990 
Q 397 2406 397 3169 
Q 397 3922 776 4336 
Q 1156 4750 1850 4750 
Q 2663 4750 3041 4165 
Q 3419 3581 3419 2328 
Q 3419 1150 2964 529 
Q 2509 -91 1644 -91 
Q 1416 -91 1184 -42 
Q 953 6 738 97 
z
" transform="scale(0.015625)"/>
       </defs>
       <use xlink:href="#DejaVuSansMono-31"/>
       <use xlink:href="#DejaVuSansMono-39" x="60.205078"/>
       <use xlink:href="#DejaVuSansMono-30" x="120.410156"/>
       <use xlink:href="#DejaVuSansMono-30" x="180.615234"/>
      </g>
     </g>
    </g>
    <g id="xtick_3">
     <g id="line2d_3">
      <path d="M 291.831473 390.04 
L 291.831473 25.44 
" clip-path="url(#p778d3497ee)" style="fill: none; stroke-dasharray: 1.85,0.8; stroke-dashoffset: 0; stroke: #fff8e8; stroke-opacity: 0.3; stroke-width: 0.5"/>
     </g>
     <g id="text_3">
      <!-- 1920 -->
      <g style="fill: #fff8e8" transform="translate(279.790848 404.691562) scale(0.1 -0.1)">
       <defs>
        <path id="DejaVuSansMono-32" d="M 1166 531 
L 3309 531 
L 3309 0 
L 475 0 
L 475 531 
Q 1059 1147 1496 1619 
Q 1934 2091 2100 2284 
Q 2413 2666 2522 2902 
Q 2631 3138 2631 3384 
Q 2631 3775 2401 3997 
Q 2172 4219 1772 4219 
Q 1488 4219 1175 4116 
Q 863 4013 513 3803 
L 513 4441 
Q 834 4594 1145 4672 
Q 1456 4750 1759 4750 
Q 2444 4750 2861 4386 
Q 3278 4022 3278 3431 
Q 3278 3131 3139 2831 
Q 3000 2531 2688 2169 
Q 2513 1966 2180 1606 
Q 1847 1247 1166 531 
z
" transform="scale(0.015625)"/>
       </defs>
       <use xlink:href="#DejaVuSansMono-31"/>
       <use xlink:href="#DejaVuSansMono-39" x="60.205078"/>
       <use xlink:href="#DejaVuSansMono-32" x="120.410156"/>
       <use xlink:href="#DejaVuSansMono-30" x="180.615234"/>
      </g>
     </g>
    </g>
    <g id="xtick_4">
     <g id="line2d_4">
      <path d="M 393.852105 390.04 
L 393.852105 25.44 
" clip-path="url(#p778d3497ee)" style="fill: none; stroke-dasharray: 1.85,0.8; stroke-dashoffset: 0; stroke: #fff8e8; stroke-opacity: 0.3; stroke-width: 0.5"/>
     </g>
     <g id="text_4">
      <!-- 1940 -->
      <g style="fill: #fff8e8" transform="translate(381.81148 404.691562) scale(0.1 -0.1)">
       <defs>
        <path id="DejaVuSansMono-34" d="M 2297 4091 
L 825 1625 
L 2297 1625 
L 2297 4091 
z
M 2194 4666 
L 2925 4666 
L 2925 1625 
L 3547 1625 
L 3547 1113 
L 2925 1113 
L 2925 0 
L 2297 0 
L 2297 1113 
L 319 1113 
L 319 1709 
L 2194 4666 
z
" transform="scale(0.015625)"/>
       </defs>
       <use xlink:href="#DejaVuSansMono-31"/>
       <use xlink:href="#DejaVuSansMono-39" x="60.205078"/>
       <use xlink:href="#DejaVuSansMono-34" x="120.410156"/>
       <use xlink:href="#DejaVuSansMono-30" x="180.615234"/>
      </g>
     </g>
    </g>
    <g id="xtick_5">
     <g id="line2d_5">
      <path d="M 495.872737 390.04 
L 495.872737 25.44 
" clip-path="url(#p778d3497ee)" style="fill: none; stroke-dasharray: 1.85,0.8; stroke-dashoffset: 0; stroke: #fff8e8; stroke-opacity: 0.3; stroke-width: 0.5"/>
     </g>
     <g id="text_5">
      <!-- 1960 -->
      <g style="fill: #fff8e8" transform="translate(483.832112 404.691562) scale(0.1 -0.1)">
       <defs>
        <path id="DejaVuSansMono-36" d="M 3097 4563 
L 3097 3981 
Q 2900 4097 2678 4158 
Q 2456 4219 2216 4219 
Q 1616 4219 1306 3767 
Q 997 3316 997 2438 
Q 1147 2750 1412 2917 
Q 1678 3084 2022 3084 
Q 2697 3084 3067 2670 
Q 3438 2256 3438 1497 
Q 3438 741 3056 325 
Q 2675 -91 1984 -91 
Q 1172 -91 794 492 
Q 416 1075 416 2328 
Q 416 3509 870 4129 
Q 1325 4750 2188 4750 
Q 2419 4750 2650 4701 
Q 2881 4653 3097 4563 
z
M 1972 2591 
Q 1569 2591 1337 2300 
Q 1106 2009 1106 1497 
Q 1106 984 1337 693 
Q 1569 403 1972 403 
Q 2391 403 2603 679 
Q 2816 956 2816 1497 
Q 2816 2041 2603 2316 
Q 2391 2591 1972 2591 
z
" transform="scale(0.015625)"/>
       </defs>
       <use xlink:href="#DejaVuSansMono-31"/>
       <use xlink:href="#DejaVuSansMono-39" x="60.205078"/>
       <use xlink:href="#DejaVuSansMono-36" x="120.410156"/>
       <use xlink:href="#DejaVuSansMono-30" x="180.615234"/>
      </g>
     </g>
    </g>
    <g id="xtick_6">
     <g id="line2d_6">
      <path d="M 597.893369 390.04 
L 597.893369 25.44 
" clip-path="url(#p778d3497ee)" style="fill: none; stroke-dasharray: 1.85,0.8; stroke-dashoffset: 0; stroke: #fff8e8; stroke-opacity: 0.3; stroke-width: 0.5"/>
     </g>
     <g id="text_6">
      <!-- 1980 -->
      <g style="fill: #fff8e8" transform="translate(585.852744 404.691562) scale(0.1 -0.1)">
       <use xlink:href="#DejaVuSansMono-31"/>
       <use xlink:href="#DejaVuSansMono-39" x="60.205078"/>
       <use xlink:href="#DejaVuSansMono-38" x="120.410156"/>
       <use xlink:href="#DejaVuSansMono-30" x="180.615234"/>
      </g>
     </g>
    </g>
    <g id="xtick_7">
     <g id="line2d_7">
      <path d="M 699.914001 390.04 
L 699.914001 25.44 
" clip-path="url(#p778d3497ee)" style="fill: none; stroke-dasharray: 1.85,0.8; stroke-dashoffset: 0; stroke: #fff8e8; stroke-opacity: 0.3; stroke-width: 0.5"/>
     </g>
     <g id="text_7">
      <!-- 2000 -->
      <g style="fill: #fff8e8" transform="translate(687.873376 404.691562) scale(0.1 -0.1)">
       <use xlink:href="#DejaVuSansMono-32"/>
       <use xlink:href="#DejaVuSansMono-30" x="60.205078"/>
       <use xlink:href="#DejaVuSansMono-30" x="120.410156"/>
       <use xlink:href="#DejaVuSansMono-30" x="180.615234"/>
      </g>
     </g>
    </g>
    <g id="xtick_8">
     <g id="line2d_8">
      <path d="M 801.934632 390.04 
L 801.934632 25.44 
" clip-path="url(#p778d3497ee)" style="fill: none; stroke-dasharray: 1.85,0.8; stroke-dashoffset: 0; stroke: #fff8e8; stroke-opacity: 0.3; stroke-width: 0.5"/>
     </g>
     <g id="text_8">
      <!-- 2020 -->
      <g style="fill: #fff8e8" transform="translate(789.894007 404.691562) scale(0.1 -0.1)">
       <use xlink:href="#DejaVuSansMono-32"/>
       <use xlink:href="#DejaVuSansMono-30" x="60.205078"/>
       <use xlink:href="#DejaVuSansMono-32" x="120.410156"/>
       <use xlink:href="#DejaVuSansMono-30" x="180.615234"/>
      </g>
     </g>
    </g>
    <g id="text_9">
     <!-- Year -->
     <g style="fill: #fff8e8" transform="translate(445.574375 418.422812) scale(0.1 -0.1)">
      <defs>
       <path id="DejaVuSansMono-59" d="M 116 4666 
L 788 4666 
L 1925 2606 
L 3059 4666 
L 3738 4666 
L 2241 2094 
L 2241 0 
L 1606 0 
L 1606 2094 
L 116 4666 
z
" transform="scale(0.015625)"/>
       <path id="DejaVuSansMono-65" d="M 3475 1894 
L 3475 1613 
L 984 1613 
L 984 1594 
Q 984 1022 1282 709 
Q 1581 397 2125 397 
Q 2400 397 2700 484 
Q 3000 572 3341 750 
L 3341 178 
Q 3013 44 2708 -23 
Q 2403 -91 2119 -91 
Q 1303 -91 843 398 
Q 384 888 384 1747 
Q 384 2584 834 3084 
Q 1284 3584 2034 3584 
Q 2703 3584 3089 3131 
Q 3475 2678 3475 1894 
z
M 2900 2063 
Q 2888 2569 2661 2833 
Q 2434 3097 2009 3097 
Q 1594 3097 1325 2822 
Q 1056 2547 1006 2059 
L 2900 2063 
z
" transform="scale(0.015625)"/>
       <path id="DejaVuSansMono-61" d="M 2194 1759 
L 2003 1759 
Q 1500 1759 1245 1582 
Q 991 1406 991 1056 
Q 991 741 1181 566 
Q 1372 391 1709 391 
Q 2184 391 2456 720 
Q 2728 1050 2731 1631 
L 2731 1759 
L 2194 1759 
z
M 3309 1997 
L 3309 0 
L 2731 0 
L 2731 519 
Q 2547 206 2267 57 
Q 1988 -91 1588 -91 
Q 1053 -91 734 211 
Q 416 513 416 1019 
Q 416 1603 808 1906 
Q 1200 2209 1959 2209 
L 2731 2209 
L 2731 2300 
Q 2728 2719 2518 2908 
Q 2309 3097 1850 3097 
Q 1556 3097 1256 3012 
Q 956 2928 672 2766 
L 672 3341 
Q 991 3463 1283 3523 
Q 1575 3584 1850 3584 
Q 2284 3584 2592 3456 
Q 2900 3328 3091 3072 
Q 3209 2916 3259 2686 
Q 3309 2456 3309 1997 
z
" transform="scale(0.015625)"/>
       <path id="DejaVuSansMono-72" d="M 3609 2778 
Q 3425 2922 3234 2987 
Q 3044 3053 2816 3053 
Q 2278 3053 1993 2715 
Q 1709 2378 1709 1741 
L 1709 0 
L 1131 0 
L 1131 3500 
L 1709 3500 
L 1709 2816 
Q 1853 3188 2151 3386 
Q 2450 3584 2859 3584 
Q 3072 3584 3256 3531 
Q 3441 3478 3609 3366 
L 3609 2778 
z
" transform="scale(0.015625)"/>
      </defs>
      <use xlink:href="#DejaVuSansMono-59"/>
      <use xlink:href="#DejaVuSansMono-65" x="60.205078"/>
      <use xlink:href="#DejaVuSansMono-61" x="120.410156"/>
      <use xlink:href="#DejaVuSansMono-72" x="180.615234"/>
     </g>
    </g>
   </g>
   <g id="matplotlib.axis_2">
    <g id="ytick_1">
     <g id="line2d_9">
      <path d="M 62.03 373.467273 
L 853.2 373.467273 
" clip-path="url(#p778d3497ee)" style="fill: none; stroke-dasharray: 1.85,0.8; stroke-dashoffset: 0; stroke: #fff8e8; stroke-opacity: 0.3; stroke-width: 0.5"/>
     </g>
     <g id="text_10">
      <!-- 1 -->
      <g style="fill: #fff8e8" transform="translate(49.009687 377.293054) scale(0.1 -0.1)">
       <use xlink:href="#DejaVuSansMono-31"/>
      </g>
     </g>
    </g>
    <g id="ytick_2">
     <g id="line2d_10">
      <path d="M 62.03 291.519333 
L 853.2 291.519333 
" clip-path="url(#p778d3497ee)" style="fill: none; stroke-dasharray: 1.85,0.8; stroke-dashoffset: 0; stroke: #fff8e8; stroke-opacity: 0.3; stroke-width: 0.5"/>
     </g>
     <g id="text_11">
      <!-- 10 -->
      <g style="fill: #fff8e8" transform="translate(42.989375 295.345114) scale(0.1 -0.1)">
       <use xlink:href="#DejaVuSansMono-31"/>
       <use xlink:href="#DejaVuSansMono-30" x="60.205078"/>
      </g>
     </g>
    </g>
    <g id="ytick_3">
     <g id="line2d_11">
      <path d="M 62.03 209.571394 
L 853.2 209.571394 
" clip-path="url(#p778d3497ee)" style="fill: none; stroke-dasharray: 1.85,0.8; stroke-dashoffset: 0; stroke: #fff8e8; stroke-opacity: 0.3; stroke-width: 0.5"/>
     </g>
     <g id="text_12">
      <!-- 100 -->
      <g style="fill: #fff8e8" transform="translate(36.969062 213.397175) scale(0.1 -0.1)">
       <use xlink:href="#DejaVuSansMono-31"/>
       <use xlink:href="#DejaVuSansMono-30" x="60.205078"/>
       <use xlink:href="#DejaVuSansMono-30" x="120.410156"/>
      </g>
     </g>
    </g>
    <g id="ytick_4">
     <g id="line2d_12">
      <path d="M 62.03 127.623454 
L 853.2 127.623454 
" clip-path="url(#p778d3497ee)" style="fill: none; stroke-dasharray: 1.85,0.8; stroke-dashoffset: 0; stroke: #fff8e8; stroke-opacity: 0.3; stroke-width: 0.5"/>
     </g>
     <g id="text_13">
      <!-- 1000 -->
      <g style="fill: #fff8e8" transform="translate(30.94875 131.449235) scale(0.1 -0.1)">
       <use xlink:href="#DejaVuSansMono-31"/>
       <use xlink:href="#DejaVuSansMono-30" x="60.205078"/>
       <use xlink:href="#DejaVuSansMono-30" x="120.410156"/>
       <use xlink:href="#DejaVuSansMono-30" x="180.615234"/>
      </g>
     </g>
    </g>
    <g id="ytick_5">
     <g id="line2d_13">
      <path d="M 62.03 45.675515 
L 853.2 45.675515 
" clip-path="url(#p778d3497ee)" style="fill: none; stroke-dasharray: 1.85,0.8; stroke-dashoffset: 0; stroke: #fff8e8; stroke-opacity: 0.3; stroke-width: 0.5"/>
     </g>
     <g id="text_14">
      <!-- 10000 -->
      <g style="fill: #fff8e8" transform="translate(24.928438 49.501296) scale(0.1 -0.1)">
       <use xlink:href="#DejaVuSansMono-31"/>
       <use xlink:href="#DejaVuSansMono-30" x="60.205078"/>
       <use xlink:href="#DejaVuSansMono-30" x="120.410156"/>
       <use xlink:href="#DejaVuSansMono-30" x="180.615234"/>
       <use xlink:href="#DejaVuSansMono-30" x="240.820312"/>
      </g>
     </g>
    </g>
    <g id="ytick_6"/>
    <g id="ytick_7"/>
    <g id="ytick_8"/>
    <g id="ytick_9"/>
    <g id="ytick_10"/>
    <g id="ytick_11"/>
    <g id="ytick_12"/>
    <g id="ytick_13"/>
    <g id="ytick_14"/>
    <g id="ytick_15"/>
    <g id="ytick_16"/>
    <g id="ytick_17"/>
    <g id="ytick_18"/>
    <g id="ytick_19"/>
    <g id="ytick_20"/>
    <g id="ytick_21"/>
    <g id="ytick_22"/>
    <g id="ytick_23"/>
    <g id="ytick_24"/>
    <g id="ytick_25"/>
    <g id="ytick_26"/>
    <g id="ytick_27"/>
    <g id="ytick_28"/>
    <g id="ytick_29"/>
    <g id="ytick_30"/>
    <g id="ytick_31"/>
    <g id="ytick_32"/>
    <g id="ytick_33"/>
    <g id="ytick_34"/>
    <g id="ytick_35"/>
    <g id="ytick_36"/>
    <g id="ytick_37"/>
    <g id="ytick_38"/>
    <g id="ytick_39"/>
    <g id="ytick_40"/>
    <g id="text_15">
     <!-- Publications -->
     <g style="fill: #fff8e8" transform="translate(18.84875 243.861875) rotate(-90) scale(0.1 -0.1)">
      <defs>
       <path id="DejaVuSansMono-50" d="M 1247 4147 
L 1247 2394 
L 1978 2394 
Q 2416 2394 2661 2625 
Q 2906 2856 2906 3272 
Q 2906 3688 2662 3917 
Q 2419 4147 1978 4147 
L 1247 4147 
z
M 616 4666 
L 1978 4666 
Q 2759 4666 3162 4311 
Q 3566 3956 3566 3272 
Q 3566 2581 3164 2228 
Q 2763 1875 1978 1875 
L 1247 1875 
L 1247 0 
L 616 0 
L 616 4666 
z
" transform="scale(0.015625)"/>
       <path id="DejaVuSansMono-75" d="M 609 1325 
L 609 3494 
L 1184 3494 
L 1184 1325 
Q 1184 853 1351 631 
Q 1519 409 1869 409 
Q 2275 409 2490 695 
Q 2706 981 2706 1516 
L 2706 3494 
L 3284 3494 
L 3284 0 
L 2706 0 
L 2706 525 
Q 2553 222 2289 65 
Q 2025 -91 1672 -91 
Q 1134 -91 871 261 
Q 609 613 609 1325 
z
" transform="scale(0.015625)"/>
       <path id="DejaVuSansMono-62" d="M 2869 1747 
Q 2869 2416 2656 2756 
Q 2444 3097 2028 3097 
Q 1609 3097 1393 2755 
Q 1178 2413 1178 1747 
Q 1178 1084 1393 740 
Q 1609 397 2028 397 
Q 2444 397 2656 737 
Q 2869 1078 2869 1747 
z
M 1178 3053 
Q 1316 3309 1558 3446 
Q 1800 3584 2119 3584 
Q 2750 3584 3112 3098 
Q 3475 2613 3475 1759 
Q 3475 894 3111 401 
Q 2747 -91 2113 -91 
Q 1800 -91 1561 45 
Q 1322 181 1178 441 
L 1178 0 
L 603 0 
L 603 4863 
L 1178 4863 
L 1178 3053 
z
" transform="scale(0.015625)"/>
       <path id="DejaVuSansMono-6c" d="M 1997 1269 
Q 1997 881 2139 684 
Q 2281 488 2559 488 
L 3231 488 
L 3231 0 
L 2503 0 
Q 1988 0 1705 331 
Q 1422 663 1422 1269 
L 1422 4447 
L 500 4447 
L 500 4897 
L 1997 4897 
L 1997 1269 
z
" transform="scale(0.015625)"/>
       <path id="DejaVuSansMono-69" d="M 800 3500 
L 2272 3500 
L 2272 447 
L 3413 447 
L 3413 0 
L 556 0 
L 556 447 
L 1697 447 
L 1697 3053 
L 800 3053 
L 800 3500 
z
M 1697 4863 
L 2272 4863 
L 2272 4134 
L 1697 4134 
L 1697 4863 
z
" transform="scale(0.015625)"/>
       <path id="DejaVuSansMono-63" d="M 3316 178 
Q 3084 44 2839 -23 
Q 2594 -91 2338 -91 
Q 1525 -91 1067 396 
Q 609 884 609 1747 
Q 609 2609 1067 3096 
Q 1525 3584 2338 3584 
Q 2591 3584 2831 3518 
Q 3072 3453 3316 3316 
L 3316 2713 
Q 3088 2916 2858 3006 
Q 2628 3097 2338 3097 
Q 1797 3097 1506 2747 
Q 1216 2397 1216 1747 
Q 1216 1100 1508 748 
Q 1800 397 2338 397 
Q 2638 397 2875 489 
Q 3113 581 3316 775 
L 3316 178 
z
" transform="scale(0.015625)"/>
       <path id="DejaVuSansMono-74" d="M 1919 4494 
L 1919 3500 
L 3225 3500 
L 3225 3053 
L 1919 3053 
L 1919 1153 
Q 1919 766 2066 612 
Q 2213 459 2578 459 
L 3225 459 
L 3225 0 
L 2522 0 
Q 1875 0 1609 259 
Q 1344 519 1344 1153 
L 1344 3053 
L 409 3053 
L 409 3500 
L 1344 3500 
L 1344 4494 
L 1919 4494 
z
" transform="scale(0.015625)"/>
       <path id="DejaVuSansMono-6f" d="M 1925 3097 
Q 1488 3097 1263 2756 
Q 1038 2416 1038 1747 
Q 1038 1081 1263 739 
Q 1488 397 1925 397 
Q 2366 397 2591 739 
Q 2816 1081 2816 1747 
Q 2816 2416 2591 2756 
Q 2366 3097 1925 3097 
z
M 1925 3584 
Q 2653 3584 3039 3112 
Q 3425 2641 3425 1747 
Q 3425 850 3040 379 
Q 2656 -91 1925 -91 
Q 1197 -91 812 379 
Q 428 850 428 1747 
Q 428 2641 812 3112 
Q 1197 3584 1925 3584 
z
" transform="scale(0.015625)"/>
       <path id="DejaVuSansMono-6e" d="M 3284 2169 
L 3284 0 
L 2706 0 
L 2706 2169 
Q 2706 2641 2540 2862 
Q 2375 3084 2022 3084 
Q 1619 3084 1401 2798 
Q 1184 2513 1184 1978 
L 1184 0 
L 609 0 
L 609 3500 
L 1184 3500 
L 1184 2975 
Q 1338 3275 1600 3429 
Q 1863 3584 2222 3584 
Q 2756 3584 3020 3232 
Q 3284 2881 3284 2169 
z
" transform="scale(0.015625)"/>
       <path id="DejaVuSansMono-73" d="M 3041 3378 
L 3041 2816 
Q 2794 2959 2544 3031 
Q 2294 3103 2034 3103 
Q 1644 3103 1451 2976 
Q 1259 2850 1259 2591 
Q 1259 2356 1403 2240 
Q 1547 2125 2119 2016 
L 2350 1972 
Q 2778 1891 2998 1647 
Q 3219 1403 3219 1013 
Q 3219 494 2850 201 
Q 2481 -91 1825 -91 
Q 1566 -91 1281 -36 
Q 997 19 666 128 
L 666 722 
Q 988 556 1281 473 
Q 1575 391 1838 391 
Q 2219 391 2428 545 
Q 2638 700 2638 978 
Q 2638 1378 1872 1531 
L 1847 1538 
L 1631 1581 
Q 1134 1678 906 1908 
Q 678 2138 678 2534 
Q 678 3038 1018 3311 
Q 1359 3584 1991 3584 
Q 2272 3584 2531 3532 
Q 2791 3481 3041 3378 
z
" transform="scale(0.015625)"/>
      </defs>
      <use xlink:href="#DejaVuSansMono-50"/>
      <use xlink:href="#DejaVuSansMono-75" x="60.205078"/>
      <use xlink:href="#DejaVuSansMono-62" x="120.410156"/>
      <use xlink:href="#DejaVuSansMono-6c" x="180.615234"/>
      <use xlink:href="#DejaVuSansMono-69" x="240.820312"/>
      <use xlink:href="#DejaVuSansMono-63" x="301.025391"/>
      <use xlink:href="#DejaVuSansMono-61" x="361.230469"/>
      <use xlink:href="#DejaVuSansMono-74" x="421.435547"/>
      <use xlink:href="#DejaVuSansMono-69" x="481.640625"/>
      <use xlink:href="#DejaVuSansMono-6f" x="541.845703"/>
      <use xlink:href="#DejaVuSansMono-6e" x="602.050781"/>
      <use xlink:href="#DejaVuSansMono-73" x="662.255859"/>
     </g>
    </g>
   </g>
   <g id="line2d_14">
    <path d="M 97.992273 334.368169 
L 103.093304 373.467273 
L 113.295368 334.368169 
L 118.396399 348.798485 
L 128.598462 373.467273 
L 133.699494 373.467273 
L 143.901557 348.798485 
L 149.002589 334.368169 
L 154.10362 324.129697 
L 159.204652 334.368169 
L 164.305683 373.467273 
L 169.406715 348.798485 
L 174.507747 373.467273 
L 184.70981 348.798485 
L 189.810841 334.368169 
L 194.911873 373.467273 
L 200.012905 309.699381 
L 205.113936 334.368169 
L 210.214968 324.129697 
L 215.315999 309.699381 
L 220.417031 316.188121 
L 225.518063 348.798485 
L 230.619094 285.030593 
L 235.720126 348.798485 
L 240.821157 279.544442 
L 245.922189 334.368169 
L 251.023221 348.798485 
L 256.124252 373.467273 
L 261.225284 348.798485 
L 266.326315 373.467273 
L 271.427347 334.368169 
L 276.528378 334.368169 
L 281.62941 309.699381 
L 286.730442 316.188121 
L 291.831473 324.129697 
L 296.932505 295.269065 
L 302.033536 282.18191 
L 307.134568 334.368169 
L 312.2356 304.21323 
L 317.336631 299.460909 
L 322.437663 316.188121 
L 327.538694 285.030593 
L 332.639726 324.129697 
L 337.740758 309.699381 
L 342.841789 304.21323 
L 347.942821 309.699381 
L 353.043852 316.188121 
L 358.144884 282.18191 
L 363.245916 316.188121 
L 368.346947 291.519333 
L 373.447979 299.460909 
L 378.54901 263.4585 
L 383.650042 299.460909 
L 388.751074 304.21323 
L 393.852105 309.699381 
L 398.953137 309.699381 
L 404.054168 299.460909 
L 409.1552 334.368169 
L 419.357263 334.368169 
L 424.458295 279.544442 
L 429.559326 309.699381 
L 434.660358 309.699381 
L 439.761389 348.798485 
L 444.862421 295.269065 
L 449.963453 304.21323 
L 455.064484 316.188121 
L 460.165516 316.188121 
L 465.266547 295.269065 
L 470.367579 288.127288 
L 475.468611 316.188121 
L 480.569642 299.460909 
L 485.670674 277.089017 
L 490.771705 277.089017 
L 495.872737 304.21323 
L 500.973769 277.089017 
L 506.0748 285.030593 
L 511.175832 304.21323 
L 516.276863 295.269065 
L 521.377895 309.699381 
L 526.478926 295.269065 
L 531.579958 304.21323 
L 536.68099 299.460909 
L 541.782021 295.269065 
L 546.883053 282.18191 
L 551.984084 295.269065 
L 557.085116 274.792121 
L 562.186148 282.18191 
L 567.287179 270.600277 
L 572.388211 299.460909 
L 577.489242 291.519333 
L 582.590274 288.127288 
L 587.691306 274.792121 
L 592.792337 260.361805 
L 597.893369 254.875654 
L 602.9944 250.123333 
L 608.095432 227.751442 
L 618.297495 185.621611 
L 623.398527 167.623607 
L 628.499558 147.816815 
L 633.60059 130.091591 
L 638.701622 127.94521 
L 643.802653 127.909316 
L 648.903685 120.140365 
L 654.004716 120.284862 
L 659.105748 121.283314 
L 664.206779 111.074636 
L 669.307811 113.12203 
L 674.408843 106.389445 
L 679.509874 101.201304 
L 684.610906 101.201304 
L 689.711937 97.611159 
L 694.812969 92.234561 
L 699.914001 94.252541 
L 705.015032 86.472977 
L 710.116064 88.453243 
L 715.217095 85.251135 
L 720.318127 80.993226 
L 725.419159 79.581504 
L 730.52019 77.329042 
L 735.621222 74.756593 
L 740.722253 69.891647 
L 745.823285 66.095561 
L 750.924317 64.574568 
L 756.025348 64.219241 
L 761.12638 60.082705 
L 766.227411 59.816951 
L 771.328443 60.205621 
L 776.429475 55.592762 
L 781.530506 55.000484 
L 786.631538 55.023616 
L 791.732569 53.047787 
L 796.833601 49.927021 
L 801.934632 50.350639 
L 807.035664 47.888992 
L 812.136696 47.314197 
L 817.237727 42.012727 
L 817.237727 42.012727 
" clip-path="url(#p778d3497ee)" style="fill: none; stroke: #e09351; stroke-linecap: round"/>
    <defs>
     <path id="mc7fd1efbf8" d="M 0 3 
C 0.795609 3 1.55874 2.683901 2.12132 2.12132 
C 2.683901 1.55874 3 0.795609 3 0 
C 3 -0.795609 2.683901 -1.55874 2.12132 -2.12132 
C 1.55874 -2.683901 0.795609 -3 0 -3 
C -0.795609 -3 -1.55874 -2.683901 -2.12132 -2.12132 
C -2.683901 -1.55874 -3 -0.795609 -3 0 
C -3 0.795609 -2.683901 1.55874 -2.12132 2.12132 
C -1.55874 2.683901 -0.795609 3 0 3 
z
" style="stroke: #e09351"/>
    </defs>
    <g clip-path="url(#p778d3497ee)">
     <use xlink:href="#mc7fd1efbf8" x="97.992273" y="334.368169" style="fill: #e09351; stroke: #e09351"/>
     <use xlink:href="#mc7fd1efbf8" x="103.093304" y="373.467273" style="fill: #e09351; stroke: #e09351"/>
     <use xlink:href="#mc7fd1efbf8" x="113.295368" y="334.368169" style="fill: #e09351; stroke: #e09351"/>
     <use xlink:href="#mc7fd1efbf8" x="118.396399" y="348.798485" style="fill: #e09351; stroke: #e09351"/>
     <use xlink:href="#mc7fd1efbf8" x="128.598462" y="373.467273" style="fill: #e09351; stroke: #e09351"/>
     <use xlink:href="#mc7fd1efbf8" x="133.699494" y="373.467273" style="fill: #e09351; stroke: #e09351"/>
     <use xlink:href="#mc7fd1efbf8" x="143.901557" y="348.798485" style="fill: #e09351; stroke: #e09351"/>
     <use xlink:href="#mc7fd1efbf8" x="149.002589" y="334.368169" style="fill: #e09351; stroke: #e09351"/>
     <use xlink:href="#mc7fd1efbf8" x="154.10362" y="324.129697" style="fill: #e09351; stroke: #e09351"/>
     <use xlink:href="#mc7fd1efbf8" x="159.204652" y="334.368169" style="fill: #e09351; stroke: #e09351"/>
     <use xlink:href="#mc7fd1efbf8" x="164.305683" y="373.467273" style="fill: #e09351; stroke: #e09351"/>
     <use xlink:href="#mc7fd1efbf8" x="169.406715" y="348.798485" style="fill: #e09351; stroke: #e09351"/>
     <use xlink:href="#mc7fd1efbf8" x="174.507747" y="373.467273" style="fill: #e09351; stroke: #e09351"/>
     <use xlink:href="#mc7fd1efbf8" x="184.70981" y="348.798485" style="fill: #e09351; stroke: #e09351"/>
     <use xlink:href="#mc7fd1efbf8" x="189.810841" y="334.368169" style="fill: #e09351; stroke: #e09351"/>
     <use xlink:href="#mc7fd1efbf8" x="194.911873" y="373.467273" style="fill: #e09351; stroke: #e09351"/>
     <use xlink:href="#mc7fd1efbf8" x="200.012905" y="309.699381" style="fill: #e09351; stroke: #e09351"/>
     <use xlink:href="#mc7fd1efbf8" x="205.113936" y="334.368169" style="fill: #e09351; stroke: #e09351"/>
     <use xlink:href="#mc7fd1efbf8" x="210.214968" y="324.129697" style="fill: #e09351; stroke: #e09351"/>
     <use xlink:href="#mc7fd1efbf8" x="215.315999" y="309.699381" style="fill: #e09351; stroke: #e09351"/>
     <use xlink:href="#mc7fd1efbf8" x="220.417031" y="316.188121" style="fill: #e09351; stroke: #e09351"/>
     <use xlink:href="#mc7fd1efbf8" x="225.518063" y="348.798485" style="fill: #e09351; stroke: #e09351"/>
     <use xlink:href="#mc7fd1efbf8" x="230.619094" y="285.030593" style="fill: #e09351; stroke: #e09351"/>
     <use xlink:href="#mc7fd1efbf8" x="235.720126" y="348.798485" style="fill: #e09351; stroke: #e09351"/>
     <use xlink:href="#mc7fd1efbf8" x="240.821157" y="279.544442" style="fill: #e09351; stroke: #e09351"/>
     <use xlink:href="#mc7fd1efbf8" x="245.922189" y="334.368169" style="fill: #e09351; stroke: #e09351"/>
     <use xlink:href="#mc7fd1efbf8" x="251.023221" y="348.798485" style="fill: #e09351; stroke: #e09351"/>
     <use xlink:href="#mc7fd1efbf8" x="256.124252" y="373.467273" style="fill: #e09351; stroke: #e09351"/>
     <use xlink:href="#mc7fd1efbf8" x="261.225284" y="348.798485" style="fill: #e09351; stroke: #e09351"/>
     <use xlink:href="#mc7fd1efbf8" x="266.326315" y="373.467273" style="fill: #e09351; stroke: #e09351"/>
     <use xlink:href="#mc7fd1efbf8" x="271.427347" y="334.368169" style="fill: #e09351; stroke: #e09351"/>
     <use xlink:href="#mc7fd1efbf8" x="276.528378" y="334.368169" style="fill: #e09351; stroke: #e09351"/>
     <use xlink:href="#mc7fd1efbf8" x="281.62941" y="309.699381" style="fill: #e09351; stroke: #e09351"/>
     <use xlink:href="#mc7fd1efbf8" x="286.730442" y="316.188121" style="fill: #e09351; stroke: #e09351"/>
     <use xlink:href="#mc7fd1efbf8" x="291.831473" y="324.129697" style="fill: #e09351; stroke: #e09351"/>
     <use xlink:href="#mc7fd1efbf8" x="296.932505" y="295.269065" style="fill: #e09351; stroke: #e09351"/>
     <use xlink:href="#mc7fd1efbf8" x="302.033536" y="282.18191" style="fill: #e09351; stroke: #e09351"/>
     <use xlink:href="#mc7fd1efbf8" x="307.134568" y="334.368169" style="fill: #e09351; stroke: #e09351"/>
     <use xlink:href="#mc7fd1efbf8" x="312.2356" y="304.21323" style="fill: #e09351; stroke: #e09351"/>
     <use xlink:href="#mc7fd1efbf8" x="317.336631" y="299.460909" style="fill: #e09351; stroke: #e09351"/>
     <use xlink:href="#mc7fd1efbf8" x="322.437663" y="316.188121" style="fill: #e09351; stroke: #e09351"/>
     <use xlink:href="#mc7fd1efbf8" x="327.538694" y="285.030593" style="fill: #e09351; stroke: #e09351"/>
     <use xlink:href="#mc7fd1efbf8" x="332.639726" y="324.129697" style="fill: #e09351; stroke: #e09351"/>
     <use xlink:href="#mc7fd1efbf8" x="337.740758" y="309.699381" style="fill: #e09351; stroke: #e09351"/>
     <use xlink:href="#mc7fd1efbf8" x="342.841789" y="304.21323" style="fill: #e09351; stroke: #e09351"/>
     <use xlink:href="#mc7fd1efbf8" x="347.942821" y="309.699381" style="fill: #e09351; stroke: #e09351"/>
     <use xlink:href="#mc7fd1efbf8" x="353.043852" y="316.188121" style="fill: #e09351; stroke: #e09351"/>
     <use xlink:href="#mc7fd1efbf8" x="358.144884" y="282.18191" style="fill: #e09351; stroke: #e09351"/>
     <use xlink:href="#mc7fd1efbf8" x="363.245916" y="316.188121" style="fill: #e09351; stroke: #e09351"/>
     <use xlink:href="#mc7fd1efbf8" x="368.346947" y="291.519333" style="fill: #e09351; stroke: #e09351"/>
     <use xlink:href="#mc7fd1efbf8" x="373.447979" y="299.460909" style="fill: #e09351; stroke: #e09351"/>
     <use xlink:href="#mc7fd1efbf8" x="378.54901" y="263.4585" style="fill: #e09351; stroke: #e09351"/>
     <use xlink:href="#mc7fd1efbf8" x="383.650042" y="299.460909" style="fill: #e09351; stroke: #e09351"/>
     <use xlink:href="#mc7fd1efbf8" x="388.751074" y="304.21323" style="fill: #e09351; stroke: #e09351"/>
     <use xlink:href="#mc7fd1efbf8" x="393.852105" y="309.699381" style="fill: #e09351; stroke: #e09351"/>
     <use xlink:href="#mc7fd1efbf8" x="398.953137" y="309.699381" style="fill: #e09351; stroke: #e09351"/>
     <use xlink:href="#mc7fd1efbf8" x="404.054168" y="299.460909" style="fill: #e09351; stroke: #e09351"/>
     <use xlink:href="#mc7fd1efbf8" x="409.1552" y="334.368169" style="fill: #e09351; stroke: #e09351"/>
     <use xlink:href="#mc7fd1efbf8" x="419.357263" y="334.368169" style="fill: #e09351; stroke: #e09351"/>
     <use xlink:href="#mc7fd1efbf8" x="424.458295" y="279.544442" style="fill: #e09351; stroke: #e09351"/>
     <use xlink:href="#mc7fd1efbf8" x="429.559326" y="309.699381" style="fill: #e09351; stroke: #e09351"/>
     <use xlink:href="#mc7fd1efbf8" x="434.660358" y="309.699381" style="fill: #e09351; stroke: #e09351"/>
     <use xlink:href="#mc7fd1efbf8" x="439.761389" y="348.798485" style="fill: #e09351; stroke: #e09351"/>
     <use xlink:href="#mc7fd1efbf8" x="444.862421" y="295.269065" style="fill: #e09351; stroke: #e09351"/>
     <use xlink:href="#mc7fd1efbf8" x="449.963453" y="304.21323" style="fill: #e09351; stroke: #e09351"/>
     <use xlink:href="#mc7fd1efbf8" x="455.064484" y="316.188121" style="fill: #e09351; stroke: #e09351"/>
     <use xlink:href="#mc7fd1efbf8" x="460.165516" y="316.188121" style="fill: #e09351; stroke: #e09351"/>
     <use xlink:href="#mc7fd1efbf8" x="465.266547" y="295.269065" style="fill: #e09351; stroke: #e09351"/>
     <use xlink:href="#mc7fd1efbf8" x="470.367579" y="288.127288" style="fill: #e09351; stroke: #e09351"/>
     <use xlink:href="#mc7fd1efbf8" x="475.468611" y="316.188121" style="fill: #e09351; stroke: #e09351"/>
     <use xlink:href="#mc7fd1efbf8" x="480.569642" y="299.460909" style="fill: #e09351; stroke: #e09351"/>
     <use xlink:href="#mc7fd1efbf8" x="485.670674" y="277.089017" style="fill: #e09351; stroke: #e09351"/>
     <use xlink:href="#mc7fd1efbf8" x="490.771705" y="277.089017" style="fill: #e09351; stroke: #e09351"/>
     <use xlink:href="#mc7fd1efbf8" x="495.872737" y="304.21323" style="fill: #e09351; stroke: #e09351"/>
     <use xlink:href="#mc7fd1efbf8" x="500.973769" y="277.089017" style="fill: #e09351; stroke: #e09351"/>
     <use xlink:href="#mc7fd1efbf8" x="506.0748" y="285.030593" style="fill: #e09351; stroke: #e09351"/>
     <use xlink:href="#mc7fd1efbf8" x="511.175832" y="304.21323" style="fill: #e09351; stroke: #e09351"/>
     <use xlink:href="#mc7fd1efbf8" x="516.276863" y="295.269065" style="fill: #e09351; stroke: #e09351"/>
     <use xlink:href="#mc7fd1efbf8" x="521.377895" y="309.699381" style="fill: #e09351; stroke: #e09351"/>
     <use xlink:href="#mc7fd1efbf8" x="526.478926" y="295.269065" style="fill: #e09351; stroke: #e09351"/>
     <use xlink:href="#mc7fd1efbf8" x="531.579958" y="304.21323" style="fill: #e09351; stroke: #e09351"/>
     <use xlink:href="#mc7fd1efbf8" x="536.68099" y="299.460909" style="fill: #e09351; stroke: #e09351"/>
     <use xlink:href="#mc7fd1efbf8" x="541.782021" y="295.269065" style="fill: #e09351; stroke: #e09351"/>
     <use xlink:href="#mc7fd1efbf8" x="546.883053" y="282.18191" style="fill: #e09351; stroke: #e09351"/>
     <use xlink:href="#mc7fd1efbf8" x="551.984084" y="295.269065" style="fill: #e09351; stroke: #e09351"/>
     <use xlink:href="#mc7fd1efbf8" x="557.085116" y="274.792121" style="fill: #e09351; stroke: #e09351"/>
     <use xlink:href="#mc7fd1efbf8" x="562.186148" y="282.18191" style="fill: #e09351; stroke: #e09351"/>
     <use xlink:href="#mc7fd1efbf8" x="567.287179" y="270.600277" style="fill: #e09351; stroke: #e09351"/>
     <use xlink:href="#mc7fd1efbf8" x="572.388211" y="299.460909" style="fill: #e09351; stroke: #e09351"/>
     <use xlink:href="#mc7fd1efbf8" x="577.489242" y="291.519333" style="fill: #e09351; stroke: #e09351"/>
     <use xlink:href="#mc7fd1efbf8" x="582.590274" y="288.127288" style="fill: #e09351; stroke: #e09351"/>
     <use xlink:href="#mc7fd1efbf8" x="587.691306" y="274.792121" style="fill: #e09351; stroke: #e09351"/>
     <use xlink:href="#mc7fd1efbf8" x="592.792337" y="260.361805" style="fill: #e09351; stroke: #e09351"/>
     <use xlink:href="#mc7fd1efbf8" x="597.893369" y="254.875654" style="fill: #e09351; stroke: #e09351"/>
     <use xlink:href="#mc7fd1efbf8" x="602.9944" y="250.123333" style="fill: #e09351; stroke: #e09351"/>
     <use xlink:href="#mc7fd1efbf8" x="608.095432" y="227.751442" style="fill: #e09351; stroke: #e09351"/>
     <use xlink:href="#mc7fd1efbf8" x="613.196464" y="206.504369" style="fill: #e09351; stroke: #e09351"/>
     <use xlink:href="#mc7fd1efbf8" x="618.297495" y="185.621611" style="fill: #e09351; stroke: #e09351"/>
     <use xlink:href="#mc7fd1efbf8" x="623.398527" y="167.623607" style="fill: #e09351; stroke: #e09351"/>
     <use xlink:href="#mc7fd1efbf8" x="628.499558" y="147.816815" style="fill: #e09351; stroke: #e09351"/>
     <use xlink:href="#mc7fd1efbf8" x="633.60059" y="130.091591" style="fill: #e09351; stroke: #e09351"/>
     <use xlink:href="#mc7fd1efbf8" x="638.701622" y="127.94521" style="fill: #e09351; stroke: #e09351"/>
     <use xlink:href="#mc7fd1efbf8" x="643.802653" y="127.909316" style="fill: #e09351; stroke: #e09351"/>
     <use xlink:href="#mc7fd1efbf8" x="648.903685" y="120.140365" style="fill: #e09351; stroke: #e09351"/>
     <use xlink:href="#mc7fd1efbf8" x="654.004716" y="120.284862" style="fill: #e09351; stroke: #e09351"/>
     <use xlink:href="#mc7fd1efbf8" x="659.105748" y="121.283314" style="fill: #e09351; stroke: #e09351"/>
     <use xlink:href="#mc7fd1efbf8" x="664.206779" y="111.074636" style="fill: #e09351; stroke: #e09351"/>
     <use xlink:href="#mc7fd1efbf8" x="669.307811" y="113.12203" style="fill: #e09351; stroke: #e09351"/>
     <use xlink:href="#mc7fd1efbf8" x="674.408843" y="106.389445" style="fill: #e09351; stroke: #e09351"/>
     <use xlink:href="#mc7fd1efbf8" x="679.509874" y="101.201304" style="fill: #e09351; stroke: #e09351"/>
     <use xlink:href="#mc7fd1efbf8" x="684.610906" y="101.201304" style="fill: #e09351; stroke: #e09351"/>
     <use xlink:href="#mc7fd1efbf8" x="689.711937" y="97.611159" style="fill: #e09351; stroke: #e09351"/>
     <use xlink:href="#mc7fd1efbf8" x="694.812969" y="92.234561" style="fill: #e09351; stroke: #e09351"/>
     <use xlink:href="#mc7fd1efbf8" x="699.914001" y="94.252541" style="fill: #e09351; stroke: #e09351"/>
     <use xlink:href="#mc7fd1efbf8" x="705.015032" y="86.472977" style="fill: #e09351; stroke: #e09351"/>
     <use xlink:href="#mc7fd1efbf8" x="710.116064" y="88.453243" style="fill: #e09351; stroke: #e09351"/>
     <use xlink:href="#mc7fd1efbf8" x="715.217095" y="85.251135" style="fill: #e09351; stroke: #e09351"/>
     <use xlink:href="#mc7fd1efbf8" x="720.318127" y="80.993226" style="fill: #e09351; stroke: #e09351"/>
     <use xlink:href="#mc7fd1efbf8" x="725.419159" y="79.581504" style="fill: #e09351; stroke: #e09351"/>
     <use xlink:href="#mc7fd1efbf8" x="730.52019" y="77.329042" style="fill: #e09351; stroke: #e09351"/>
     <use xlink:href="#mc7fd1efbf8" x="735.621222" y="74.756593" style="fill: #e09351; stroke: #e09351"/>
     <use xlink:href="#mc7fd1efbf8" x="740.722253" y="69.891647" style="fill: #e09351; stroke: #e09351"/>
     <use xlink:href="#mc7fd1efbf8" x="745.823285" y="66.095561" style="fill: #e09351; stroke: #e09351"/>
     <use xlink:href="#mc7fd1efbf8" x="750.924317" y="64.574568" style="fill: #e09351; stroke: #e09351"/>
     <use xlink:href="#mc7fd1efbf8" x="756.025348" y="64.219241" style="fill: #e09351; stroke: #e09351"/>
     <use xlink:href="#mc7fd1efbf8" x="761.12638" y="60.082705" style="fill: #e09351; stroke: #e09351"/>
     <use xlink:href="#mc7fd1efbf8" x="766.227411" y="59.816951" style="fill: #e09351; stroke: #e09351"/>
     <use xlink:href="#mc7fd1efbf8" x="771.328443" y="60.205621" style="fill: #e09351; stroke: #e09351"/>
     <use xlink:href="#mc7fd1efbf8" x="776.429475" y="55.592762" style="fill: #e09351; stroke: #e09351"/>
     <use xlink:href="#mc7fd1efbf8" x="781.530506" y="55.000484" style="fill: #e09351; stroke: #e09351"/>
     <use xlink:href="#mc7fd1efbf8" x="786.631538" y="55.023616" style="fill: #e09351; stroke: #e09351"/>
     <use xlink:href="#mc7fd1efbf8" x="791.732569" y="53.047787" style="fill: #e09351; stroke: #e09351"/>
     <use xlink:href="#mc7fd1efbf8" x="796.833601" y="49.927021" style="fill: #e09351; stroke: #e09351"/>
     <use xlink:href="#mc7fd1efbf8" x="801.934632" y="50.350639" style="fill: #e09351; stroke: #e09351"/>
     <use xlink:href="#mc7fd1efbf8" x="807.035664" y="47.888992" style="fill: #e09351; stroke: #e09351"/>
     <use xlink:href="#mc7fd1efbf8" x="812.136696" y="47.314197" style="fill: #e09351; stroke: #e09351"/>
     <use xlink:href="#mc7fd1efbf8" x="817.237727" y="42.012727" style="fill: #e09351; stroke: #e09351"/>
    </g>
   </g>
   <g id="text_16">
    <!-- History of dark matter publications -->
    <g style="fill: #fff8e8" transform="translate(331.188438 19.44) scale(0.12 -0.12)">
     <defs>
      <path id="DejaVuSansMono-48" d="M 428 4666 
L 1063 4666 
L 1063 2753 
L 2791 2753 
L 2791 4666 
L 3425 4666 
L 3425 0 
L 2791 0 
L 2791 2222 
L 1063 2222 
L 1063 0 
L 428 0 
L 428 4666 
z
" transform="scale(0.015625)"/>
      <path id="DejaVuSansMono-79" d="M 2681 1125 
Q 2538 759 2316 163 
Q 2006 -663 1900 -844 
Q 1756 -1088 1540 -1209 
Q 1325 -1331 1038 -1331 
L 575 -1331 
L 575 -850 
L 916 -850 
Q 1169 -850 1312 -703 
Q 1456 -556 1678 56 
L 325 3500 
L 934 3500 
L 1972 763 
L 2994 3500 
L 3603 3500 
L 2681 1125 
z
" transform="scale(0.015625)"/>
      <path id="DejaVuSansMono-20" transform="scale(0.015625)"/>
      <path id="DejaVuSansMono-66" d="M 3322 4863 
L 3322 4384 
L 2669 4384 
Q 2359 4384 2239 4257 
Q 2119 4131 2119 3809 
L 2119 3500 
L 3322 3500 
L 3322 3053 
L 2119 3053 
L 2119 0 
L 1544 0 
L 1544 3053 
L 609 3053 
L 609 3500 
L 1544 3500 
L 1544 3744 
Q 1544 4319 1808 4591 
Q 2072 4863 2631 4863 
L 3322 4863 
z
" transform="scale(0.015625)"/>
      <path id="DejaVuSansMono-64" d="M 2681 3053 
L 2681 4863 
L 3256 4863 
L 3256 0 
L 2681 0 
L 2681 441 
Q 2538 181 2298 45 
Q 2059 -91 1747 -91 
Q 1113 -91 748 401 
Q 384 894 384 1759 
Q 384 2613 750 3098 
Q 1116 3584 1747 3584 
Q 2063 3584 2303 3448 
Q 2544 3313 2681 3053 
z
M 991 1747 
Q 991 1078 1203 737 
Q 1416 397 1831 397 
Q 2247 397 2464 740 
Q 2681 1084 2681 1747 
Q 2681 2413 2464 2755 
Q 2247 3097 1831 3097 
Q 1416 3097 1203 2756 
Q 991 2416 991 1747 
z
" transform="scale(0.015625)"/>
      <path id="DejaVuSansMono-6b" d="M 738 4863 
L 1331 4863 
L 1331 2047 
L 2841 3500 
L 3541 3500 
L 2163 2181 
L 3756 0 
L 3053 0 
L 1759 1806 
L 1331 1403 
L 1331 0 
L 738 0 
L 738 4863 
z
" transform="scale(0.015625)"/>
      <path id="DejaVuSansMono-6d" d="M 2113 3144 
Q 2219 3369 2383 3476 
Q 2547 3584 2778 3584 
Q 3200 3584 3373 3257 
Q 3547 2931 3547 2028 
L 3547 0 
L 3022 0 
L 3022 2003 
Q 3022 2744 2939 2923 
Q 2856 3103 2638 3103 
Q 2388 3103 2295 2911 
Q 2203 2719 2203 2003 
L 2203 0 
L 1678 0 
L 1678 2003 
Q 1678 2753 1589 2928 
Q 1500 3103 1269 3103 
Q 1041 3103 952 2911 
Q 863 2719 863 2003 
L 863 0 
L 341 0 
L 341 3500 
L 863 3500 
L 863 3200 
Q 966 3388 1120 3486 
Q 1275 3584 1472 3584 
Q 1709 3584 1867 3475 
Q 2025 3366 2113 3144 
z
" transform="scale(0.015625)"/>
      <path id="DejaVuSansMono-70" d="M 1172 441 
L 1172 -1331 
L 594 -1331 
L 594 3500 
L 1172 3500 
L 1172 3053 
Q 1316 3313 1555 3448 
Q 1794 3584 2106 3584 
Q 2741 3584 3102 3093 
Q 3463 2603 3463 1734 
Q 3463 881 3100 395 
Q 2738 -91 2106 -91 
Q 1788 -91 1548 45 
Q 1309 181 1172 441 
z
M 2859 1747 
Q 2859 2416 2648 2756 
Q 2438 3097 2022 3097 
Q 1603 3097 1387 2755 
Q 1172 2413 1172 1747 
Q 1172 1084 1387 740 
Q 1603 397 2022 397 
Q 2438 397 2648 737 
Q 2859 1078 2859 1747 
z
" transform="scale(0.015625)"/>
     </defs>
     <use xlink:href="#DejaVuSansMono-48"/>
     <use xlink:href="#DejaVuSansMono-69" x="60.205078"/>
     <use xlink:href="#DejaVuSansMono-73" x="120.410156"/>
     <use xlink:href="#DejaVuSansMono-74" x="180.615234"/>
     <use xlink:href="#DejaVuSansMono-6f" x="240.820312"/>
     <use xlink:href="#DejaVuSansMono-72" x="301.025391"/>
     <use xlink:href="#DejaVuSansMono-79" x="361.230469"/>
     <use xlink:href="#DejaVuSansMono-20" x="421.435547"/>
     <use xlink:href="#DejaVuSansMono-6f" x="481.640625"/>
     <use xlink:href="#DejaVuSansMono-66" x="541.845703"/>
     <use xlink:href="#DejaVuSansMono-20" x="602.050781"/>
     <use xlink:href="#DejaVuSansMono-64" x="662.255859"/>
     <use xlink:href="#DejaVuSansMono-61" x="722.460938"/>
     <use xlink:href="#DejaVuSansMono-72" x="782.666016"/>
     <use xlink:href="#DejaVuSansMono-6b" x="842.871094"/>
     <use xlink:href="#DejaVuSansMono-20" x="903.076172"/>
     <use xlink:href="#DejaVuSansMono-6d" x="963.28125"/>
     <use xlink:href="#DejaVuSansMono-61" x="1023.486328"/>
     <use xlink:href="#DejaVuSansMono-74" x="1083.691406"/>
     <use xlink:href="#DejaVuSansMono-74" x="1143.896484"/>
     <use xlink:href="#DejaVuSansMono-65" x="1204.101562"/>
     <use xlink:href="#DejaVuSansMono-72" x="1264.306641"/>
     <use xlink:href="#DejaVuSansMono-20" x="1324.511719"/>
     <use xlink:href="#DejaVuSansMono-70" x="1384.716797"/>
     <use xlink:href="#DejaVuSansMono-75" x="1444.921875"/>
     <use xlink:href="#DejaVuSansMono-62" x="1505.126953"/>
     <use xlink:href="#DejaVuSansMono-6c" x="1565.332031"/>
     <use xlink:href="#DejaVuSansMono-69" x="1625.537109"/>
     <use xlink:href="#DejaVuSansMono-63" x="1685.742188"/>
     <use xlink:href="#DejaVuSansMono-61" x="1745.947266"/>
     <use xlink:href="#DejaVuSansMono-74" x="1806.152344"/>
     <use xlink:href="#DejaVuSansMono-69" x="1866.357422"/>
     <use xlink:href="#DejaVuSansMono-6f" x="1926.5625"/>
     <use xlink:href="#DejaVuSansMono-6e" x="1986.767578"/>
     <use xlink:href="#DejaVuSansMono-73" x="2046.972656"/>
    </g>
   </g>
  </g>
 </g>
 <defs>
  <clipPath id="p778d3497ee">
   <rect x="62.03" y="25.44" width="791.17" height="364.6"/>
  </clipPath>
 </defs>
</svg>
