<?xml version="1.0" encoding="utf-8" standalone="no"?>
<!DOCTYPE svg PUBLIC "-//W3C//DTD SVG 1.1//EN"
  "http://www.w3.org/Graphics/SVG/1.1/DTD/svg11.dtd">
<svg xmlns:xlink="http://www.w3.org/1999/xlink" width="1152pt" height="432pt" viewBox="0 0 1152 432" xmlns="http://www.w3.org/2000/svg" version="1.1">
 <metadata>
  <rdf:RDF xmlns:dc="http://purl.org/dc/elements/1.1/" xmlns:cc="http://creativecommons.org/ns#" xmlns:rdf="http://www.w3.org/1999/02/22-rdf-syntax-ns#">
   <cc:Work>
    <dc:type rdf:resource="http://purl.org/dc/dcmitype/StillImage"/>
    <dc:date>2024-10-29T15:39:00.285520</dc:date>
    <dc:format>image/svg+xml</dc:format>
    <dc:creator>
     <cc:Agent>
      <dc:title>Matplotlib v3.9.2, https://matplotlib.org/</dc:title>
     </cc:Agent>
    </dc:creator>
   </cc:Work>
  </rdf:RDF>
 </metadata>
 <defs>
  <style type="text/css">*{stroke-linejoin: round; stroke-linecap: butt}</style>
 </defs>
 <g id="figure_1">
  <g id="patch_1">
   <path d="M 0 432 
L 1152 432 
L 1152 0 
L 0 0 
z
" style="fill: #20272d"/>
  </g>
  <g id="axes_1">
   <g id="patch_2">
    <path d="M 56 390.04 
L 1141.2 390.04 
L 1141.2 25.44 
L 56 25.44 
z
" style="fill: #20272d"/>
   </g>
   <g id="matplotlib.axis_1">
    <g id="xtick_1">
     <g id="line2d_1">
      <path d="M 130.62331 390.04 
L 130.62331 25.44 
" clip-path="url(#pb2190259a4)" style="fill: none; stroke-dasharray: 1.85,0.8; stroke-dashoffset: 0; stroke: #fff8e8; stroke-opacity: 0.3; stroke-width: 0.5"/>
     </g>
     <g id="text_1">
      <!-- 1985 -->
      <g style="fill: #fff8e8" transform="translate(118.582685 404.691562) scale(0.1 -0.1)">
       <defs>
        <path id="DejaVuSansMono-31" d="M 844 531 
L 1825 531 
L 1825 4097 
L 769 3859 
L 769 4434 
L 1819 4666 
L 2450 4666 
L 2450 531 
L 3419 531 
L 3419 0 
L 844 0 
L 844 531 
z
" transform="scale(0.015625)"/>
        <path id="DejaVuSansMono-39" d="M 1863 2069 
Q 2266 2069 2495 2359 
Q 2725 2650 2725 3163 
Q 2725 3675 2495 3965 
Q 2266 4256 1863 4256 
Q 1444 4256 1231 3979 
Q 1019 3703 1019 3163 
Q 1019 2619 1230 2344 
Q 1441 2069 1863 2069 
z
M 738 97 
L 738 678 
Q 934 563 1156 502 
Q 1378 441 1619 441 
Q 2219 441 2526 892 
Q 2834 1344 2834 2222 
Q 2688 1909 2422 1742 
Q 2156 1575 1813 1575 
Q 1138 1575 767 1990 
Q 397 2406 397 3169 
Q 397 3922 776 4336 
Q 1156 4750 1850 4750 
Q 2663 4750 3041 4165 
Q 3419 3581 3419 2328 
Q 3419 1150 2964 529 
Q 2509 -91 1644 -91 
Q 1416 -91 1184 -42 
Q 953 6 738 97 
z
" transform="scale(0.015625)"/>
        <path id="DejaVuSansMono-38" d="M 1925 2216 
Q 1503 2216 1273 1980 
Q 1044 1744 1044 1313 
Q 1044 881 1276 642 
Q 1509 403 1925 403 
Q 2350 403 2579 639 
Q 2809 875 2809 1313 
Q 2809 1741 2576 1978 
Q 2344 2216 1925 2216 
z
M 1375 2478 
Q 972 2581 745 2862 
Q 519 3144 519 3541 
Q 519 4097 897 4423 
Q 1275 4750 1925 4750 
Q 2578 4750 2956 4423 
Q 3334 4097 3334 3541 
Q 3334 3144 3107 2862 
Q 2881 2581 2478 2478 
Q 2947 2375 3195 2062 
Q 3444 1750 3444 1253 
Q 3444 622 3041 265 
Q 2638 -91 1925 -91 
Q 1213 -91 811 264 
Q 409 619 409 1247 
Q 409 1747 657 2061 
Q 906 2375 1375 2478 
z
M 1147 3481 
Q 1147 3106 1347 2909 
Q 1547 2713 1925 2713 
Q 2306 2713 2506 2909 
Q 2706 3106 2706 3481 
Q 2706 3863 2507 4063 
Q 2309 4263 1925 4263 
Q 1547 4263 1347 4061 
Q 1147 3859 1147 3481 
z
" transform="scale(0.015625)"/>
        <path id="DejaVuSansMono-35" d="M 647 4666 
L 3009 4666 
L 3009 4134 
L 1222 4134 
L 1222 2988 
Q 1356 3038 1492 3061 
Q 1628 3084 1766 3084 
Q 2491 3084 2916 2656 
Q 3341 2228 3341 1497 
Q 3341 759 2895 334 
Q 2450 -91 1678 -91 
Q 1306 -91 998 -41 
Q 691 9 447 109 
L 447 750 
Q 734 594 1025 517 
Q 1316 441 1619 441 
Q 2141 441 2423 716 
Q 2706 991 2706 1497 
Q 2706 1997 2414 2275 
Q 2122 2553 1600 2553 
Q 1347 2553 1106 2495 
Q 866 2438 647 2322 
L 647 4666 
z
" transform="scale(0.015625)"/>
       </defs>
       <use xlink:href="#DejaVuSansMono-31"/>
       <use xlink:href="#DejaVuSansMono-39" x="60.205078"/>
       <use xlink:href="#DejaVuSansMono-38" x="120.410156"/>
       <use xlink:href="#DejaVuSansMono-35" x="180.615234"/>
      </g>
     </g>
    </g>
    <g id="xtick_2">
     <g id="line2d_2">
      <path d="M 257.103497 390.04 
L 257.103497 25.44 
" clip-path="url(#pb2190259a4)" style="fill: none; stroke-dasharray: 1.85,0.8; stroke-dashoffset: 0; stroke: #fff8e8; stroke-opacity: 0.3; stroke-width: 0.5"/>
     </g>
     <g id="text_2">
      <!-- 1990 -->
      <g style="fill: #fff8e8" transform="translate(245.062872 404.691562) scale(0.1 -0.1)">
       <defs>
        <path id="DejaVuSansMono-30" d="M 1509 2344 
Q 1509 2516 1629 2641 
Q 1750 2766 1919 2766 
Q 2094 2766 2219 2641 
Q 2344 2516 2344 2344 
Q 2344 2169 2220 2047 
Q 2097 1925 1919 1925 
Q 1744 1925 1626 2044 
Q 1509 2163 1509 2344 
z
M 1925 4250 
Q 1484 4250 1267 3775 
Q 1050 3300 1050 2328 
Q 1050 1359 1267 884 
Q 1484 409 1925 409 
Q 2369 409 2586 884 
Q 2803 1359 2803 2328 
Q 2803 3300 2586 3775 
Q 2369 4250 1925 4250 
z
M 1925 4750 
Q 2672 4750 3055 4137 
Q 3438 3525 3438 2328 
Q 3438 1134 3055 521 
Q 2672 -91 1925 -91 
Q 1178 -91 797 521 
Q 416 1134 416 2328 
Q 416 3525 797 4137 
Q 1178 4750 1925 4750 
z
" transform="scale(0.015625)"/>
       </defs>
       <use xlink:href="#DejaVuSansMono-31"/>
       <use xlink:href="#DejaVuSansMono-39" x="60.205078"/>
       <use xlink:href="#DejaVuSansMono-39" x="120.410156"/>
       <use xlink:href="#DejaVuSansMono-30" x="180.615234"/>
      </g>
     </g>
    </g>
    <g id="xtick_3">
     <g id="line2d_3">
      <path d="M 383.583683 390.04 
L 383.583683 25.44 
" clip-path="url(#pb2190259a4)" style="fill: none; stroke-dasharray: 1.85,0.8; stroke-dashoffset: 0; stroke: #fff8e8; stroke-opacity: 0.3; stroke-width: 0.5"/>
     </g>
     <g id="text_3">
      <!-- 1995 -->
      <g style="fill: #fff8e8" transform="translate(371.543058 404.691562) scale(0.1 -0.1)">
       <use xlink:href="#DejaVuSansMono-31"/>
       <use xlink:href="#DejaVuSansMono-39" x="60.205078"/>
       <use xlink:href="#DejaVuSansMono-39" x="120.410156"/>
       <use xlink:href="#DejaVuSansMono-35" x="180.615234"/>
      </g>
     </g>
    </g>
    <g id="xtick_4">
     <g id="line2d_4">
      <path d="M 510.063869 390.04 
L 510.063869 25.44 
" clip-path="url(#pb2190259a4)" style="fill: none; stroke-dasharray: 1.85,0.8; stroke-dashoffset: 0; stroke: #fff8e8; stroke-opacity: 0.3; stroke-width: 0.5"/>
     </g>
     <g id="text_4">
      <!-- 2000 -->
      <g style="fill: #fff8e8" transform="translate(498.023244 404.691562) scale(0.1 -0.1)">
       <defs>
        <path id="DejaVuSansMono-32" d="M 1166 531 
L 3309 531 
L 3309 0 
L 475 0 
L 475 531 
Q 1059 1147 1496 1619 
Q 1934 2091 2100 2284 
Q 2413 2666 2522 2902 
Q 2631 3138 2631 3384 
Q 2631 3775 2401 3997 
Q 2172 4219 1772 4219 
Q 1488 4219 1175 4116 
Q 863 4013 513 3803 
L 513 4441 
Q 834 4594 1145 4672 
Q 1456 4750 1759 4750 
Q 2444 4750 2861 4386 
Q 3278 4022 3278 3431 
Q 3278 3131 3139 2831 
Q 3000 2531 2688 2169 
Q 2513 1966 2180 1606 
Q 1847 1247 1166 531 
z
" transform="scale(0.015625)"/>
       </defs>
       <use xlink:href="#DejaVuSansMono-32"/>
       <use xlink:href="#DejaVuSansMono-30" x="60.205078"/>
       <use xlink:href="#DejaVuSansMono-30" x="120.410156"/>
       <use xlink:href="#DejaVuSansMono-30" x="180.615234"/>
      </g>
     </g>
    </g>
    <g id="xtick_5">
     <g id="line2d_5">
      <path d="M 636.544056 390.04 
L 636.544056 25.44 
" clip-path="url(#pb2190259a4)" style="fill: none; stroke-dasharray: 1.85,0.8; stroke-dashoffset: 0; stroke: #fff8e8; stroke-opacity: 0.3; stroke-width: 0.5"/>
     </g>
     <g id="text_5">
      <!-- 2005 -->
      <g style="fill: #fff8e8" transform="translate(624.503431 404.691562) scale(0.1 -0.1)">
       <use xlink:href="#DejaVuSansMono-32"/>
       <use xlink:href="#DejaVuSansMono-30" x="60.205078"/>
       <use xlink:href="#DejaVuSansMono-30" x="120.410156"/>
       <use xlink:href="#DejaVuSansMono-35" x="180.615234"/>
      </g>
     </g>
    </g>
    <g id="xtick_6">
     <g id="line2d_6">
      <path d="M 763.024242 390.04 
L 763.024242 25.44 
" clip-path="url(#pb2190259a4)" style="fill: none; stroke-dasharray: 1.85,0.8; stroke-dashoffset: 0; stroke: #fff8e8; stroke-opacity: 0.3; stroke-width: 0.5"/>
     </g>
     <g id="text_6">
      <!-- 2010 -->
      <g style="fill: #fff8e8" transform="translate(750.983617 404.691562) scale(0.1 -0.1)">
       <use xlink:href="#DejaVuSansMono-32"/>
       <use xlink:href="#DejaVuSansMono-30" x="60.205078"/>
       <use xlink:href="#DejaVuSansMono-31" x="120.410156"/>
       <use xlink:href="#DejaVuSansMono-30" x="180.615234"/>
      </g>
     </g>
    </g>
    <g id="xtick_7">
     <g id="line2d_7">
      <path d="M 889.504429 390.04 
L 889.504429 25.44 
" clip-path="url(#pb2190259a4)" style="fill: none; stroke-dasharray: 1.85,0.8; stroke-dashoffset: 0; stroke: #fff8e8; stroke-opacity: 0.3; stroke-width: 0.5"/>
     </g>
     <g id="text_7">
      <!-- 2015 -->
      <g style="fill: #fff8e8" transform="translate(877.463804 404.691562) scale(0.1 -0.1)">
       <use xlink:href="#DejaVuSansMono-32"/>
       <use xlink:href="#DejaVuSansMono-30" x="60.205078"/>
       <use xlink:href="#DejaVuSansMono-31" x="120.410156"/>
       <use xlink:href="#DejaVuSansMono-35" x="180.615234"/>
      </g>
     </g>
    </g>
    <g id="xtick_8">
     <g id="line2d_8">
      <path d="M 1015.984615 390.04 
L 1015.984615 25.44 
" clip-path="url(#pb2190259a4)" style="fill: none; stroke-dasharray: 1.85,0.8; stroke-dashoffset: 0; stroke: #fff8e8; stroke-opacity: 0.3; stroke-width: 0.5"/>
     </g>
     <g id="text_8">
      <!-- 2020 -->
      <g style="fill: #fff8e8" transform="translate(1003.94399 404.691562) scale(0.1 -0.1)">
       <use xlink:href="#DejaVuSansMono-32"/>
       <use xlink:href="#DejaVuSansMono-30" x="60.205078"/>
       <use xlink:href="#DejaVuSansMono-32" x="120.410156"/>
       <use xlink:href="#DejaVuSansMono-30" x="180.615234"/>
      </g>
     </g>
    </g>
    <g id="text_9">
     <!-- Year -->
     <g style="fill: #fff8e8" transform="translate(586.559375 418.422812) scale(0.1 -0.1)">
      <defs>
       <path id="DejaVuSansMono-59" d="M 116 4666 
L 788 4666 
L 1925 2606 
L 3059 4666 
L 3738 4666 
L 2241 2094 
L 2241 0 
L 1606 0 
L 1606 2094 
L 116 4666 
z
" transform="scale(0.015625)"/>
       <path id="DejaVuSansMono-65" d="M 3475 1894 
L 3475 1613 
L 984 1613 
L 984 1594 
Q 984 1022 1282 709 
Q 1581 397 2125 397 
Q 2400 397 2700 484 
Q 3000 572 3341 750 
L 3341 178 
Q 3013 44 2708 -23 
Q 2403 -91 2119 -91 
Q 1303 -91 843 398 
Q 384 888 384 1747 
Q 384 2584 834 3084 
Q 1284 3584 2034 3584 
Q 2703 3584 3089 3131 
Q 3475 2678 3475 1894 
z
M 2900 2063 
Q 2888 2569 2661 2833 
Q 2434 3097 2009 3097 
Q 1594 3097 1325 2822 
Q 1056 2547 1006 2059 
L 2900 2063 
z
" transform="scale(0.015625)"/>
       <path id="DejaVuSansMono-61" d="M 2194 1759 
L 2003 1759 
Q 1500 1759 1245 1582 
Q 991 1406 991 1056 
Q 991 741 1181 566 
Q 1372 391 1709 391 
Q 2184 391 2456 720 
Q 2728 1050 2731 1631 
L 2731 1759 
L 2194 1759 
z
M 3309 1997 
L 3309 0 
L 2731 0 
L 2731 519 
Q 2547 206 2267 57 
Q 1988 -91 1588 -91 
Q 1053 -91 734 211 
Q 416 513 416 1019 
Q 416 1603 808 1906 
Q 1200 2209 1959 2209 
L 2731 2209 
L 2731 2300 
Q 2728 2719 2518 2908 
Q 2309 3097 1850 3097 
Q 1556 3097 1256 3012 
Q 956 2928 672 2766 
L 672 3341 
Q 991 3463 1283 3523 
Q 1575 3584 1850 3584 
Q 2284 3584 2592 3456 
Q 2900 3328 3091 3072 
Q 3209 2916 3259 2686 
Q 3309 2456 3309 1997 
z
" transform="scale(0.015625)"/>
       <path id="DejaVuSansMono-72" d="M 3609 2778 
Q 3425 2922 3234 2987 
Q 3044 3053 2816 3053 
Q 2278 3053 1993 2715 
Q 1709 2378 1709 1741 
L 1709 0 
L 1131 0 
L 1131 3500 
L 1709 3500 
L 1709 2816 
Q 1853 3188 2151 3386 
Q 2450 3584 2859 3584 
Q 3072 3584 3256 3531 
Q 3441 3478 3609 3366 
L 3609 2778 
z
" transform="scale(0.015625)"/>
      </defs>
      <use xlink:href="#DejaVuSansMono-59"/>
      <use xlink:href="#DejaVuSansMono-65" x="60.205078"/>
      <use xlink:href="#DejaVuSansMono-61" x="120.410156"/>
      <use xlink:href="#DejaVuSansMono-72" x="180.615234"/>
     </g>
    </g>
   </g>
   <g id="matplotlib.axis_2">
    <g id="ytick_1">
     <g id="line2d_9">
      <path d="M 56 373.467273 
L 1141.2 373.467273 
" clip-path="url(#pb2190259a4)" style="fill: none; stroke-dasharray: 1.85,0.8; stroke-dashoffset: 0; stroke: #fff8e8; stroke-opacity: 0.3; stroke-width: 0.5"/>
     </g>
     <g id="text_10">
      <!-- 0 -->
      <g style="fill: #fff8e8" transform="translate(42.979687 377.293054) scale(0.1 -0.1)">
       <use xlink:href="#DejaVuSansMono-30"/>
      </g>
     </g>
    </g>
    <g id="ytick_2">
     <g id="line2d_10">
      <path d="M 56 324.866899 
L 1141.2 324.866899 
" clip-path="url(#pb2190259a4)" style="fill: none; stroke-dasharray: 1.85,0.8; stroke-dashoffset: 0; stroke: #fff8e8; stroke-opacity: 0.3; stroke-width: 0.5"/>
     </g>
     <g id="text_11">
      <!-- 1000 -->
      <g style="fill: #fff8e8" transform="translate(24.91875 328.692681) scale(0.1 -0.1)">
       <use xlink:href="#DejaVuSansMono-31"/>
       <use xlink:href="#DejaVuSansMono-30" x="60.205078"/>
       <use xlink:href="#DejaVuSansMono-30" x="120.410156"/>
       <use xlink:href="#DejaVuSansMono-30" x="180.615234"/>
      </g>
     </g>
    </g>
    <g id="ytick_3">
     <g id="line2d_11">
      <path d="M 56 276.266526 
L 1141.2 276.266526 
" clip-path="url(#pb2190259a4)" style="fill: none; stroke-dasharray: 1.85,0.8; stroke-dashoffset: 0; stroke: #fff8e8; stroke-opacity: 0.3; stroke-width: 0.5"/>
     </g>
     <g id="text_12">
      <!-- 2000 -->
      <g style="fill: #fff8e8" transform="translate(24.91875 280.092308) scale(0.1 -0.1)">
       <use xlink:href="#DejaVuSansMono-32"/>
       <use xlink:href="#DejaVuSansMono-30" x="60.205078"/>
       <use xlink:href="#DejaVuSansMono-30" x="120.410156"/>
       <use xlink:href="#DejaVuSansMono-30" x="180.615234"/>
      </g>
     </g>
    </g>
    <g id="ytick_4">
     <g id="line2d_12">
      <path d="M 56 227.666153 
L 1141.2 227.666153 
" clip-path="url(#pb2190259a4)" style="fill: none; stroke-dasharray: 1.85,0.8; stroke-dashoffset: 0; stroke: #fff8e8; stroke-opacity: 0.3; stroke-width: 0.5"/>
     </g>
     <g id="text_13">
      <!-- 3000 -->
      <g style="fill: #fff8e8" transform="translate(24.91875 231.491934) scale(0.1 -0.1)">
       <defs>
        <path id="DejaVuSansMono-33" d="M 2425 2497 
Q 2884 2375 3128 2064 
Q 3372 1753 3372 1288 
Q 3372 644 2939 276 
Q 2506 -91 1741 -91 
Q 1419 -91 1084 -31 
Q 750 28 428 141 
L 428 769 
Q 747 603 1056 522 
Q 1366 441 1672 441 
Q 2191 441 2469 675 
Q 2747 909 2747 1350 
Q 2747 1756 2469 1995 
Q 2191 2234 1716 2234 
L 1234 2234 
L 1234 2753 
L 1716 2753 
Q 2150 2753 2394 2943 
Q 2638 3134 2638 3475 
Q 2638 3834 2411 4026 
Q 2184 4219 1766 4219 
Q 1488 4219 1191 4156 
Q 894 4094 569 3969 
L 569 4550 
Q 947 4650 1242 4700 
Q 1538 4750 1766 4750 
Q 2447 4750 2855 4408 
Q 3263 4066 3263 3500 
Q 3263 3116 3048 2859 
Q 2834 2603 2425 2497 
z
" transform="scale(0.015625)"/>
       </defs>
       <use xlink:href="#DejaVuSansMono-33"/>
       <use xlink:href="#DejaVuSansMono-30" x="60.205078"/>
       <use xlink:href="#DejaVuSansMono-30" x="120.410156"/>
       <use xlink:href="#DejaVuSansMono-30" x="180.615234"/>
      </g>
     </g>
    </g>
    <g id="ytick_5">
     <g id="line2d_13">
      <path d="M 56 179.06578 
L 1141.2 179.06578 
" clip-path="url(#pb2190259a4)" style="fill: none; stroke-dasharray: 1.85,0.8; stroke-dashoffset: 0; stroke: #fff8e8; stroke-opacity: 0.3; stroke-width: 0.5"/>
     </g>
     <g id="text_14">
      <!-- 4000 -->
      <g style="fill: #fff8e8" transform="translate(24.91875 182.891561) scale(0.1 -0.1)">
       <defs>
        <path id="DejaVuSansMono-34" d="M 2297 4091 
L 825 1625 
L 2297 1625 
L 2297 4091 
z
M 2194 4666 
L 2925 4666 
L 2925 1625 
L 3547 1625 
L 3547 1113 
L 2925 1113 
L 2925 0 
L 2297 0 
L 2297 1113 
L 319 1113 
L 319 1709 
L 2194 4666 
z
" transform="scale(0.015625)"/>
       </defs>
       <use xlink:href="#DejaVuSansMono-34"/>
       <use xlink:href="#DejaVuSansMono-30" x="60.205078"/>
       <use xlink:href="#DejaVuSansMono-30" x="120.410156"/>
       <use xlink:href="#DejaVuSansMono-30" x="180.615234"/>
      </g>
     </g>
    </g>
    <g id="ytick_6">
     <g id="line2d_14">
      <path d="M 56 130.465407 
L 1141.2 130.465407 
" clip-path="url(#pb2190259a4)" style="fill: none; stroke-dasharray: 1.85,0.8; stroke-dashoffset: 0; stroke: #fff8e8; stroke-opacity: 0.3; stroke-width: 0.5"/>
     </g>
     <g id="text_15">
      <!-- 5000 -->
      <g style="fill: #fff8e8" transform="translate(24.91875 134.291188) scale(0.1 -0.1)">
       <use xlink:href="#DejaVuSansMono-35"/>
       <use xlink:href="#DejaVuSansMono-30" x="60.205078"/>
       <use xlink:href="#DejaVuSansMono-30" x="120.410156"/>
       <use xlink:href="#DejaVuSansMono-30" x="180.615234"/>
      </g>
     </g>
    </g>
    <g id="ytick_7">
     <g id="line2d_15">
      <path d="M 56 81.865033 
L 1141.2 81.865033 
" clip-path="url(#pb2190259a4)" style="fill: none; stroke-dasharray: 1.85,0.8; stroke-dashoffset: 0; stroke: #fff8e8; stroke-opacity: 0.3; stroke-width: 0.5"/>
     </g>
     <g id="text_16">
      <!-- 6000 -->
      <g style="fill: #fff8e8" transform="translate(24.91875 85.690815) scale(0.1 -0.1)">
       <defs>
        <path id="DejaVuSansMono-36" d="M 3097 4563 
L 3097 3981 
Q 2900 4097 2678 4158 
Q 2456 4219 2216 4219 
Q 1616 4219 1306 3767 
Q 997 3316 997 2438 
Q 1147 2750 1412 2917 
Q 1678 3084 2022 3084 
Q 2697 3084 3067 2670 
Q 3438 2256 3438 1497 
Q 3438 741 3056 325 
Q 2675 -91 1984 -91 
Q 1172 -91 794 492 
Q 416 1075 416 2328 
Q 416 3509 870 4129 
Q 1325 4750 2188 4750 
Q 2419 4750 2650 4701 
Q 2881 4653 3097 4563 
z
M 1972 2591 
Q 1569 2591 1337 2300 
Q 1106 2009 1106 1497 
Q 1106 984 1337 693 
Q 1569 403 1972 403 
Q 2391 403 2603 679 
Q 2816 956 2816 1497 
Q 2816 2041 2603 2316 
Q 2391 2591 1972 2591 
z
" transform="scale(0.015625)"/>
       </defs>
       <use xlink:href="#DejaVuSansMono-36"/>
       <use xlink:href="#DejaVuSansMono-30" x="60.205078"/>
       <use xlink:href="#DejaVuSansMono-30" x="120.410156"/>
       <use xlink:href="#DejaVuSansMono-30" x="180.615234"/>
      </g>
     </g>
    </g>
    <g id="ytick_8">
     <g id="line2d_16">
      <path d="M 56 33.26466 
L 1141.2 33.26466 
" clip-path="url(#pb2190259a4)" style="fill: none; stroke-dasharray: 1.85,0.8; stroke-dashoffset: 0; stroke: #fff8e8; stroke-opacity: 0.3; stroke-width: 0.5"/>
     </g>
     <g id="text_17">
      <!-- 7000 -->
      <g style="fill: #fff8e8" transform="translate(24.91875 37.090441) scale(0.1 -0.1)">
       <defs>
        <path id="DejaVuSansMono-37" d="M 434 4666 
L 3372 4666 
L 3372 4397 
L 1703 0 
L 1044 0 
L 2669 4134 
L 434 4134 
L 434 4666 
z
" transform="scale(0.015625)"/>
       </defs>
       <use xlink:href="#DejaVuSansMono-37"/>
       <use xlink:href="#DejaVuSansMono-30" x="60.205078"/>
       <use xlink:href="#DejaVuSansMono-30" x="120.410156"/>
       <use xlink:href="#DejaVuSansMono-30" x="180.615234"/>
      </g>
     </g>
    </g>
    <g id="text_18">
     <!-- Total Citations -->
     <g style="fill: #fff8e8" transform="translate(18.839062 252.892344) rotate(-90) scale(0.1 -0.1)">
      <defs>
       <path id="DejaVuSansMono-54" d="M 147 4666 
L 3706 4666 
L 3706 4134 
L 2247 4134 
L 2247 0 
L 1613 0 
L 1613 4134 
L 147 4134 
L 147 4666 
z
" transform="scale(0.015625)"/>
       <path id="DejaVuSansMono-6f" d="M 1925 3097 
Q 1488 3097 1263 2756 
Q 1038 2416 1038 1747 
Q 1038 1081 1263 739 
Q 1488 397 1925 397 
Q 2366 397 2591 739 
Q 2816 1081 2816 1747 
Q 2816 2416 2591 2756 
Q 2366 3097 1925 3097 
z
M 1925 3584 
Q 2653 3584 3039 3112 
Q 3425 2641 3425 1747 
Q 3425 850 3040 379 
Q 2656 -91 1925 -91 
Q 1197 -91 812 379 
Q 428 850 428 1747 
Q 428 2641 812 3112 
Q 1197 3584 1925 3584 
z
" transform="scale(0.015625)"/>
       <path id="DejaVuSansMono-74" d="M 1919 4494 
L 1919 3500 
L 3225 3500 
L 3225 3053 
L 1919 3053 
L 1919 1153 
Q 1919 766 2066 612 
Q 2213 459 2578 459 
L 3225 459 
L 3225 0 
L 2522 0 
Q 1875 0 1609 259 
Q 1344 519 1344 1153 
L 1344 3053 
L 409 3053 
L 409 3500 
L 1344 3500 
L 1344 4494 
L 1919 4494 
z
" transform="scale(0.015625)"/>
       <path id="DejaVuSansMono-6c" d="M 1997 1269 
Q 1997 881 2139 684 
Q 2281 488 2559 488 
L 3231 488 
L 3231 0 
L 2503 0 
Q 1988 0 1705 331 
Q 1422 663 1422 1269 
L 1422 4447 
L 500 4447 
L 500 4897 
L 1997 4897 
L 1997 1269 
z
" transform="scale(0.015625)"/>
       <path id="DejaVuSansMono-20" transform="scale(0.015625)"/>
       <path id="DejaVuSansMono-43" d="M 3353 166 
Q 3113 38 2859 -26 
Q 2606 -91 2322 -91 
Q 1425 -91 929 543 
Q 434 1178 434 2328 
Q 434 3472 932 4111 
Q 1431 4750 2322 4750 
Q 2606 4750 2859 4686 
Q 3113 4622 3353 4494 
L 3353 3847 
Q 3122 4038 2856 4138 
Q 2591 4238 2322 4238 
Q 1706 4238 1400 3763 
Q 1094 3288 1094 2328 
Q 1094 1372 1400 897 
Q 1706 422 2322 422 
Q 2597 422 2861 522 
Q 3125 622 3353 813 
L 3353 166 
z
" transform="scale(0.015625)"/>
       <path id="DejaVuSansMono-69" d="M 800 3500 
L 2272 3500 
L 2272 447 
L 3413 447 
L 3413 0 
L 556 0 
L 556 447 
L 1697 447 
L 1697 3053 
L 800 3053 
L 800 3500 
z
M 1697 4863 
L 2272 4863 
L 2272 4134 
L 1697 4134 
L 1697 4863 
z
" transform="scale(0.015625)"/>
       <path id="DejaVuSansMono-6e" d="M 3284 2169 
L 3284 0 
L 2706 0 
L 2706 2169 
Q 2706 2641 2540 2862 
Q 2375 3084 2022 3084 
Q 1619 3084 1401 2798 
Q 1184 2513 1184 1978 
L 1184 0 
L 609 0 
L 609 3500 
L 1184 3500 
L 1184 2975 
Q 1338 3275 1600 3429 
Q 1863 3584 2222 3584 
Q 2756 3584 3020 3232 
Q 3284 2881 3284 2169 
z
" transform="scale(0.015625)"/>
       <path id="DejaVuSansMono-73" d="M 3041 3378 
L 3041 2816 
Q 2794 2959 2544 3031 
Q 2294 3103 2034 3103 
Q 1644 3103 1451 2976 
Q 1259 2850 1259 2591 
Q 1259 2356 1403 2240 
Q 1547 2125 2119 2016 
L 2350 1972 
Q 2778 1891 2998 1647 
Q 3219 1403 3219 1013 
Q 3219 494 2850 201 
Q 2481 -91 1825 -91 
Q 1566 -91 1281 -36 
Q 997 19 666 128 
L 666 722 
Q 988 556 1281 473 
Q 1575 391 1838 391 
Q 2219 391 2428 545 
Q 2638 700 2638 978 
Q 2638 1378 1872 1531 
L 1847 1538 
L 1631 1581 
Q 1134 1678 906 1908 
Q 678 2138 678 2534 
Q 678 3038 1018 3311 
Q 1359 3584 1991 3584 
Q 2272 3584 2531 3532 
Q 2791 3481 3041 3378 
z
" transform="scale(0.015625)"/>
      </defs>
      <use xlink:href="#DejaVuSansMono-54"/>
      <use xlink:href="#DejaVuSansMono-6f" x="60.205078"/>
      <use xlink:href="#DejaVuSansMono-74" x="120.410156"/>
      <use xlink:href="#DejaVuSansMono-61" x="180.615234"/>
      <use xlink:href="#DejaVuSansMono-6c" x="240.820312"/>
      <use xlink:href="#DejaVuSansMono-20" x="301.025391"/>
      <use xlink:href="#DejaVuSansMono-43" x="361.230469"/>
      <use xlink:href="#DejaVuSansMono-69" x="421.435547"/>
      <use xlink:href="#DejaVuSansMono-74" x="481.640625"/>
      <use xlink:href="#DejaVuSansMono-61" x="541.845703"/>
      <use xlink:href="#DejaVuSansMono-74" x="602.050781"/>
      <use xlink:href="#DejaVuSansMono-69" x="662.255859"/>
      <use xlink:href="#DejaVuSansMono-6f" x="722.460938"/>
      <use xlink:href="#DejaVuSansMono-6e" x="782.666016"/>
      <use xlink:href="#DejaVuSansMono-73" x="842.871094"/>
     </g>
    </g>
   </g>
   <g id="line2d_17">
    <path d="M 105.327273 373.467273 
L 130.62331 373.467273 
L 155.919347 373.467273 
L 181.215385 373.418672 
L 206.511422 366.954823 
L 231.807459 370.55125 
L 257.103497 364.427603 
L 282.399534 372.786868 
L 307.695571 368.558635 
L 332.991608 373.467273 
L 358.287646 333.857969 
L 383.583683 368.412834 
L 408.87972 373.467273 
L 434.175758 371.620459 
L 459.471795 342.411634 
L 484.767832 367.003423 
L 510.063869 361.171378 
L 535.359907 324.9155 
L 560.655944 311.744799 
L 585.951981 341.634028 
L 611.248019 300.420912 
L 636.544056 294.880469 
L 661.840093 297.164687 
L 687.136131 295.220672 
L 712.432168 206.184788 
L 737.728205 104.950211 
L 763.024242 258.57599 
L 788.32028 92.265513 
L 813.616317 169.540107 
L 838.912354 232.234588 
L 864.208392 140.622885 
L 889.504429 260.277003 
L 914.800466 361.803183 
L 940.096503 355.679536 
L 965.392541 361.608782 
L 990.688578 341.731229 
L 1015.984615 357.186148 
L 1041.280653 365.982815 
L 1066.57669 370.50265 
L 1091.872727 367.100624 
" clip-path="url(#pb2190259a4)" style="fill: none; stroke: #f2a604; stroke-width: 1.5; stroke-linecap: round"/>
    <defs>
     <path id="ma39614f073" d="M 0 3 
C 0.795609 3 1.55874 2.683901 2.12132 2.12132 
C 2.683901 1.55874 3 0.795609 3 0 
C 3 -0.795609 2.683901 -1.55874 2.12132 -2.12132 
C 1.55874 -2.683901 0.795609 -3 0 -3 
C -0.795609 -3 -1.55874 -2.683901 -2.12132 -2.12132 
C -2.683901 -1.55874 -3 -0.795609 -3 0 
C -3 0.795609 -2.683901 1.55874 -2.12132 2.12132 
C -1.55874 2.683901 -0.795609 3 0 3 
z
" style="stroke: #f2a604"/>
    </defs>
    <g clip-path="url(#pb2190259a4)">
     <use xlink:href="#ma39614f073" x="105.327273" y="373.467273" style="fill: #f2a604; stroke: #f2a604"/>
     <use xlink:href="#ma39614f073" x="130.62331" y="373.467273" style="fill: #f2a604; stroke: #f2a604"/>
     <use xlink:href="#ma39614f073" x="155.919347" y="373.467273" style="fill: #f2a604; stroke: #f2a604"/>
     <use xlink:href="#ma39614f073" x="181.215385" y="373.418672" style="fill: #f2a604; stroke: #f2a604"/>
     <use xlink:href="#ma39614f073" x="206.511422" y="366.954823" style="fill: #f2a604; stroke: #f2a604"/>
     <use xlink:href="#ma39614f073" x="231.807459" y="370.55125" style="fill: #f2a604; stroke: #f2a604"/>
     <use xlink:href="#ma39614f073" x="257.103497" y="364.427603" style="fill: #f2a604; stroke: #f2a604"/>
     <use xlink:href="#ma39614f073" x="282.399534" y="372.786868" style="fill: #f2a604; stroke: #f2a604"/>
     <use xlink:href="#ma39614f073" x="307.695571" y="368.558635" style="fill: #f2a604; stroke: #f2a604"/>
     <use xlink:href="#ma39614f073" x="332.991608" y="373.467273" style="fill: #f2a604; stroke: #f2a604"/>
     <use xlink:href="#ma39614f073" x="358.287646" y="333.857969" style="fill: #f2a604; stroke: #f2a604"/>
     <use xlink:href="#ma39614f073" x="383.583683" y="368.412834" style="fill: #f2a604; stroke: #f2a604"/>
     <use xlink:href="#ma39614f073" x="408.87972" y="373.467273" style="fill: #f2a604; stroke: #f2a604"/>
     <use xlink:href="#ma39614f073" x="434.175758" y="371.620459" style="fill: #f2a604; stroke: #f2a604"/>
     <use xlink:href="#ma39614f073" x="459.471795" y="342.411634" style="fill: #f2a604; stroke: #f2a604"/>
     <use xlink:href="#ma39614f073" x="484.767832" y="367.003423" style="fill: #f2a604; stroke: #f2a604"/>
     <use xlink:href="#ma39614f073" x="510.063869" y="361.171378" style="fill: #f2a604; stroke: #f2a604"/>
     <use xlink:href="#ma39614f073" x="535.359907" y="324.9155" style="fill: #f2a604; stroke: #f2a604"/>
     <use xlink:href="#ma39614f073" x="560.655944" y="311.744799" style="fill: #f2a604; stroke: #f2a604"/>
     <use xlink:href="#ma39614f073" x="585.951981" y="341.634028" style="fill: #f2a604; stroke: #f2a604"/>
     <use xlink:href="#ma39614f073" x="611.248019" y="300.420912" style="fill: #f2a604; stroke: #f2a604"/>
     <use xlink:href="#ma39614f073" x="636.544056" y="294.880469" style="fill: #f2a604; stroke: #f2a604"/>
     <use xlink:href="#ma39614f073" x="661.840093" y="297.164687" style="fill: #f2a604; stroke: #f2a604"/>
     <use xlink:href="#ma39614f073" x="687.136131" y="295.220672" style="fill: #f2a604; stroke: #f2a604"/>
     <use xlink:href="#ma39614f073" x="712.432168" y="206.184788" style="fill: #f2a604; stroke: #f2a604"/>
     <use xlink:href="#ma39614f073" x="737.728205" y="104.950211" style="fill: #f2a604; stroke: #f2a604"/>
     <use xlink:href="#ma39614f073" x="763.024242" y="258.57599" style="fill: #f2a604; stroke: #f2a604"/>
     <use xlink:href="#ma39614f073" x="788.32028" y="92.265513" style="fill: #f2a604; stroke: #f2a604"/>
     <use xlink:href="#ma39614f073" x="813.616317" y="169.540107" style="fill: #f2a604; stroke: #f2a604"/>
     <use xlink:href="#ma39614f073" x="838.912354" y="232.234588" style="fill: #f2a604; stroke: #f2a604"/>
     <use xlink:href="#ma39614f073" x="864.208392" y="140.622885" style="fill: #f2a604; stroke: #f2a604"/>
     <use xlink:href="#ma39614f073" x="889.504429" y="260.277003" style="fill: #f2a604; stroke: #f2a604"/>
     <use xlink:href="#ma39614f073" x="914.800466" y="361.803183" style="fill: #f2a604; stroke: #f2a604"/>
     <use xlink:href="#ma39614f073" x="940.096503" y="355.679536" style="fill: #f2a604; stroke: #f2a604"/>
     <use xlink:href="#ma39614f073" x="965.392541" y="361.608782" style="fill: #f2a604; stroke: #f2a604"/>
     <use xlink:href="#ma39614f073" x="990.688578" y="341.731229" style="fill: #f2a604; stroke: #f2a604"/>
     <use xlink:href="#ma39614f073" x="1015.984615" y="357.186148" style="fill: #f2a604; stroke: #f2a604"/>
     <use xlink:href="#ma39614f073" x="1041.280653" y="365.982815" style="fill: #f2a604; stroke: #f2a604"/>
     <use xlink:href="#ma39614f073" x="1066.57669" y="370.50265" style="fill: #f2a604; stroke: #f2a604"/>
     <use xlink:href="#ma39614f073" x="1091.872727" y="367.100624" style="fill: #f2a604; stroke: #f2a604"/>
    </g>
   </g>
   <g id="line2d_18">
    <path d="M 105.327273 296.921685 
L 130.62331 373.467273 
L 155.919347 372.689667 
L 181.215385 371.717659 
L 206.511422 370.50265 
L 231.807459 367.635228 
L 257.103497 373.418672 
L 282.399534 365.934215 
L 307.695571 372.932669 
L 332.991608 372.641066 
L 358.287646 365.885615 
L 383.583683 356.505742 
L 408.87972 364.524804 
L 434.175758 361.948984 
L 459.471795 368.947438 
L 484.767832 368.898838 
L 510.063869 365.399611 
L 535.359907 355.485135 
L 560.655944 362.386388 
L 585.951981 356.505742 
L 611.248019 357.47775 
L 636.544056 348.097878 
L 661.840093 360.490973 
L 687.136131 352.374711 
L 712.432168 354.318726 
L 737.728205 42.012727 
L 763.024242 274.808515 
L 788.32028 339.398411 
L 813.616317 341.439627 
L 838.912354 346.834268 
L 864.208392 317.431042 
L 889.504429 296.484282 
L 914.800466 357.380549 
L 940.096503 334.781376 
L 965.392541 306.155756 
L 990.688578 359.518966 
L 1015.984615 339.738614 
L 1041.280653 354.270125 
L 1066.57669 359.081562 
L 1091.872727 366.468819 
" clip-path="url(#pb2190259a4)" style="fill: none; stroke: #ed90ae; stroke-width: 1.5; stroke-linecap: round"/>
    <defs>
     <path id="m768cfe8184" d="M 0 3 
C 0.795609 3 1.55874 2.683901 2.12132 2.12132 
C 2.683901 1.55874 3 0.795609 3 0 
C 3 -0.795609 2.683901 -1.55874 2.12132 -2.12132 
C 1.55874 -2.683901 0.795609 -3 0 -3 
C -0.795609 -3 -1.55874 -2.683901 -2.12132 -2.12132 
C -2.683901 -1.55874 -3 -0.795609 -3 0 
C -3 0.795609 -2.683901 1.55874 -2.12132 2.12132 
C -1.55874 2.683901 -0.795609 3 0 3 
z
" style="stroke: #ed90ae"/>
    </defs>
    <g clip-path="url(#pb2190259a4)">
     <use xlink:href="#m768cfe8184" x="105.327273" y="296.921685" style="fill: #ed90ae; stroke: #ed90ae"/>
     <use xlink:href="#m768cfe8184" x="130.62331" y="373.467273" style="fill: #ed90ae; stroke: #ed90ae"/>
     <use xlink:href="#m768cfe8184" x="155.919347" y="372.689667" style="fill: #ed90ae; stroke: #ed90ae"/>
     <use xlink:href="#m768cfe8184" x="181.215385" y="371.717659" style="fill: #ed90ae; stroke: #ed90ae"/>
     <use xlink:href="#m768cfe8184" x="206.511422" y="370.50265" style="fill: #ed90ae; stroke: #ed90ae"/>
     <use xlink:href="#m768cfe8184" x="231.807459" y="367.635228" style="fill: #ed90ae; stroke: #ed90ae"/>
     <use xlink:href="#m768cfe8184" x="257.103497" y="373.418672" style="fill: #ed90ae; stroke: #ed90ae"/>
     <use xlink:href="#m768cfe8184" x="282.399534" y="365.934215" style="fill: #ed90ae; stroke: #ed90ae"/>
     <use xlink:href="#m768cfe8184" x="307.695571" y="372.932669" style="fill: #ed90ae; stroke: #ed90ae"/>
     <use xlink:href="#m768cfe8184" x="332.991608" y="372.641066" style="fill: #ed90ae; stroke: #ed90ae"/>
     <use xlink:href="#m768cfe8184" x="358.287646" y="365.885615" style="fill: #ed90ae; stroke: #ed90ae"/>
     <use xlink:href="#m768cfe8184" x="383.583683" y="356.505742" style="fill: #ed90ae; stroke: #ed90ae"/>
     <use xlink:href="#m768cfe8184" x="408.87972" y="364.524804" style="fill: #ed90ae; stroke: #ed90ae"/>
     <use xlink:href="#m768cfe8184" x="434.175758" y="361.948984" style="fill: #ed90ae; stroke: #ed90ae"/>
     <use xlink:href="#m768cfe8184" x="459.471795" y="368.947438" style="fill: #ed90ae; stroke: #ed90ae"/>
     <use xlink:href="#m768cfe8184" x="484.767832" y="368.898838" style="fill: #ed90ae; stroke: #ed90ae"/>
     <use xlink:href="#m768cfe8184" x="510.063869" y="365.399611" style="fill: #ed90ae; stroke: #ed90ae"/>
     <use xlink:href="#m768cfe8184" x="535.359907" y="355.485135" style="fill: #ed90ae; stroke: #ed90ae"/>
     <use xlink:href="#m768cfe8184" x="560.655944" y="362.386388" style="fill: #ed90ae; stroke: #ed90ae"/>
     <use xlink:href="#m768cfe8184" x="585.951981" y="356.505742" style="fill: #ed90ae; stroke: #ed90ae"/>
     <use xlink:href="#m768cfe8184" x="611.248019" y="357.47775" style="fill: #ed90ae; stroke: #ed90ae"/>
     <use xlink:href="#m768cfe8184" x="636.544056" y="348.097878" style="fill: #ed90ae; stroke: #ed90ae"/>
     <use xlink:href="#m768cfe8184" x="661.840093" y="360.490973" style="fill: #ed90ae; stroke: #ed90ae"/>
     <use xlink:href="#m768cfe8184" x="687.136131" y="352.374711" style="fill: #ed90ae; stroke: #ed90ae"/>
     <use xlink:href="#m768cfe8184" x="712.432168" y="354.318726" style="fill: #ed90ae; stroke: #ed90ae"/>
     <use xlink:href="#m768cfe8184" x="737.728205" y="42.012727" style="fill: #ed90ae; stroke: #ed90ae"/>
     <use xlink:href="#m768cfe8184" x="763.024242" y="274.808515" style="fill: #ed90ae; stroke: #ed90ae"/>
     <use xlink:href="#m768cfe8184" x="788.32028" y="339.398411" style="fill: #ed90ae; stroke: #ed90ae"/>
     <use xlink:href="#m768cfe8184" x="813.616317" y="341.439627" style="fill: #ed90ae; stroke: #ed90ae"/>
     <use xlink:href="#m768cfe8184" x="838.912354" y="346.834268" style="fill: #ed90ae; stroke: #ed90ae"/>
     <use xlink:href="#m768cfe8184" x="864.208392" y="317.431042" style="fill: #ed90ae; stroke: #ed90ae"/>
     <use xlink:href="#m768cfe8184" x="889.504429" y="296.484282" style="fill: #ed90ae; stroke: #ed90ae"/>
     <use xlink:href="#m768cfe8184" x="914.800466" y="357.380549" style="fill: #ed90ae; stroke: #ed90ae"/>
     <use xlink:href="#m768cfe8184" x="940.096503" y="334.781376" style="fill: #ed90ae; stroke: #ed90ae"/>
     <use xlink:href="#m768cfe8184" x="965.392541" y="306.155756" style="fill: #ed90ae; stroke: #ed90ae"/>
     <use xlink:href="#m768cfe8184" x="990.688578" y="359.518966" style="fill: #ed90ae; stroke: #ed90ae"/>
     <use xlink:href="#m768cfe8184" x="1015.984615" y="339.738614" style="fill: #ed90ae; stroke: #ed90ae"/>
     <use xlink:href="#m768cfe8184" x="1041.280653" y="354.270125" style="fill: #ed90ae; stroke: #ed90ae"/>
     <use xlink:href="#m768cfe8184" x="1066.57669" y="359.081562" style="fill: #ed90ae; stroke: #ed90ae"/>
     <use xlink:href="#m768cfe8184" x="1091.872727" y="366.468819" style="fill: #ed90ae; stroke: #ed90ae"/>
    </g>
   </g>
   <g id="line2d_19">
    <path d="M 105.327273 373.467273 
L 130.62331 373.467273 
L 155.919347 373.467273 
L 181.215385 373.17567 
L 206.511422 373.467273 
L 231.807459 373.467273 
L 257.103497 373.467273 
L 282.399534 372.786868 
L 307.695571 369.336241 
L 332.991608 373.467273 
L 358.287646 315.681429 
L 383.583683 373.467273 
L 408.87972 363.261194 
L 434.175758 373.467273 
L 459.471795 371.523258 
L 484.767832 315.584228 
L 510.063869 340.224617 
L 535.359907 254.736561 
L 560.655944 320.249864 
L 585.951981 80.504223 
L 611.248019 366.517419 
L 636.544056 322.048078 
L 661.840093 369.14184 
L 687.136131 332.545758 
L 712.432168 358.109555 
L 737.728205 358.255356 
L 763.024242 369.968046 
L 788.32028 364.087401 
L 813.616317 313.591613 
L 838.912354 307.030563 
L 864.208392 336.093586 
L 889.504429 348.438081 
L 914.800466 338.620805 
L 940.096503 347.174471 
L 965.392541 357.283348 
L 990.688578 364.865007 
L 1015.984615 363.163994 
L 1041.280653 362.289187 
L 1066.57669 368.996038 
L 1091.872727 370.50265 
" clip-path="url(#pb2190259a4)" style="fill: none; stroke: #59a689; stroke-width: 1.5; stroke-linecap: round"/>
    <defs>
     <path id="ma11fb37f56" d="M 0 3 
C 0.795609 3 1.55874 2.683901 2.12132 2.12132 
C 2.683901 1.55874 3 0.795609 3 0 
C 3 -0.795609 2.683901 -1.55874 2.12132 -2.12132 
C 1.55874 -2.683901 0.795609 -3 0 -3 
C -0.795609 -3 -1.55874 -2.683901 -2.12132 -2.12132 
C -2.683901 -1.55874 -3 -0.795609 -3 0 
C -3 0.795609 -2.683901 1.55874 -2.12132 2.12132 
C -1.55874 2.683901 -0.795609 3 0 3 
z
" style="stroke: #59a689"/>
    </defs>
    <g clip-path="url(#pb2190259a4)">
     <use xlink:href="#ma11fb37f56" x="105.327273" y="373.467273" style="fill: #59a689; stroke: #59a689"/>
     <use xlink:href="#ma11fb37f56" x="130.62331" y="373.467273" style="fill: #59a689; stroke: #59a689"/>
     <use xlink:href="#ma11fb37f56" x="155.919347" y="373.467273" style="fill: #59a689; stroke: #59a689"/>
     <use xlink:href="#ma11fb37f56" x="181.215385" y="373.17567" style="fill: #59a689; stroke: #59a689"/>
     <use xlink:href="#ma11fb37f56" x="206.511422" y="373.467273" style="fill: #59a689; stroke: #59a689"/>
     <use xlink:href="#ma11fb37f56" x="231.807459" y="373.467273" style="fill: #59a689; stroke: #59a689"/>
     <use xlink:href="#ma11fb37f56" x="257.103497" y="373.467273" style="fill: #59a689; stroke: #59a689"/>
     <use xlink:href="#ma11fb37f56" x="282.399534" y="372.786868" style="fill: #59a689; stroke: #59a689"/>
     <use xlink:href="#ma11fb37f56" x="307.695571" y="369.336241" style="fill: #59a689; stroke: #59a689"/>
     <use xlink:href="#ma11fb37f56" x="332.991608" y="373.467273" style="fill: #59a689; stroke: #59a689"/>
     <use xlink:href="#ma11fb37f56" x="358.287646" y="315.681429" style="fill: #59a689; stroke: #59a689"/>
     <use xlink:href="#ma11fb37f56" x="383.583683" y="373.467273" style="fill: #59a689; stroke: #59a689"/>
     <use xlink:href="#ma11fb37f56" x="408.87972" y="363.261194" style="fill: #59a689; stroke: #59a689"/>
     <use xlink:href="#ma11fb37f56" x="434.175758" y="373.467273" style="fill: #59a689; stroke: #59a689"/>
     <use xlink:href="#ma11fb37f56" x="459.471795" y="371.523258" style="fill: #59a689; stroke: #59a689"/>
     <use xlink:href="#ma11fb37f56" x="484.767832" y="315.584228" style="fill: #59a689; stroke: #59a689"/>
     <use xlink:href="#ma11fb37f56" x="510.063869" y="340.224617" style="fill: #59a689; stroke: #59a689"/>
     <use xlink:href="#ma11fb37f56" x="535.359907" y="254.736561" style="fill: #59a689; stroke: #59a689"/>
     <use xlink:href="#ma11fb37f56" x="560.655944" y="320.249864" style="fill: #59a689; stroke: #59a689"/>
     <use xlink:href="#ma11fb37f56" x="585.951981" y="80.504223" style="fill: #59a689; stroke: #59a689"/>
     <use xlink:href="#ma11fb37f56" x="611.248019" y="366.517419" style="fill: #59a689; stroke: #59a689"/>
     <use xlink:href="#ma11fb37f56" x="636.544056" y="322.048078" style="fill: #59a689; stroke: #59a689"/>
     <use xlink:href="#ma11fb37f56" x="661.840093" y="369.14184" style="fill: #59a689; stroke: #59a689"/>
     <use xlink:href="#ma11fb37f56" x="687.136131" y="332.545758" style="fill: #59a689; stroke: #59a689"/>
     <use xlink:href="#ma11fb37f56" x="712.432168" y="358.109555" style="fill: #59a689; stroke: #59a689"/>
     <use xlink:href="#ma11fb37f56" x="737.728205" y="358.255356" style="fill: #59a689; stroke: #59a689"/>
     <use xlink:href="#ma11fb37f56" x="763.024242" y="369.968046" style="fill: #59a689; stroke: #59a689"/>
     <use xlink:href="#ma11fb37f56" x="788.32028" y="364.087401" style="fill: #59a689; stroke: #59a689"/>
     <use xlink:href="#ma11fb37f56" x="813.616317" y="313.591613" style="fill: #59a689; stroke: #59a689"/>
     <use xlink:href="#ma11fb37f56" x="838.912354" y="307.030563" style="fill: #59a689; stroke: #59a689"/>
     <use xlink:href="#ma11fb37f56" x="864.208392" y="336.093586" style="fill: #59a689; stroke: #59a689"/>
     <use xlink:href="#ma11fb37f56" x="889.504429" y="348.438081" style="fill: #59a689; stroke: #59a689"/>
     <use xlink:href="#ma11fb37f56" x="914.800466" y="338.620805" style="fill: #59a689; stroke: #59a689"/>
     <use xlink:href="#ma11fb37f56" x="940.096503" y="347.174471" style="fill: #59a689; stroke: #59a689"/>
     <use xlink:href="#ma11fb37f56" x="965.392541" y="357.283348" style="fill: #59a689; stroke: #59a689"/>
     <use xlink:href="#ma11fb37f56" x="990.688578" y="364.865007" style="fill: #59a689; stroke: #59a689"/>
     <use xlink:href="#ma11fb37f56" x="1015.984615" y="363.163994" style="fill: #59a689; stroke: #59a689"/>
     <use xlink:href="#ma11fb37f56" x="1041.280653" y="362.289187" style="fill: #59a689; stroke: #59a689"/>
     <use xlink:href="#ma11fb37f56" x="1066.57669" y="368.996038" style="fill: #59a689; stroke: #59a689"/>
     <use xlink:href="#ma11fb37f56" x="1091.872727" y="370.50265" style="fill: #59a689; stroke: #59a689"/>
    </g>
   </g>
   <g id="line2d_20">
    <path d="M 105.327273 373.467273 
L 130.62331 373.467273 
L 155.919347 373.467273 
L 181.215385 373.467273 
L 206.511422 373.467273 
L 231.807459 373.467273 
L 257.103497 373.467273 
L 282.399534 373.467273 
L 307.695571 373.467273 
L 332.991608 370.211048 
L 358.287646 362.775191 
L 383.583683 370.599851 
L 408.87972 356.21414 
L 434.175758 321.124671 
L 459.471795 336.725391 
L 484.767832 312.036401 
L 510.063869 345.133255 
L 535.359907 310.967193 
L 560.655944 339.641413 
L 585.951981 317.479643 
L 611.248019 237.920832 
L 636.544056 277.578736 
L 661.840093 305.280949 
L 687.136131 322.193879 
L 712.432168 292.304649 
L 737.728205 294.394465 
L 763.024242 338.183402 
L 788.32028 350.139094 
L 813.616317 351.645705 
L 838.912354 331.670952 
L 864.208392 358.546958 
L 889.504429 356.262741 
L 914.800466 373.418672 
L 940.096503 372.884068 
L 965.392541 371.426057 
L 990.688578 373.029869 
L 1015.984615 373.467273 
L 1041.280653 370.356849 
L 1066.57669 373.17567 
L 1091.872727 369.676444 
" clip-path="url(#pb2190259a4)" style="fill: none; stroke: #5daa53; stroke-width: 1.5; stroke-linecap: round"/>
    <defs>
     <path id="mdfd9e1c6ba" d="M 0 3 
C 0.795609 3 1.55874 2.683901 2.12132 2.12132 
C 2.683901 1.55874 3 0.795609 3 0 
C 3 -0.795609 2.683901 -1.55874 2.12132 -2.12132 
C 1.55874 -2.683901 0.795609 -3 0 -3 
C -0.795609 -3 -1.55874 -2.683901 -2.12132 -2.12132 
C -2.683901 -1.55874 -3 -0.795609 -3 0 
C -3 0.795609 -2.683901 1.55874 -2.12132 2.12132 
C -1.55874 2.683901 -0.795609 3 0 3 
z
" style="stroke: #5daa53"/>
    </defs>
    <g clip-path="url(#pb2190259a4)">
     <use xlink:href="#mdfd9e1c6ba" x="105.327273" y="373.467273" style="fill: #5daa53; stroke: #5daa53"/>
     <use xlink:href="#mdfd9e1c6ba" x="130.62331" y="373.467273" style="fill: #5daa53; stroke: #5daa53"/>
     <use xlink:href="#mdfd9e1c6ba" x="155.919347" y="373.467273" style="fill: #5daa53; stroke: #5daa53"/>
     <use xlink:href="#mdfd9e1c6ba" x="181.215385" y="373.467273" style="fill: #5daa53; stroke: #5daa53"/>
     <use xlink:href="#mdfd9e1c6ba" x="206.511422" y="373.467273" style="fill: #5daa53; stroke: #5daa53"/>
     <use xlink:href="#mdfd9e1c6ba" x="231.807459" y="373.467273" style="fill: #5daa53; stroke: #5daa53"/>
     <use xlink:href="#mdfd9e1c6ba" x="257.103497" y="373.467273" style="fill: #5daa53; stroke: #5daa53"/>
     <use xlink:href="#mdfd9e1c6ba" x="282.399534" y="373.467273" style="fill: #5daa53; stroke: #5daa53"/>
     <use xlink:href="#mdfd9e1c6ba" x="307.695571" y="373.467273" style="fill: #5daa53; stroke: #5daa53"/>
     <use xlink:href="#mdfd9e1c6ba" x="332.991608" y="370.211048" style="fill: #5daa53; stroke: #5daa53"/>
     <use xlink:href="#mdfd9e1c6ba" x="358.287646" y="362.775191" style="fill: #5daa53; stroke: #5daa53"/>
     <use xlink:href="#mdfd9e1c6ba" x="383.583683" y="370.599851" style="fill: #5daa53; stroke: #5daa53"/>
     <use xlink:href="#mdfd9e1c6ba" x="408.87972" y="356.21414" style="fill: #5daa53; stroke: #5daa53"/>
     <use xlink:href="#mdfd9e1c6ba" x="434.175758" y="321.124671" style="fill: #5daa53; stroke: #5daa53"/>
     <use xlink:href="#mdfd9e1c6ba" x="459.471795" y="336.725391" style="fill: #5daa53; stroke: #5daa53"/>
     <use xlink:href="#mdfd9e1c6ba" x="484.767832" y="312.036401" style="fill: #5daa53; stroke: #5daa53"/>
     <use xlink:href="#mdfd9e1c6ba" x="510.063869" y="345.133255" style="fill: #5daa53; stroke: #5daa53"/>
     <use xlink:href="#mdfd9e1c6ba" x="535.359907" y="310.967193" style="fill: #5daa53; stroke: #5daa53"/>
     <use xlink:href="#mdfd9e1c6ba" x="560.655944" y="339.641413" style="fill: #5daa53; stroke: #5daa53"/>
     <use xlink:href="#mdfd9e1c6ba" x="585.951981" y="317.479643" style="fill: #5daa53; stroke: #5daa53"/>
     <use xlink:href="#mdfd9e1c6ba" x="611.248019" y="237.920832" style="fill: #5daa53; stroke: #5daa53"/>
     <use xlink:href="#mdfd9e1c6ba" x="636.544056" y="277.578736" style="fill: #5daa53; stroke: #5daa53"/>
     <use xlink:href="#mdfd9e1c6ba" x="661.840093" y="305.280949" style="fill: #5daa53; stroke: #5daa53"/>
     <use xlink:href="#mdfd9e1c6ba" x="687.136131" y="322.193879" style="fill: #5daa53; stroke: #5daa53"/>
     <use xlink:href="#mdfd9e1c6ba" x="712.432168" y="292.304649" style="fill: #5daa53; stroke: #5daa53"/>
     <use xlink:href="#mdfd9e1c6ba" x="737.728205" y="294.394465" style="fill: #5daa53; stroke: #5daa53"/>
     <use xlink:href="#mdfd9e1c6ba" x="763.024242" y="338.183402" style="fill: #5daa53; stroke: #5daa53"/>
     <use xlink:href="#mdfd9e1c6ba" x="788.32028" y="350.139094" style="fill: #5daa53; stroke: #5daa53"/>
     <use xlink:href="#mdfd9e1c6ba" x="813.616317" y="351.645705" style="fill: #5daa53; stroke: #5daa53"/>
     <use xlink:href="#mdfd9e1c6ba" x="838.912354" y="331.670952" style="fill: #5daa53; stroke: #5daa53"/>
     <use xlink:href="#mdfd9e1c6ba" x="864.208392" y="358.546958" style="fill: #5daa53; stroke: #5daa53"/>
     <use xlink:href="#mdfd9e1c6ba" x="889.504429" y="356.262741" style="fill: #5daa53; stroke: #5daa53"/>
     <use xlink:href="#mdfd9e1c6ba" x="914.800466" y="373.418672" style="fill: #5daa53; stroke: #5daa53"/>
     <use xlink:href="#mdfd9e1c6ba" x="940.096503" y="372.884068" style="fill: #5daa53; stroke: #5daa53"/>
     <use xlink:href="#mdfd9e1c6ba" x="965.392541" y="371.426057" style="fill: #5daa53; stroke: #5daa53"/>
     <use xlink:href="#mdfd9e1c6ba" x="990.688578" y="373.029869" style="fill: #5daa53; stroke: #5daa53"/>
     <use xlink:href="#mdfd9e1c6ba" x="1015.984615" y="373.467273" style="fill: #5daa53; stroke: #5daa53"/>
     <use xlink:href="#mdfd9e1c6ba" x="1041.280653" y="370.356849" style="fill: #5daa53; stroke: #5daa53"/>
     <use xlink:href="#mdfd9e1c6ba" x="1066.57669" y="373.17567" style="fill: #5daa53; stroke: #5daa53"/>
     <use xlink:href="#mdfd9e1c6ba" x="1091.872727" y="369.676444" style="fill: #5daa53; stroke: #5daa53"/>
    </g>
   </g>
   <g id="line2d_21">
    <path d="M 105.327273 373.467273 
L 130.62331 373.467273 
L 155.919347 373.467273 
L 181.215385 373.467273 
L 206.511422 373.467273 
L 231.807459 373.467273 
L 257.103497 373.467273 
L 282.399534 373.467273 
L 307.695571 373.467273 
L 332.991608 373.467273 
L 358.287646 373.467273 
L 383.583683 373.467273 
L 408.87972 373.467273 
L 434.175758 373.467273 
L 459.471795 327.880123 
L 484.767832 334.586974 
L 510.063869 324.623898 
L 535.359907 331.039147 
L 560.655944 350.187694 
L 585.951981 134.985241 
L 611.248019 347.563274 
L 636.544056 361.608782 
L 661.840093 365.30241 
L 687.136131 369.482042 
L 712.432168 344.064047 
L 737.728205 357.186148 
L 763.024242 359.616166 
L 788.32028 351.354103 
L 813.616317 371.037254 
L 838.912354 373.12707 
L 864.208392 368.218432 
L 889.504429 369.579243 
L 914.800466 371.377457 
L 940.096503 372.398065 
L 965.392541 369.093239 
L 990.688578 369.093239 
L 1015.984615 371.717659 
L 1041.280653 373.467273 
L 1066.57669 373.418672 
L 1091.872727 372.252263 
" clip-path="url(#pb2190259a4)" style="fill: none; stroke: #0a4e6b; stroke-width: 1.5; stroke-linecap: round"/>
    <defs>
     <path id="m67670afbc5" d="M 0 3 
C 0.795609 3 1.55874 2.683901 2.12132 2.12132 
C 2.683901 1.55874 3 0.795609 3 0 
C 3 -0.795609 2.683901 -1.55874 2.12132 -2.12132 
C 1.55874 -2.683901 0.795609 -3 0 -3 
C -0.795609 -3 -1.55874 -2.683901 -2.12132 -2.12132 
C -2.683901 -1.55874 -3 -0.795609 -3 0 
C -3 0.795609 -2.683901 1.55874 -2.12132 2.12132 
C -1.55874 2.683901 -0.795609 3 0 3 
z
" style="stroke: #0a4e6b"/>
    </defs>
    <g clip-path="url(#pb2190259a4)">
     <use xlink:href="#m67670afbc5" x="105.327273" y="373.467273" style="fill: #0a4e6b; stroke: #0a4e6b"/>
     <use xlink:href="#m67670afbc5" x="130.62331" y="373.467273" style="fill: #0a4e6b; stroke: #0a4e6b"/>
     <use xlink:href="#m67670afbc5" x="155.919347" y="373.467273" style="fill: #0a4e6b; stroke: #0a4e6b"/>
     <use xlink:href="#m67670afbc5" x="181.215385" y="373.467273" style="fill: #0a4e6b; stroke: #0a4e6b"/>
     <use xlink:href="#m67670afbc5" x="206.511422" y="373.467273" style="fill: #0a4e6b; stroke: #0a4e6b"/>
     <use xlink:href="#m67670afbc5" x="231.807459" y="373.467273" style="fill: #0a4e6b; stroke: #0a4e6b"/>
     <use xlink:href="#m67670afbc5" x="257.103497" y="373.467273" style="fill: #0a4e6b; stroke: #0a4e6b"/>
     <use xlink:href="#m67670afbc5" x="282.399534" y="373.467273" style="fill: #0a4e6b; stroke: #0a4e6b"/>
     <use xlink:href="#m67670afbc5" x="307.695571" y="373.467273" style="fill: #0a4e6b; stroke: #0a4e6b"/>
     <use xlink:href="#m67670afbc5" x="332.991608" y="373.467273" style="fill: #0a4e6b; stroke: #0a4e6b"/>
     <use xlink:href="#m67670afbc5" x="358.287646" y="373.467273" style="fill: #0a4e6b; stroke: #0a4e6b"/>
     <use xlink:href="#m67670afbc5" x="383.583683" y="373.467273" style="fill: #0a4e6b; stroke: #0a4e6b"/>
     <use xlink:href="#m67670afbc5" x="408.87972" y="373.467273" style="fill: #0a4e6b; stroke: #0a4e6b"/>
     <use xlink:href="#m67670afbc5" x="434.175758" y="373.467273" style="fill: #0a4e6b; stroke: #0a4e6b"/>
     <use xlink:href="#m67670afbc5" x="459.471795" y="327.880123" style="fill: #0a4e6b; stroke: #0a4e6b"/>
     <use xlink:href="#m67670afbc5" x="484.767832" y="334.586974" style="fill: #0a4e6b; stroke: #0a4e6b"/>
     <use xlink:href="#m67670afbc5" x="510.063869" y="324.623898" style="fill: #0a4e6b; stroke: #0a4e6b"/>
     <use xlink:href="#m67670afbc5" x="535.359907" y="331.039147" style="fill: #0a4e6b; stroke: #0a4e6b"/>
     <use xlink:href="#m67670afbc5" x="560.655944" y="350.187694" style="fill: #0a4e6b; stroke: #0a4e6b"/>
     <use xlink:href="#m67670afbc5" x="585.951981" y="134.985241" style="fill: #0a4e6b; stroke: #0a4e6b"/>
     <use xlink:href="#m67670afbc5" x="611.248019" y="347.563274" style="fill: #0a4e6b; stroke: #0a4e6b"/>
     <use xlink:href="#m67670afbc5" x="636.544056" y="361.608782" style="fill: #0a4e6b; stroke: #0a4e6b"/>
     <use xlink:href="#m67670afbc5" x="661.840093" y="365.30241" style="fill: #0a4e6b; stroke: #0a4e6b"/>
     <use xlink:href="#m67670afbc5" x="687.136131" y="369.482042" style="fill: #0a4e6b; stroke: #0a4e6b"/>
     <use xlink:href="#m67670afbc5" x="712.432168" y="344.064047" style="fill: #0a4e6b; stroke: #0a4e6b"/>
     <use xlink:href="#m67670afbc5" x="737.728205" y="357.186148" style="fill: #0a4e6b; stroke: #0a4e6b"/>
     <use xlink:href="#m67670afbc5" x="763.024242" y="359.616166" style="fill: #0a4e6b; stroke: #0a4e6b"/>
     <use xlink:href="#m67670afbc5" x="788.32028" y="351.354103" style="fill: #0a4e6b; stroke: #0a4e6b"/>
     <use xlink:href="#m67670afbc5" x="813.616317" y="371.037254" style="fill: #0a4e6b; stroke: #0a4e6b"/>
     <use xlink:href="#m67670afbc5" x="838.912354" y="373.12707" style="fill: #0a4e6b; stroke: #0a4e6b"/>
     <use xlink:href="#m67670afbc5" x="864.208392" y="368.218432" style="fill: #0a4e6b; stroke: #0a4e6b"/>
     <use xlink:href="#m67670afbc5" x="889.504429" y="369.579243" style="fill: #0a4e6b; stroke: #0a4e6b"/>
     <use xlink:href="#m67670afbc5" x="914.800466" y="371.377457" style="fill: #0a4e6b; stroke: #0a4e6b"/>
     <use xlink:href="#m67670afbc5" x="940.096503" y="372.398065" style="fill: #0a4e6b; stroke: #0a4e6b"/>
     <use xlink:href="#m67670afbc5" x="965.392541" y="369.093239" style="fill: #0a4e6b; stroke: #0a4e6b"/>
     <use xlink:href="#m67670afbc5" x="990.688578" y="369.093239" style="fill: #0a4e6b; stroke: #0a4e6b"/>
     <use xlink:href="#m67670afbc5" x="1015.984615" y="371.717659" style="fill: #0a4e6b; stroke: #0a4e6b"/>
     <use xlink:href="#m67670afbc5" x="1041.280653" y="373.467273" style="fill: #0a4e6b; stroke: #0a4e6b"/>
     <use xlink:href="#m67670afbc5" x="1066.57669" y="373.418672" style="fill: #0a4e6b; stroke: #0a4e6b"/>
     <use xlink:href="#m67670afbc5" x="1091.872727" y="372.252263" style="fill: #0a4e6b; stroke: #0a4e6b"/>
    </g>
   </g>
   <g id="text_19">
    <!-- Citations for Top Dark Matter Models -->
    <g style="fill: #fff8e8" transform="translate(468.56125 19.44) scale(0.12 -0.12)">
     <defs>
      <path id="DejaVuSansMono-66" d="M 3322 4863 
L 3322 4384 
L 2669 4384 
Q 2359 4384 2239 4257 
Q 2119 4131 2119 3809 
L 2119 3500 
L 3322 3500 
L 3322 3053 
L 2119 3053 
L 2119 0 
L 1544 0 
L 1544 3053 
L 609 3053 
L 609 3500 
L 1544 3500 
L 1544 3744 
Q 1544 4319 1808 4591 
Q 2072 4863 2631 4863 
L 3322 4863 
z
" transform="scale(0.015625)"/>
      <path id="DejaVuSansMono-70" d="M 1172 441 
L 1172 -1331 
L 594 -1331 
L 594 3500 
L 1172 3500 
L 1172 3053 
Q 1316 3313 1555 3448 
Q 1794 3584 2106 3584 
Q 2741 3584 3102 3093 
Q 3463 2603 3463 1734 
Q 3463 881 3100 395 
Q 2738 -91 2106 -91 
Q 1788 -91 1548 45 
Q 1309 181 1172 441 
z
M 2859 1747 
Q 2859 2416 2648 2756 
Q 2438 3097 2022 3097 
Q 1603 3097 1387 2755 
Q 1172 2413 1172 1747 
Q 1172 1084 1387 740 
Q 1603 397 2022 397 
Q 2438 397 2648 737 
Q 2859 1078 2859 1747 
z
" transform="scale(0.015625)"/>
      <path id="DejaVuSansMono-44" d="M 1363 519 
Q 2159 519 2475 911 
Q 2791 1303 2791 2328 
Q 2791 3363 2477 3755 
Q 2163 4147 1363 4147 
L 1063 4147 
L 1063 519 
L 1363 519 
z
M 1375 4666 
Q 2444 4666 2950 4097 
Q 3456 3528 3456 2328 
Q 3456 1134 2950 567 
Q 2444 0 1375 0 
L 428 0 
L 428 4666 
L 1375 4666 
z
" transform="scale(0.015625)"/>
      <path id="DejaVuSansMono-6b" d="M 738 4863 
L 1331 4863 
L 1331 2047 
L 2841 3500 
L 3541 3500 
L 2163 2181 
L 3756 0 
L 3053 0 
L 1759 1806 
L 1331 1403 
L 1331 0 
L 738 0 
L 738 4863 
z
" transform="scale(0.015625)"/>
      <path id="DejaVuSansMono-4d" d="M 269 4666 
L 1113 4666 
L 1919 2291 
L 2731 4666 
L 3578 4666 
L 3578 0 
L 2994 0 
L 2994 4122 
L 2163 1663 
L 1684 1663 
L 850 4122 
L 850 0 
L 269 0 
L 269 4666 
z
" transform="scale(0.015625)"/>
      <path id="DejaVuSansMono-64" d="M 2681 3053 
L 2681 4863 
L 3256 4863 
L 3256 0 
L 2681 0 
L 2681 441 
Q 2538 181 2298 45 
Q 2059 -91 1747 -91 
Q 1113 -91 748 401 
Q 384 894 384 1759 
Q 384 2613 750 3098 
Q 1116 3584 1747 3584 
Q 2063 3584 2303 3448 
Q 2544 3313 2681 3053 
z
M 991 1747 
Q 991 1078 1203 737 
Q 1416 397 1831 397 
Q 2247 397 2464 740 
Q 2681 1084 2681 1747 
Q 2681 2413 2464 2755 
Q 2247 3097 1831 3097 
Q 1416 3097 1203 2756 
Q 991 2416 991 1747 
z
" transform="scale(0.015625)"/>
     </defs>
     <use xlink:href="#DejaVuSansMono-43"/>
     <use xlink:href="#DejaVuSansMono-69" x="60.205078"/>
     <use xlink:href="#DejaVuSansMono-74" x="120.410156"/>
     <use xlink:href="#DejaVuSansMono-61" x="180.615234"/>
     <use xlink:href="#DejaVuSansMono-74" x="240.820312"/>
     <use xlink:href="#DejaVuSansMono-69" x="301.025391"/>
     <use xlink:href="#DejaVuSansMono-6f" x="361.230469"/>
     <use xlink:href="#DejaVuSansMono-6e" x="421.435547"/>
     <use xlink:href="#DejaVuSansMono-73" x="481.640625"/>
     <use xlink:href="#DejaVuSansMono-20" x="541.845703"/>
     <use xlink:href="#DejaVuSansMono-66" x="602.050781"/>
     <use xlink:href="#DejaVuSansMono-6f" x="662.255859"/>
     <use xlink:href="#DejaVuSansMono-72" x="722.460938"/>
     <use xlink:href="#DejaVuSansMono-20" x="782.666016"/>
     <use xlink:href="#DejaVuSansMono-54" x="842.871094"/>
     <use xlink:href="#DejaVuSansMono-6f" x="903.076172"/>
     <use xlink:href="#DejaVuSansMono-70" x="963.28125"/>
     <use xlink:href="#DejaVuSansMono-20" x="1023.486328"/>
     <use xlink:href="#DejaVuSansMono-44" x="1083.691406"/>
     <use xlink:href="#DejaVuSansMono-61" x="1143.896484"/>
     <use xlink:href="#DejaVuSansMono-72" x="1204.101562"/>
     <use xlink:href="#DejaVuSansMono-6b" x="1264.306641"/>
     <use xlink:href="#DejaVuSansMono-20" x="1324.511719"/>
     <use xlink:href="#DejaVuSansMono-4d" x="1384.716797"/>
     <use xlink:href="#DejaVuSansMono-61" x="1444.921875"/>
     <use xlink:href="#DejaVuSansMono-74" x="1505.126953"/>
     <use xlink:href="#DejaVuSansMono-74" x="1565.332031"/>
     <use xlink:href="#DejaVuSansMono-65" x="1625.537109"/>
     <use xlink:href="#DejaVuSansMono-72" x="1685.742188"/>
     <use xlink:href="#DejaVuSansMono-20" x="1745.947266"/>
     <use xlink:href="#DejaVuSansMono-4d" x="1806.152344"/>
     <use xlink:href="#DejaVuSansMono-6f" x="1866.357422"/>
     <use xlink:href="#DejaVuSansMono-64" x="1926.5625"/>
     <use xlink:href="#DejaVuSansMono-65" x="1986.767578"/>
     <use xlink:href="#DejaVuSansMono-6c" x="2046.972656"/>
     <use xlink:href="#DejaVuSansMono-73" x="2107.177734"/>
    </g>
   </g>
   <g id="legend_1">
    <g id="patch_3">
     <path d="M 891.489063 121.916563 
L 1134.2 121.916563 
Q 1136.2 121.916563 1136.2 119.916563 
L 1136.2 32.44 
Q 1136.2 30.44 1134.2 30.44 
L 891.489063 30.44 
Q 889.489063 30.44 889.489063 32.44 
L 889.489063 119.916563 
Q 889.489063 121.916563 891.489063 121.916563 
z
" style="fill: #20272d; opacity: 0.8; stroke: #cccccc; stroke-linejoin: miter"/>
    </g>
    <g id="text_20">
     <!-- Dark Matter Models -->
     <g style="fill: #fff8e8" transform="translate(958.661719 42.091563) scale(0.1 -0.1)">
      <use xlink:href="#DejaVuSansMono-44"/>
      <use xlink:href="#DejaVuSansMono-61" x="60.205078"/>
      <use xlink:href="#DejaVuSansMono-72" x="120.410156"/>
      <use xlink:href="#DejaVuSansMono-6b" x="180.615234"/>
      <use xlink:href="#DejaVuSansMono-20" x="240.820312"/>
      <use xlink:href="#DejaVuSansMono-4d" x="301.025391"/>
      <use xlink:href="#DejaVuSansMono-61" x="361.230469"/>
      <use xlink:href="#DejaVuSansMono-74" x="421.435547"/>
      <use xlink:href="#DejaVuSansMono-74" x="481.640625"/>
      <use xlink:href="#DejaVuSansMono-65" x="541.845703"/>
      <use xlink:href="#DejaVuSansMono-72" x="602.050781"/>
      <use xlink:href="#DejaVuSansMono-20" x="662.255859"/>
      <use xlink:href="#DejaVuSansMono-4d" x="722.460938"/>
      <use xlink:href="#DejaVuSansMono-6f" x="782.666016"/>
      <use xlink:href="#DejaVuSansMono-64" x="842.871094"/>
      <use xlink:href="#DejaVuSansMono-65" x="903.076172"/>
      <use xlink:href="#DejaVuSansMono-6c" x="963.28125"/>
      <use xlink:href="#DejaVuSansMono-73" x="1023.486328"/>
     </g>
    </g>
    <g id="line2d_22">
     <path d="M 893.489063 53.322812 
L 903.489063 53.322812 
L 913.489063 53.322812 
" style="fill: none; stroke: #f2a604; stroke-width: 1.5; stroke-linecap: round"/>
     <g>
      <use xlink:href="#ma39614f073" x="903.489063" y="53.322812" style="fill: #f2a604; stroke: #f2a604"/>
     </g>
    </g>
    <g id="text_21">
     <!-- weakly interacting massive particle -->
     <g style="fill: #fff8e8" transform="translate(921.489063 56.822812) scale(0.1 -0.1)">
      <defs>
       <path id="DejaVuSansMono-77" d="M 0 3500 
L 569 3500 
L 1178 672 
L 1678 2478 
L 2169 2478 
L 2675 672 
L 3284 3500 
L 3853 3500 
L 3034 0 
L 2484 0 
L 1925 1919 
L 1369 0 
L 819 0 
L 0 3500 
z
" transform="scale(0.015625)"/>
       <path id="DejaVuSansMono-79" d="M 2681 1125 
Q 2538 759 2316 163 
Q 2006 -663 1900 -844 
Q 1756 -1088 1540 -1209 
Q 1325 -1331 1038 -1331 
L 575 -1331 
L 575 -850 
L 916 -850 
Q 1169 -850 1312 -703 
Q 1456 -556 1678 56 
L 325 3500 
L 934 3500 
L 1972 763 
L 2994 3500 
L 3603 3500 
L 2681 1125 
z
" transform="scale(0.015625)"/>
       <path id="DejaVuSansMono-63" d="M 3316 178 
Q 3084 44 2839 -23 
Q 2594 -91 2338 -91 
Q 1525 -91 1067 396 
Q 609 884 609 1747 
Q 609 2609 1067 3096 
Q 1525 3584 2338 3584 
Q 2591 3584 2831 3518 
Q 3072 3453 3316 3316 
L 3316 2713 
Q 3088 2916 2858 3006 
Q 2628 3097 2338 3097 
Q 1797 3097 1506 2747 
Q 1216 2397 1216 1747 
Q 1216 1100 1508 748 
Q 1800 397 2338 397 
Q 2638 397 2875 489 
Q 3113 581 3316 775 
L 3316 178 
z
" transform="scale(0.015625)"/>
       <path id="DejaVuSansMono-67" d="M 2681 1778 
Q 2681 2425 2470 2761 
Q 2259 3097 1856 3097 
Q 1434 3097 1212 2761 
Q 991 2425 991 1778 
Q 991 1131 1214 792 
Q 1438 453 1863 453 
Q 2259 453 2470 793 
Q 2681 1134 2681 1778 
z
M 3256 225 
Q 3256 -563 2884 -969 
Q 2513 -1375 1791 -1375 
Q 1553 -1375 1293 -1331 
Q 1034 -1288 775 -1203 
L 775 -634 
Q 1081 -778 1331 -847 
Q 1581 -916 1791 -916 
Q 2256 -916 2468 -662 
Q 2681 -409 2681 141 
L 2681 166 
L 2681 556 
Q 2544 263 2306 119 
Q 2069 -25 1728 -25 
Q 1116 -25 750 465 
Q 384 956 384 1778 
Q 384 2603 750 3093 
Q 1116 3584 1728 3584 
Q 2066 3584 2300 3450 
Q 2534 3316 2681 3034 
L 2681 3488 
L 3256 3488 
L 3256 225 
z
" transform="scale(0.015625)"/>
       <path id="DejaVuSansMono-6d" d="M 2113 3144 
Q 2219 3369 2383 3476 
Q 2547 3584 2778 3584 
Q 3200 3584 3373 3257 
Q 3547 2931 3547 2028 
L 3547 0 
L 3022 0 
L 3022 2003 
Q 3022 2744 2939 2923 
Q 2856 3103 2638 3103 
Q 2388 3103 2295 2911 
Q 2203 2719 2203 2003 
L 2203 0 
L 1678 0 
L 1678 2003 
Q 1678 2753 1589 2928 
Q 1500 3103 1269 3103 
Q 1041 3103 952 2911 
Q 863 2719 863 2003 
L 863 0 
L 341 0 
L 341 3500 
L 863 3500 
L 863 3200 
Q 966 3388 1120 3486 
Q 1275 3584 1472 3584 
Q 1709 3584 1867 3475 
Q 2025 3366 2113 3144 
z
" transform="scale(0.015625)"/>
       <path id="DejaVuSansMono-76" d="M 313 3500 
L 909 3500 
L 1925 563 
L 2944 3500 
L 3541 3500 
L 2297 0 
L 1556 0 
L 313 3500 
z
" transform="scale(0.015625)"/>
      </defs>
      <use xlink:href="#DejaVuSansMono-77"/>
      <use xlink:href="#DejaVuSansMono-65" x="60.205078"/>
      <use xlink:href="#DejaVuSansMono-61" x="120.410156"/>
      <use xlink:href="#DejaVuSansMono-6b" x="180.615234"/>
      <use xlink:href="#DejaVuSansMono-6c" x="240.820312"/>
      <use xlink:href="#DejaVuSansMono-79" x="301.025391"/>
      <use xlink:href="#DejaVuSansMono-20" x="361.230469"/>
      <use xlink:href="#DejaVuSansMono-69" x="421.435547"/>
      <use xlink:href="#DejaVuSansMono-6e" x="481.640625"/>
      <use xlink:href="#DejaVuSansMono-74" x="541.845703"/>
      <use xlink:href="#DejaVuSansMono-65" x="602.050781"/>
      <use xlink:href="#DejaVuSansMono-72" x="662.255859"/>
      <use xlink:href="#DejaVuSansMono-61" x="722.460938"/>
      <use xlink:href="#DejaVuSansMono-63" x="782.666016"/>
      <use xlink:href="#DejaVuSansMono-74" x="842.871094"/>
      <use xlink:href="#DejaVuSansMono-69" x="903.076172"/>
      <use xlink:href="#DejaVuSansMono-6e" x="963.28125"/>
      <use xlink:href="#DejaVuSansMono-67" x="1023.486328"/>
      <use xlink:href="#DejaVuSansMono-20" x="1083.691406"/>
      <use xlink:href="#DejaVuSansMono-6d" x="1143.896484"/>
      <use xlink:href="#DejaVuSansMono-61" x="1204.101562"/>
      <use xlink:href="#DejaVuSansMono-73" x="1264.306641"/>
      <use xlink:href="#DejaVuSansMono-73" x="1324.511719"/>
      <use xlink:href="#DejaVuSansMono-69" x="1384.716797"/>
      <use xlink:href="#DejaVuSansMono-76" x="1444.921875"/>
      <use xlink:href="#DejaVuSansMono-65" x="1505.126953"/>
      <use xlink:href="#DejaVuSansMono-20" x="1565.332031"/>
      <use xlink:href="#DejaVuSansMono-70" x="1625.537109"/>
      <use xlink:href="#DejaVuSansMono-61" x="1685.742188"/>
      <use xlink:href="#DejaVuSansMono-72" x="1745.947266"/>
      <use xlink:href="#DejaVuSansMono-74" x="1806.152344"/>
      <use xlink:href="#DejaVuSansMono-69" x="1866.357422"/>
      <use xlink:href="#DejaVuSansMono-63" x="1926.5625"/>
      <use xlink:href="#DejaVuSansMono-6c" x="1986.767578"/>
      <use xlink:href="#DejaVuSansMono-65" x="2046.972656"/>
     </g>
    </g>
    <g id="line2d_23">
     <path d="M 893.489063 68.122813 
L 903.489063 68.122813 
L 913.489063 68.122813 
" style="fill: none; stroke: #ed90ae; stroke-width: 1.5; stroke-linecap: round"/>
     <g>
      <use xlink:href="#m768cfe8184" x="903.489063" y="68.122813" style="fill: #ed90ae; stroke: #ed90ae"/>
     </g>
    </g>
    <g id="text_22">
     <!-- axion -->
     <g style="fill: #fff8e8" transform="translate(921.489063 71.622813) scale(0.1 -0.1)">
      <defs>
       <path id="DejaVuSansMono-78" d="M 3494 3500 
L 2241 1825 
L 3616 0 
L 2950 0 
L 1925 1403 
L 903 0 
L 238 0 
L 1613 1825 
L 359 3500 
L 997 3500 
L 1925 2234 
L 2847 3500 
L 3494 3500 
z
" transform="scale(0.015625)"/>
      </defs>
      <use xlink:href="#DejaVuSansMono-61"/>
      <use xlink:href="#DejaVuSansMono-78" x="60.205078"/>
      <use xlink:href="#DejaVuSansMono-69" x="120.410156"/>
      <use xlink:href="#DejaVuSansMono-6f" x="180.615234"/>
      <use xlink:href="#DejaVuSansMono-6e" x="240.820312"/>
     </g>
    </g>
    <g id="line2d_24">
     <path d="M 893.489063 82.854062 
L 903.489063 82.854062 
L 913.489063 82.854062 
" style="fill: none; stroke: #59a689; stroke-width: 1.5; stroke-linecap: round"/>
     <g>
      <use xlink:href="#ma11fb37f56" x="903.489063" y="82.854062" style="fill: #59a689; stroke: #59a689"/>
     </g>
    </g>
    <g id="text_23">
     <!-- warm dark matter -->
     <g style="fill: #fff8e8" transform="translate(921.489063 86.354062) scale(0.1 -0.1)">
      <use xlink:href="#DejaVuSansMono-77"/>
      <use xlink:href="#DejaVuSansMono-61" x="60.205078"/>
      <use xlink:href="#DejaVuSansMono-72" x="120.410156"/>
      <use xlink:href="#DejaVuSansMono-6d" x="180.615234"/>
      <use xlink:href="#DejaVuSansMono-20" x="240.820312"/>
      <use xlink:href="#DejaVuSansMono-64" x="301.025391"/>
      <use xlink:href="#DejaVuSansMono-61" x="361.230469"/>
      <use xlink:href="#DejaVuSansMono-72" x="421.435547"/>
      <use xlink:href="#DejaVuSansMono-6b" x="481.640625"/>
      <use xlink:href="#DejaVuSansMono-20" x="541.845703"/>
      <use xlink:href="#DejaVuSansMono-6d" x="602.050781"/>
      <use xlink:href="#DejaVuSansMono-61" x="662.255859"/>
      <use xlink:href="#DejaVuSansMono-74" x="722.460938"/>
      <use xlink:href="#DejaVuSansMono-74" x="782.666016"/>
      <use xlink:href="#DejaVuSansMono-65" x="842.871094"/>
      <use xlink:href="#DejaVuSansMono-72" x="903.076172"/>
     </g>
    </g>
    <g id="line2d_25">
     <path d="M 893.489063 97.585312 
L 903.489063 97.585312 
L 913.489063 97.585312 
" style="fill: none; stroke: #5daa53; stroke-width: 1.5; stroke-linecap: round"/>
     <g>
      <use xlink:href="#mdfd9e1c6ba" x="903.489063" y="97.585312" style="fill: #5daa53; stroke: #5daa53"/>
     </g>
    </g>
    <g id="text_24">
     <!-- neutralino dark matter -->
     <g style="fill: #fff8e8" transform="translate(921.489063 101.085312) scale(0.1 -0.1)">
      <defs>
       <path id="DejaVuSansMono-75" d="M 609 1325 
L 609 3494 
L 1184 3494 
L 1184 1325 
Q 1184 853 1351 631 
Q 1519 409 1869 409 
Q 2275 409 2490 695 
Q 2706 981 2706 1516 
L 2706 3494 
L 3284 3494 
L 3284 0 
L 2706 0 
L 2706 525 
Q 2553 222 2289 65 
Q 2025 -91 1672 -91 
Q 1134 -91 871 261 
Q 609 613 609 1325 
z
" transform="scale(0.015625)"/>
      </defs>
      <use xlink:href="#DejaVuSansMono-6e"/>
      <use xlink:href="#DejaVuSansMono-65" x="60.205078"/>
      <use xlink:href="#DejaVuSansMono-75" x="120.410156"/>
      <use xlink:href="#DejaVuSansMono-74" x="180.615234"/>
      <use xlink:href="#DejaVuSansMono-72" x="240.820312"/>
      <use xlink:href="#DejaVuSansMono-61" x="301.025391"/>
      <use xlink:href="#DejaVuSansMono-6c" x="361.230469"/>
      <use xlink:href="#DejaVuSansMono-69" x="421.435547"/>
      <use xlink:href="#DejaVuSansMono-6e" x="481.640625"/>
      <use xlink:href="#DejaVuSansMono-6f" x="541.845703"/>
      <use xlink:href="#DejaVuSansMono-20" x="602.050781"/>
      <use xlink:href="#DejaVuSansMono-64" x="662.255859"/>
      <use xlink:href="#DejaVuSansMono-61" x="722.460938"/>
      <use xlink:href="#DejaVuSansMono-72" x="782.666016"/>
      <use xlink:href="#DejaVuSansMono-6b" x="842.871094"/>
      <use xlink:href="#DejaVuSansMono-20" x="903.076172"/>
      <use xlink:href="#DejaVuSansMono-6d" x="963.28125"/>
      <use xlink:href="#DejaVuSansMono-61" x="1023.486328"/>
      <use xlink:href="#DejaVuSansMono-74" x="1083.691406"/>
      <use xlink:href="#DejaVuSansMono-74" x="1143.896484"/>
      <use xlink:href="#DejaVuSansMono-65" x="1204.101562"/>
      <use xlink:href="#DejaVuSansMono-72" x="1264.306641"/>
     </g>
    </g>
    <g id="line2d_26">
     <path d="M 893.489063 112.316563 
L 903.489063 112.316563 
L 913.489063 112.316563 
" style="fill: none; stroke: #0a4e6b; stroke-width: 1.5; stroke-linecap: round"/>
     <g>
      <use xlink:href="#m67670afbc5" x="903.489063" y="112.316563" style="fill: #0a4e6b; stroke: #0a4e6b"/>
     </g>
    </g>
    <g id="text_25">
     <!-- quintessence dark matter -->
     <g style="fill: #fff8e8" transform="translate(921.489063 115.816563) scale(0.1 -0.1)">
      <defs>
       <path id="DejaVuSansMono-71" d="M 1038 1734 
Q 1038 1066 1248 725 
Q 1459 384 1875 384 
Q 2291 384 2505 726 
Q 2719 1069 2719 1734 
Q 2719 2400 2505 2742 
Q 2291 3084 1875 3084 
Q 1459 3084 1248 2743 
Q 1038 2403 1038 1734 
z
M 2719 434 
Q 2578 175 2339 36 
Q 2100 -103 1784 -103 
Q 1156 -103 792 383 
Q 428 869 428 1722 
Q 428 2591 790 3081 
Q 1153 3572 1784 3572 
Q 2097 3572 2336 3436 
Q 2575 3300 2719 3041 
L 2719 3488 
L 3297 3488 
L 3297 -1344 
L 2719 -1344 
L 2719 434 
z
" transform="scale(0.015625)"/>
      </defs>
      <use xlink:href="#DejaVuSansMono-71"/>
      <use xlink:href="#DejaVuSansMono-75" x="60.205078"/>
      <use xlink:href="#DejaVuSansMono-69" x="120.410156"/>
      <use xlink:href="#DejaVuSansMono-6e" x="180.615234"/>
      <use xlink:href="#DejaVuSansMono-74" x="240.820312"/>
      <use xlink:href="#DejaVuSansMono-65" x="301.025391"/>
      <use xlink:href="#DejaVuSansMono-73" x="361.230469"/>
      <use xlink:href="#DejaVuSansMono-73" x="421.435547"/>
      <use xlink:href="#DejaVuSansMono-65" x="481.640625"/>
      <use xlink:href="#DejaVuSansMono-6e" x="541.845703"/>
      <use xlink:href="#DejaVuSansMono-63" x="602.050781"/>
      <use xlink:href="#DejaVuSansMono-65" x="662.255859"/>
      <use xlink:href="#DejaVuSansMono-20" x="722.460938"/>
      <use xlink:href="#DejaVuSansMono-64" x="782.666016"/>
      <use xlink:href="#DejaVuSansMono-61" x="842.871094"/>
      <use xlink:href="#DejaVuSansMono-72" x="903.076172"/>
      <use xlink:href="#DejaVuSansMono-6b" x="963.28125"/>
      <use xlink:href="#DejaVuSansMono-20" x="1023.486328"/>
      <use xlink:href="#DejaVuSansMono-6d" x="1083.691406"/>
      <use xlink:href="#DejaVuSansMono-61" x="1143.896484"/>
      <use xlink:href="#DejaVuSansMono-74" x="1204.101562"/>
      <use xlink:href="#DejaVuSansMono-74" x="1264.306641"/>
      <use xlink:href="#DejaVuSansMono-65" x="1324.511719"/>
      <use xlink:href="#DejaVuSansMono-72" x="1384.716797"/>
     </g>
    </g>
   </g>
  </g>
 </g>
 <defs>
  <clipPath id="pb2190259a4">
   <rect x="56" y="25.44" width="1085.2" height="364.6"/>
  </clipPath>
 </defs>
</svg>
