<?xml version="1.0" encoding="utf-8" standalone="no"?>
<!DOCTYPE svg PUBLIC "-//W3C//DTD SVG 1.1//EN"
  "http://www.w3.org/Graphics/SVG/1.1/DTD/svg11.dtd">
<svg xmlns:xlink="http://www.w3.org/1999/xlink" width="1152pt" height="432pt" viewBox="0 0 1152 432" xmlns="http://www.w3.org/2000/svg" version="1.1">
 <metadata>
  <rdf:RDF xmlns:dc="http://purl.org/dc/elements/1.1/" xmlns:cc="http://creativecommons.org/ns#" xmlns:rdf="http://www.w3.org/1999/02/22-rdf-syntax-ns#">
   <cc:Work>
    <dc:type rdf:resource="http://purl.org/dc/dcmitype/StillImage"/>
    <dc:date>2024-10-28T19:41:39.776820</dc:date>
    <dc:format>image/svg+xml</dc:format>
    <dc:creator>
     <cc:Agent>
      <dc:title>Matplotlib v3.9.2, https://matplotlib.org/</dc:title>
     </cc:Agent>
    </dc:creator>
   </cc:Work>
  </rdf:RDF>
 </metadata>
 <defs>
  <style type="text/css">*{stroke-linejoin: round; stroke-linecap: butt}</style>
 </defs>
 <g id="figure_1">
  <g id="patch_1">
   <path d="M 0 432 
L 1152 432 
L 1152 0 
L 0 0 
z
" style="fill: #20272d"/>
  </g>
  <g id="axes_1">
   <g id="patch_2">
    <path d="M 62.03 390.04 
L 1141.2 390.04 
L 1141.2 25.44 
L 62.03 25.44 
z
" style="fill: #20272d"/>
   </g>
   <g id="matplotlib.axis_1">
    <g id="xtick_1">
     <g id="line2d_1">
      <path d="M 136.23866 390.04 
L 136.23866 25.44 
" clip-path="url(#p2dc215312b)" style="fill: none; stroke-dasharray: 1.85,0.8; stroke-dashoffset: 0; stroke: #fff8e8; stroke-opacity: 0.3; stroke-width: 0.5"/>
     </g>
     <g id="text_1">
      <!-- 1985 -->
      <g style="fill: #fff8e8" transform="translate(124.198035 404.691562) scale(0.1 -0.1)">
       <defs>
        <path id="DejaVuSansMono-31" d="M 844 531 
L 1825 531 
L 1825 4097 
L 769 3859 
L 769 4434 
L 1819 4666 
L 2450 4666 
L 2450 531 
L 3419 531 
L 3419 0 
L 844 0 
L 844 531 
z
" transform="scale(0.015625)"/>
        <path id="DejaVuSansMono-39" d="M 1863 2069 
Q 2266 2069 2495 2359 
Q 2725 2650 2725 3163 
Q 2725 3675 2495 3965 
Q 2266 4256 1863 4256 
Q 1444 4256 1231 3979 
Q 1019 3703 1019 3163 
Q 1019 2619 1230 2344 
Q 1441 2069 1863 2069 
z
M 738 97 
L 738 678 
Q 934 563 1156 502 
Q 1378 441 1619 441 
Q 2219 441 2526 892 
Q 2834 1344 2834 2222 
Q 2688 1909 2422 1742 
Q 2156 1575 1813 1575 
Q 1138 1575 767 1990 
Q 397 2406 397 3169 
Q 397 3922 776 4336 
Q 1156 4750 1850 4750 
Q 2663 4750 3041 4165 
Q 3419 3581 3419 2328 
Q 3419 1150 2964 529 
Q 2509 -91 1644 -91 
Q 1416 -91 1184 -42 
Q 953 6 738 97 
z
" transform="scale(0.015625)"/>
        <path id="DejaVuSansMono-38" d="M 1925 2216 
Q 1503 2216 1273 1980 
Q 1044 1744 1044 1313 
Q 1044 881 1276 642 
Q 1509 403 1925 403 
Q 2350 403 2579 639 
Q 2809 875 2809 1313 
Q 2809 1741 2576 1978 
Q 2344 2216 1925 2216 
z
M 1375 2478 
Q 972 2581 745 2862 
Q 519 3144 519 3541 
Q 519 4097 897 4423 
Q 1275 4750 1925 4750 
Q 2578 4750 2956 4423 
Q 3334 4097 3334 3541 
Q 3334 3144 3107 2862 
Q 2881 2581 2478 2478 
Q 2947 2375 3195 2062 
Q 3444 1750 3444 1253 
Q 3444 622 3041 265 
Q 2638 -91 1925 -91 
Q 1213 -91 811 264 
Q 409 619 409 1247 
Q 409 1747 657 2061 
Q 906 2375 1375 2478 
z
M 1147 3481 
Q 1147 3106 1347 2909 
Q 1547 2713 1925 2713 
Q 2306 2713 2506 2909 
Q 2706 3106 2706 3481 
Q 2706 3863 2507 4063 
Q 2309 4263 1925 4263 
Q 1547 4263 1347 4061 
Q 1147 3859 1147 3481 
z
" transform="scale(0.015625)"/>
        <path id="DejaVuSansMono-35" d="M 647 4666 
L 3009 4666 
L 3009 4134 
L 1222 4134 
L 1222 2988 
Q 1356 3038 1492 3061 
Q 1628 3084 1766 3084 
Q 2491 3084 2916 2656 
Q 3341 2228 3341 1497 
Q 3341 759 2895 334 
Q 2450 -91 1678 -91 
Q 1306 -91 998 -41 
Q 691 9 447 109 
L 447 750 
Q 734 594 1025 517 
Q 1316 441 1619 441 
Q 2141 441 2423 716 
Q 2706 991 2706 1497 
Q 2706 1997 2414 2275 
Q 2122 2553 1600 2553 
Q 1347 2553 1106 2495 
Q 866 2438 647 2322 
L 647 4666 
z
" transform="scale(0.015625)"/>
       </defs>
       <use xlink:href="#DejaVuSansMono-31"/>
       <use xlink:href="#DejaVuSansMono-39" x="60.205078"/>
       <use xlink:href="#DejaVuSansMono-38" x="120.410156"/>
       <use xlink:href="#DejaVuSansMono-35" x="180.615234"/>
      </g>
     </g>
    </g>
    <g id="xtick_2">
     <g id="line2d_2">
      <path d="M 262.016049 390.04 
L 262.016049 25.44 
" clip-path="url(#p2dc215312b)" style="fill: none; stroke-dasharray: 1.85,0.8; stroke-dashoffset: 0; stroke: #fff8e8; stroke-opacity: 0.3; stroke-width: 0.5"/>
     </g>
     <g id="text_2">
      <!-- 1990 -->
      <g style="fill: #fff8e8" transform="translate(249.975424 404.691562) scale(0.1 -0.1)">
       <defs>
        <path id="DejaVuSansMono-30" d="M 1509 2344 
Q 1509 2516 1629 2641 
Q 1750 2766 1919 2766 
Q 2094 2766 2219 2641 
Q 2344 2516 2344 2344 
Q 2344 2169 2220 2047 
Q 2097 1925 1919 1925 
Q 1744 1925 1626 2044 
Q 1509 2163 1509 2344 
z
M 1925 4250 
Q 1484 4250 1267 3775 
Q 1050 3300 1050 2328 
Q 1050 1359 1267 884 
Q 1484 409 1925 409 
Q 2369 409 2586 884 
Q 2803 1359 2803 2328 
Q 2803 3300 2586 3775 
Q 2369 4250 1925 4250 
z
M 1925 4750 
Q 2672 4750 3055 4137 
Q 3438 3525 3438 2328 
Q 3438 1134 3055 521 
Q 2672 -91 1925 -91 
Q 1178 -91 797 521 
Q 416 1134 416 2328 
Q 416 3525 797 4137 
Q 1178 4750 1925 4750 
z
" transform="scale(0.015625)"/>
       </defs>
       <use xlink:href="#DejaVuSansMono-31"/>
       <use xlink:href="#DejaVuSansMono-39" x="60.205078"/>
       <use xlink:href="#DejaVuSansMono-39" x="120.410156"/>
       <use xlink:href="#DejaVuSansMono-30" x="180.615234"/>
      </g>
     </g>
    </g>
    <g id="xtick_3">
     <g id="line2d_3">
      <path d="M 387.793438 390.04 
L 387.793438 25.44 
" clip-path="url(#p2dc215312b)" style="fill: none; stroke-dasharray: 1.85,0.8; stroke-dashoffset: 0; stroke: #fff8e8; stroke-opacity: 0.3; stroke-width: 0.5"/>
     </g>
     <g id="text_3">
      <!-- 1995 -->
      <g style="fill: #fff8e8" transform="translate(375.752813 404.691562) scale(0.1 -0.1)">
       <use xlink:href="#DejaVuSansMono-31"/>
       <use xlink:href="#DejaVuSansMono-39" x="60.205078"/>
       <use xlink:href="#DejaVuSansMono-39" x="120.410156"/>
       <use xlink:href="#DejaVuSansMono-35" x="180.615234"/>
      </g>
     </g>
    </g>
    <g id="xtick_4">
     <g id="line2d_4">
      <path d="M 513.570828 390.04 
L 513.570828 25.44 
" clip-path="url(#p2dc215312b)" style="fill: none; stroke-dasharray: 1.85,0.8; stroke-dashoffset: 0; stroke: #fff8e8; stroke-opacity: 0.3; stroke-width: 0.5"/>
     </g>
     <g id="text_4">
      <!-- 2000 -->
      <g style="fill: #fff8e8" transform="translate(501.530203 404.691562) scale(0.1 -0.1)">
       <defs>
        <path id="DejaVuSansMono-32" d="M 1166 531 
L 3309 531 
L 3309 0 
L 475 0 
L 475 531 
Q 1059 1147 1496 1619 
Q 1934 2091 2100 2284 
Q 2413 2666 2522 2902 
Q 2631 3138 2631 3384 
Q 2631 3775 2401 3997 
Q 2172 4219 1772 4219 
Q 1488 4219 1175 4116 
Q 863 4013 513 3803 
L 513 4441 
Q 834 4594 1145 4672 
Q 1456 4750 1759 4750 
Q 2444 4750 2861 4386 
Q 3278 4022 3278 3431 
Q 3278 3131 3139 2831 
Q 3000 2531 2688 2169 
Q 2513 1966 2180 1606 
Q 1847 1247 1166 531 
z
" transform="scale(0.015625)"/>
       </defs>
       <use xlink:href="#DejaVuSansMono-32"/>
       <use xlink:href="#DejaVuSansMono-30" x="60.205078"/>
       <use xlink:href="#DejaVuSansMono-30" x="120.410156"/>
       <use xlink:href="#DejaVuSansMono-30" x="180.615234"/>
      </g>
     </g>
    </g>
    <g id="xtick_5">
     <g id="line2d_5">
      <path d="M 639.348217 390.04 
L 639.348217 25.44 
" clip-path="url(#p2dc215312b)" style="fill: none; stroke-dasharray: 1.85,0.8; stroke-dashoffset: 0; stroke: #fff8e8; stroke-opacity: 0.3; stroke-width: 0.5"/>
     </g>
     <g id="text_5">
      <!-- 2005 -->
      <g style="fill: #fff8e8" transform="translate(627.307592 404.691562) scale(0.1 -0.1)">
       <use xlink:href="#DejaVuSansMono-32"/>
       <use xlink:href="#DejaVuSansMono-30" x="60.205078"/>
       <use xlink:href="#DejaVuSansMono-30" x="120.410156"/>
       <use xlink:href="#DejaVuSansMono-35" x="180.615234"/>
      </g>
     </g>
    </g>
    <g id="xtick_6">
     <g id="line2d_6">
      <path d="M 765.125606 390.04 
L 765.125606 25.44 
" clip-path="url(#p2dc215312b)" style="fill: none; stroke-dasharray: 1.85,0.8; stroke-dashoffset: 0; stroke: #fff8e8; stroke-opacity: 0.3; stroke-width: 0.5"/>
     </g>
     <g id="text_6">
      <!-- 2010 -->
      <g style="fill: #fff8e8" transform="translate(753.084981 404.691562) scale(0.1 -0.1)">
       <use xlink:href="#DejaVuSansMono-32"/>
       <use xlink:href="#DejaVuSansMono-30" x="60.205078"/>
       <use xlink:href="#DejaVuSansMono-31" x="120.410156"/>
       <use xlink:href="#DejaVuSansMono-30" x="180.615234"/>
      </g>
     </g>
    </g>
    <g id="xtick_7">
     <g id="line2d_7">
      <path d="M 890.902995 390.04 
L 890.902995 25.44 
" clip-path="url(#p2dc215312b)" style="fill: none; stroke-dasharray: 1.85,0.8; stroke-dashoffset: 0; stroke: #fff8e8; stroke-opacity: 0.3; stroke-width: 0.5"/>
     </g>
     <g id="text_7">
      <!-- 2015 -->
      <g style="fill: #fff8e8" transform="translate(878.86237 404.691562) scale(0.1 -0.1)">
       <use xlink:href="#DejaVuSansMono-32"/>
       <use xlink:href="#DejaVuSansMono-30" x="60.205078"/>
       <use xlink:href="#DejaVuSansMono-31" x="120.410156"/>
       <use xlink:href="#DejaVuSansMono-35" x="180.615234"/>
      </g>
     </g>
    </g>
    <g id="xtick_8">
     <g id="line2d_8">
      <path d="M 1016.680385 390.04 
L 1016.680385 25.44 
" clip-path="url(#p2dc215312b)" style="fill: none; stroke-dasharray: 1.85,0.8; stroke-dashoffset: 0; stroke: #fff8e8; stroke-opacity: 0.3; stroke-width: 0.5"/>
     </g>
     <g id="text_8">
      <!-- 2020 -->
      <g style="fill: #fff8e8" transform="translate(1004.63976 404.691562) scale(0.1 -0.1)">
       <use xlink:href="#DejaVuSansMono-32"/>
       <use xlink:href="#DejaVuSansMono-30" x="60.205078"/>
       <use xlink:href="#DejaVuSansMono-32" x="120.410156"/>
       <use xlink:href="#DejaVuSansMono-30" x="180.615234"/>
      </g>
     </g>
    </g>
    <g id="text_9">
     <!-- Year -->
     <g style="fill: #fff8e8" transform="translate(589.574375 418.422812) scale(0.1 -0.1)">
      <defs>
       <path id="DejaVuSansMono-59" d="M 116 4666 
L 788 4666 
L 1925 2606 
L 3059 4666 
L 3738 4666 
L 2241 2094 
L 2241 0 
L 1606 0 
L 1606 2094 
L 116 4666 
z
" transform="scale(0.015625)"/>
       <path id="DejaVuSansMono-65" d="M 3475 1894 
L 3475 1613 
L 984 1613 
L 984 1594 
Q 984 1022 1282 709 
Q 1581 397 2125 397 
Q 2400 397 2700 484 
Q 3000 572 3341 750 
L 3341 178 
Q 3013 44 2708 -23 
Q 2403 -91 2119 -91 
Q 1303 -91 843 398 
Q 384 888 384 1747 
Q 384 2584 834 3084 
Q 1284 3584 2034 3584 
Q 2703 3584 3089 3131 
Q 3475 2678 3475 1894 
z
M 2900 2063 
Q 2888 2569 2661 2833 
Q 2434 3097 2009 3097 
Q 1594 3097 1325 2822 
Q 1056 2547 1006 2059 
L 2900 2063 
z
" transform="scale(0.015625)"/>
       <path id="DejaVuSansMono-61" d="M 2194 1759 
L 2003 1759 
Q 1500 1759 1245 1582 
Q 991 1406 991 1056 
Q 991 741 1181 566 
Q 1372 391 1709 391 
Q 2184 391 2456 720 
Q 2728 1050 2731 1631 
L 2731 1759 
L 2194 1759 
z
M 3309 1997 
L 3309 0 
L 2731 0 
L 2731 519 
Q 2547 206 2267 57 
Q 1988 -91 1588 -91 
Q 1053 -91 734 211 
Q 416 513 416 1019 
Q 416 1603 808 1906 
Q 1200 2209 1959 2209 
L 2731 2209 
L 2731 2300 
Q 2728 2719 2518 2908 
Q 2309 3097 1850 3097 
Q 1556 3097 1256 3012 
Q 956 2928 672 2766 
L 672 3341 
Q 991 3463 1283 3523 
Q 1575 3584 1850 3584 
Q 2284 3584 2592 3456 
Q 2900 3328 3091 3072 
Q 3209 2916 3259 2686 
Q 3309 2456 3309 1997 
z
" transform="scale(0.015625)"/>
       <path id="DejaVuSansMono-72" d="M 3609 2778 
Q 3425 2922 3234 2987 
Q 3044 3053 2816 3053 
Q 2278 3053 1993 2715 
Q 1709 2378 1709 1741 
L 1709 0 
L 1131 0 
L 1131 3500 
L 1709 3500 
L 1709 2816 
Q 1853 3188 2151 3386 
Q 2450 3584 2859 3584 
Q 3072 3584 3256 3531 
Q 3441 3478 3609 3366 
L 3609 2778 
z
" transform="scale(0.015625)"/>
      </defs>
      <use xlink:href="#DejaVuSansMono-59"/>
      <use xlink:href="#DejaVuSansMono-65" x="60.205078"/>
      <use xlink:href="#DejaVuSansMono-61" x="120.410156"/>
      <use xlink:href="#DejaVuSansMono-72" x="180.615234"/>
     </g>
    </g>
   </g>
   <g id="matplotlib.axis_2">
    <g id="ytick_1">
     <g id="line2d_9">
      <path d="M 62.03 373.467273 
L 1141.2 373.467273 
" clip-path="url(#p2dc215312b)" style="fill: none; stroke-dasharray: 1.85,0.8; stroke-dashoffset: 0; stroke: #fff8e8; stroke-opacity: 0.3; stroke-width: 0.5"/>
     </g>
     <g id="text_10">
      <!-- 0 -->
      <g style="fill: #fff8e8" transform="translate(49.009687 377.293054) scale(0.1 -0.1)">
       <use xlink:href="#DejaVuSansMono-30"/>
      </g>
     </g>
    </g>
    <g id="ytick_2">
     <g id="line2d_10">
      <path d="M 62.03 293.840466 
L 1141.2 293.840466 
" clip-path="url(#p2dc215312b)" style="fill: none; stroke-dasharray: 1.85,0.8; stroke-dashoffset: 0; stroke: #fff8e8; stroke-opacity: 0.3; stroke-width: 0.5"/>
     </g>
     <g id="text_11">
      <!-- 5000 -->
      <g style="fill: #fff8e8" transform="translate(30.94875 297.666247) scale(0.1 -0.1)">
       <use xlink:href="#DejaVuSansMono-35"/>
       <use xlink:href="#DejaVuSansMono-30" x="60.205078"/>
       <use xlink:href="#DejaVuSansMono-30" x="120.410156"/>
       <use xlink:href="#DejaVuSansMono-30" x="180.615234"/>
      </g>
     </g>
    </g>
    <g id="ytick_3">
     <g id="line2d_11">
      <path d="M 62.03 214.213659 
L 1141.2 214.213659 
" clip-path="url(#p2dc215312b)" style="fill: none; stroke-dasharray: 1.85,0.8; stroke-dashoffset: 0; stroke: #fff8e8; stroke-opacity: 0.3; stroke-width: 0.5"/>
     </g>
     <g id="text_12">
      <!-- 10000 -->
      <g style="fill: #fff8e8" transform="translate(24.928438 218.039441) scale(0.1 -0.1)">
       <use xlink:href="#DejaVuSansMono-31"/>
       <use xlink:href="#DejaVuSansMono-30" x="60.205078"/>
       <use xlink:href="#DejaVuSansMono-30" x="120.410156"/>
       <use xlink:href="#DejaVuSansMono-30" x="180.615234"/>
       <use xlink:href="#DejaVuSansMono-30" x="240.820312"/>
      </g>
     </g>
    </g>
    <g id="ytick_4">
     <g id="line2d_12">
      <path d="M 62.03 134.586853 
L 1141.2 134.586853 
" clip-path="url(#p2dc215312b)" style="fill: none; stroke-dasharray: 1.85,0.8; stroke-dashoffset: 0; stroke: #fff8e8; stroke-opacity: 0.3; stroke-width: 0.5"/>
     </g>
     <g id="text_13">
      <!-- 15000 -->
      <g style="fill: #fff8e8" transform="translate(24.928438 138.412634) scale(0.1 -0.1)">
       <use xlink:href="#DejaVuSansMono-31"/>
       <use xlink:href="#DejaVuSansMono-35" x="60.205078"/>
       <use xlink:href="#DejaVuSansMono-30" x="120.410156"/>
       <use xlink:href="#DejaVuSansMono-30" x="180.615234"/>
       <use xlink:href="#DejaVuSansMono-30" x="240.820312"/>
      </g>
     </g>
    </g>
    <g id="ytick_5">
     <g id="line2d_13">
      <path d="M 62.03 54.960046 
L 1141.2 54.960046 
" clip-path="url(#p2dc215312b)" style="fill: none; stroke-dasharray: 1.85,0.8; stroke-dashoffset: 0; stroke: #fff8e8; stroke-opacity: 0.3; stroke-width: 0.5"/>
     </g>
     <g id="text_14">
      <!-- 20000 -->
      <g style="fill: #fff8e8" transform="translate(24.928438 58.785827) scale(0.1 -0.1)">
       <use xlink:href="#DejaVuSansMono-32"/>
       <use xlink:href="#DejaVuSansMono-30" x="60.205078"/>
       <use xlink:href="#DejaVuSansMono-30" x="120.410156"/>
       <use xlink:href="#DejaVuSansMono-30" x="180.615234"/>
       <use xlink:href="#DejaVuSansMono-30" x="240.820312"/>
      </g>
     </g>
    </g>
    <g id="text_15">
     <!-- Total reads -->
     <g style="fill: #fff8e8" transform="translate(18.84875 240.851719) rotate(-90) scale(0.1 -0.1)">
      <defs>
       <path id="DejaVuSansMono-54" d="M 147 4666 
L 3706 4666 
L 3706 4134 
L 2247 4134 
L 2247 0 
L 1613 0 
L 1613 4134 
L 147 4134 
L 147 4666 
z
" transform="scale(0.015625)"/>
       <path id="DejaVuSansMono-6f" d="M 1925 3097 
Q 1488 3097 1263 2756 
Q 1038 2416 1038 1747 
Q 1038 1081 1263 739 
Q 1488 397 1925 397 
Q 2366 397 2591 739 
Q 2816 1081 2816 1747 
Q 2816 2416 2591 2756 
Q 2366 3097 1925 3097 
z
M 1925 3584 
Q 2653 3584 3039 3112 
Q 3425 2641 3425 1747 
Q 3425 850 3040 379 
Q 2656 -91 1925 -91 
Q 1197 -91 812 379 
Q 428 850 428 1747 
Q 428 2641 812 3112 
Q 1197 3584 1925 3584 
z
" transform="scale(0.015625)"/>
       <path id="DejaVuSansMono-74" d="M 1919 4494 
L 1919 3500 
L 3225 3500 
L 3225 3053 
L 1919 3053 
L 1919 1153 
Q 1919 766 2066 612 
Q 2213 459 2578 459 
L 3225 459 
L 3225 0 
L 2522 0 
Q 1875 0 1609 259 
Q 1344 519 1344 1153 
L 1344 3053 
L 409 3053 
L 409 3500 
L 1344 3500 
L 1344 4494 
L 1919 4494 
z
" transform="scale(0.015625)"/>
       <path id="DejaVuSansMono-6c" d="M 1997 1269 
Q 1997 881 2139 684 
Q 2281 488 2559 488 
L 3231 488 
L 3231 0 
L 2503 0 
Q 1988 0 1705 331 
Q 1422 663 1422 1269 
L 1422 4447 
L 500 4447 
L 500 4897 
L 1997 4897 
L 1997 1269 
z
" transform="scale(0.015625)"/>
       <path id="DejaVuSansMono-20" transform="scale(0.015625)"/>
       <path id="DejaVuSansMono-64" d="M 2681 3053 
L 2681 4863 
L 3256 4863 
L 3256 0 
L 2681 0 
L 2681 441 
Q 2538 181 2298 45 
Q 2059 -91 1747 -91 
Q 1113 -91 748 401 
Q 384 894 384 1759 
Q 384 2613 750 3098 
Q 1116 3584 1747 3584 
Q 2063 3584 2303 3448 
Q 2544 3313 2681 3053 
z
M 991 1747 
Q 991 1078 1203 737 
Q 1416 397 1831 397 
Q 2247 397 2464 740 
Q 2681 1084 2681 1747 
Q 2681 2413 2464 2755 
Q 2247 3097 1831 3097 
Q 1416 3097 1203 2756 
Q 991 2416 991 1747 
z
" transform="scale(0.015625)"/>
       <path id="DejaVuSansMono-73" d="M 3041 3378 
L 3041 2816 
Q 2794 2959 2544 3031 
Q 2294 3103 2034 3103 
Q 1644 3103 1451 2976 
Q 1259 2850 1259 2591 
Q 1259 2356 1403 2240 
Q 1547 2125 2119 2016 
L 2350 1972 
Q 2778 1891 2998 1647 
Q 3219 1403 3219 1013 
Q 3219 494 2850 201 
Q 2481 -91 1825 -91 
Q 1566 -91 1281 -36 
Q 997 19 666 128 
L 666 722 
Q 988 556 1281 473 
Q 1575 391 1838 391 
Q 2219 391 2428 545 
Q 2638 700 2638 978 
Q 2638 1378 1872 1531 
L 1847 1538 
L 1631 1581 
Q 1134 1678 906 1908 
Q 678 2138 678 2534 
Q 678 3038 1018 3311 
Q 1359 3584 1991 3584 
Q 2272 3584 2531 3532 
Q 2791 3481 3041 3378 
z
" transform="scale(0.015625)"/>
      </defs>
      <use xlink:href="#DejaVuSansMono-54"/>
      <use xlink:href="#DejaVuSansMono-6f" x="60.205078"/>
      <use xlink:href="#DejaVuSansMono-74" x="120.410156"/>
      <use xlink:href="#DejaVuSansMono-61" x="180.615234"/>
      <use xlink:href="#DejaVuSansMono-6c" x="240.820312"/>
      <use xlink:href="#DejaVuSansMono-20" x="301.025391"/>
      <use xlink:href="#DejaVuSansMono-72" x="361.230469"/>
      <use xlink:href="#DejaVuSansMono-65" x="421.435547"/>
      <use xlink:href="#DejaVuSansMono-61" x="481.640625"/>
      <use xlink:href="#DejaVuSansMono-64" x="541.845703"/>
      <use xlink:href="#DejaVuSansMono-73" x="602.050781"/>
     </g>
    </g>
   </g>
   <g id="line2d_14">
    <path d="M 111.083182 373.467273 
L 136.23866 373.467273 
L 161.394138 373.467273 
L 186.549615 372.304721 
L 211.705093 373.467273 
L 236.860571 373.467273 
L 262.016049 373.467273 
L 287.171527 371.874737 
L 312.327005 365.64792 
L 337.482483 373.467273 
L 362.63796 355.057555 
L 387.793438 373.467273 
L 412.948916 349.78626 
L 438.104394 373.467273 
L 463.259872 371.540304 
L 488.41535 311.676871 
L 513.570828 325.149726 
L 538.726305 211.299318 
L 563.881783 255.603673 
L 589.037261 42.012727 
L 614.192739 356.411211 
L 639.348217 333.064631 
L 664.503695 354.213511 
L 689.659172 271.863467 
L 714.81465 327.379277 
L 739.970128 340.5177 
L 765.125606 367.351934 
L 790.281084 350.168469 
L 815.436562 207.716112 
L 840.59204 220.774908 
L 865.747517 288.218814 
L 890.902995 283.074922 
L 916.058473 251.46308 
L 941.213951 312.600542 
L 966.369429 333.287586 
L 991.524907 338.861463 
L 1016.680385 330.659901 
L 1041.835862 345.374935 
L 1066.99134 348.830739 
L 1092.146818 360.535879 
" clip-path="url(#p2dc215312b)" style="fill: none; stroke: #f2a604; stroke-width: 1.5; stroke-linecap: round"/>
    <defs>
     <path id="m2f43dccf1c" d="M 0 3 
C 0.795609 3 1.55874 2.683901 2.12132 2.12132 
C 2.683901 1.55874 3 0.795609 3 0 
C 3 -0.795609 2.683901 -1.55874 2.12132 -2.12132 
C 1.55874 -2.683901 0.795609 -3 0 -3 
C -0.795609 -3 -1.55874 -2.683901 -2.12132 -2.12132 
C -2.683901 -1.55874 -3 -0.795609 -3 0 
C -3 0.795609 -2.683901 1.55874 -2.12132 2.12132 
C -1.55874 2.683901 -0.795609 3 0 3 
z
" style="stroke: #f2a604"/>
    </defs>
    <g clip-path="url(#p2dc215312b)">
     <use xlink:href="#m2f43dccf1c" x="111.083182" y="373.467273" style="fill: #f2a604; stroke: #f2a604"/>
     <use xlink:href="#m2f43dccf1c" x="136.23866" y="373.467273" style="fill: #f2a604; stroke: #f2a604"/>
     <use xlink:href="#m2f43dccf1c" x="161.394138" y="373.467273" style="fill: #f2a604; stroke: #f2a604"/>
     <use xlink:href="#m2f43dccf1c" x="186.549615" y="372.304721" style="fill: #f2a604; stroke: #f2a604"/>
     <use xlink:href="#m2f43dccf1c" x="211.705093" y="373.467273" style="fill: #f2a604; stroke: #f2a604"/>
     <use xlink:href="#m2f43dccf1c" x="236.860571" y="373.467273" style="fill: #f2a604; stroke: #f2a604"/>
     <use xlink:href="#m2f43dccf1c" x="262.016049" y="373.467273" style="fill: #f2a604; stroke: #f2a604"/>
     <use xlink:href="#m2f43dccf1c" x="287.171527" y="371.874737" style="fill: #f2a604; stroke: #f2a604"/>
     <use xlink:href="#m2f43dccf1c" x="312.327005" y="365.64792" style="fill: #f2a604; stroke: #f2a604"/>
     <use xlink:href="#m2f43dccf1c" x="337.482483" y="373.467273" style="fill: #f2a604; stroke: #f2a604"/>
     <use xlink:href="#m2f43dccf1c" x="362.63796" y="355.057555" style="fill: #f2a604; stroke: #f2a604"/>
     <use xlink:href="#m2f43dccf1c" x="387.793438" y="373.467273" style="fill: #f2a604; stroke: #f2a604"/>
     <use xlink:href="#m2f43dccf1c" x="412.948916" y="349.78626" style="fill: #f2a604; stroke: #f2a604"/>
     <use xlink:href="#m2f43dccf1c" x="438.104394" y="373.467273" style="fill: #f2a604; stroke: #f2a604"/>
     <use xlink:href="#m2f43dccf1c" x="463.259872" y="371.540304" style="fill: #f2a604; stroke: #f2a604"/>
     <use xlink:href="#m2f43dccf1c" x="488.41535" y="311.676871" style="fill: #f2a604; stroke: #f2a604"/>
     <use xlink:href="#m2f43dccf1c" x="513.570828" y="325.149726" style="fill: #f2a604; stroke: #f2a604"/>
     <use xlink:href="#m2f43dccf1c" x="538.726305" y="211.299318" style="fill: #f2a604; stroke: #f2a604"/>
     <use xlink:href="#m2f43dccf1c" x="563.881783" y="255.603673" style="fill: #f2a604; stroke: #f2a604"/>
     <use xlink:href="#m2f43dccf1c" x="589.037261" y="42.012727" style="fill: #f2a604; stroke: #f2a604"/>
     <use xlink:href="#m2f43dccf1c" x="614.192739" y="356.411211" style="fill: #f2a604; stroke: #f2a604"/>
     <use xlink:href="#m2f43dccf1c" x="639.348217" y="333.064631" style="fill: #f2a604; stroke: #f2a604"/>
     <use xlink:href="#m2f43dccf1c" x="664.503695" y="354.213511" style="fill: #f2a604; stroke: #f2a604"/>
     <use xlink:href="#m2f43dccf1c" x="689.659172" y="271.863467" style="fill: #f2a604; stroke: #f2a604"/>
     <use xlink:href="#m2f43dccf1c" x="714.81465" y="327.379277" style="fill: #f2a604; stroke: #f2a604"/>
     <use xlink:href="#m2f43dccf1c" x="739.970128" y="340.5177" style="fill: #f2a604; stroke: #f2a604"/>
     <use xlink:href="#m2f43dccf1c" x="765.125606" y="367.351934" style="fill: #f2a604; stroke: #f2a604"/>
     <use xlink:href="#m2f43dccf1c" x="790.281084" y="350.168469" style="fill: #f2a604; stroke: #f2a604"/>
     <use xlink:href="#m2f43dccf1c" x="815.436562" y="207.716112" style="fill: #f2a604; stroke: #f2a604"/>
     <use xlink:href="#m2f43dccf1c" x="840.59204" y="220.774908" style="fill: #f2a604; stroke: #f2a604"/>
     <use xlink:href="#m2f43dccf1c" x="865.747517" y="288.218814" style="fill: #f2a604; stroke: #f2a604"/>
     <use xlink:href="#m2f43dccf1c" x="890.902995" y="283.074922" style="fill: #f2a604; stroke: #f2a604"/>
     <use xlink:href="#m2f43dccf1c" x="916.058473" y="251.46308" style="fill: #f2a604; stroke: #f2a604"/>
     <use xlink:href="#m2f43dccf1c" x="941.213951" y="312.600542" style="fill: #f2a604; stroke: #f2a604"/>
     <use xlink:href="#m2f43dccf1c" x="966.369429" y="333.287586" style="fill: #f2a604; stroke: #f2a604"/>
     <use xlink:href="#m2f43dccf1c" x="991.524907" y="338.861463" style="fill: #f2a604; stroke: #f2a604"/>
     <use xlink:href="#m2f43dccf1c" x="1016.680385" y="330.659901" style="fill: #f2a604; stroke: #f2a604"/>
     <use xlink:href="#m2f43dccf1c" x="1041.835862" y="345.374935" style="fill: #f2a604; stroke: #f2a604"/>
     <use xlink:href="#m2f43dccf1c" x="1066.99134" y="348.830739" style="fill: #f2a604; stroke: #f2a604"/>
     <use xlink:href="#m2f43dccf1c" x="1092.146818" y="360.535879" style="fill: #f2a604; stroke: #f2a604"/>
    </g>
   </g>
   <g id="line2d_15">
    <path d="M 111.083182 373.467273 
L 136.23866 373.467273 
L 161.394138 373.467273 
L 186.549615 372.607303 
L 211.705093 359.150373 
L 236.860571 366.619367 
L 262.016049 350.20032 
L 287.171527 372.655079 
L 312.327005 372.798408 
L 337.482483 373.467273 
L 362.63796 338.829612 
L 387.793438 371.906587 
L 412.948916 373.467273 
L 438.104394 372.766557 
L 463.259872 342.428743 
L 488.41535 369.852216 
L 513.570828 362.829131 
L 538.726305 360.32885 
L 563.881783 347.365606 
L 589.037261 357.908195 
L 614.192739 343.495743 
L 639.348217 326.981143 
L 664.503695 330.80323 
L 689.659172 297.407747 
L 714.81465 201.107087 
L 739.970128 174.272853 
L 765.125606 264.792607 
L 790.281084 238.436134 
L 815.436562 280.638342 
L 840.59204 290.894274 
L 865.747517 291.483513 
L 890.902995 318.636254 
L 916.058473 366.221233 
L 941.213951 358.895567 
L 966.369429 365.329413 
L 991.524907 350.709931 
L 1016.680385 348.416679 
L 1041.835862 353.019109 
L 1066.99134 366.762696 
L 1092.146818 354.086108 
" clip-path="url(#p2dc215312b)" style="fill: none; stroke: #ed90ae; stroke-width: 1.5; stroke-linecap: round"/>
    <defs>
     <path id="me41c6dd8bf" d="M 0 3 
C 0.795609 3 1.55874 2.683901 2.12132 2.12132 
C 2.683901 1.55874 3 0.795609 3 0 
C 3 -0.795609 2.683901 -1.55874 2.12132 -2.12132 
C 1.55874 -2.683901 0.795609 -3 0 -3 
C -0.795609 -3 -1.55874 -2.683901 -2.12132 -2.12132 
C -2.683901 -1.55874 -3 -0.795609 -3 0 
C -3 0.795609 -2.683901 1.55874 -2.12132 2.12132 
C -1.55874 2.683901 -0.795609 3 0 3 
z
" style="stroke: #ed90ae"/>
    </defs>
    <g clip-path="url(#p2dc215312b)">
     <use xlink:href="#me41c6dd8bf" x="111.083182" y="373.467273" style="fill: #ed90ae; stroke: #ed90ae"/>
     <use xlink:href="#me41c6dd8bf" x="136.23866" y="373.467273" style="fill: #ed90ae; stroke: #ed90ae"/>
     <use xlink:href="#me41c6dd8bf" x="161.394138" y="373.467273" style="fill: #ed90ae; stroke: #ed90ae"/>
     <use xlink:href="#me41c6dd8bf" x="186.549615" y="372.607303" style="fill: #ed90ae; stroke: #ed90ae"/>
     <use xlink:href="#me41c6dd8bf" x="211.705093" y="359.150373" style="fill: #ed90ae; stroke: #ed90ae"/>
     <use xlink:href="#me41c6dd8bf" x="236.860571" y="366.619367" style="fill: #ed90ae; stroke: #ed90ae"/>
     <use xlink:href="#me41c6dd8bf" x="262.016049" y="350.20032" style="fill: #ed90ae; stroke: #ed90ae"/>
     <use xlink:href="#me41c6dd8bf" x="287.171527" y="372.655079" style="fill: #ed90ae; stroke: #ed90ae"/>
     <use xlink:href="#me41c6dd8bf" x="312.327005" y="372.798408" style="fill: #ed90ae; stroke: #ed90ae"/>
     <use xlink:href="#me41c6dd8bf" x="337.482483" y="373.467273" style="fill: #ed90ae; stroke: #ed90ae"/>
     <use xlink:href="#me41c6dd8bf" x="362.63796" y="338.829612" style="fill: #ed90ae; stroke: #ed90ae"/>
     <use xlink:href="#me41c6dd8bf" x="387.793438" y="371.906587" style="fill: #ed90ae; stroke: #ed90ae"/>
     <use xlink:href="#me41c6dd8bf" x="412.948916" y="373.467273" style="fill: #ed90ae; stroke: #ed90ae"/>
     <use xlink:href="#me41c6dd8bf" x="438.104394" y="372.766557" style="fill: #ed90ae; stroke: #ed90ae"/>
     <use xlink:href="#me41c6dd8bf" x="463.259872" y="342.428743" style="fill: #ed90ae; stroke: #ed90ae"/>
     <use xlink:href="#me41c6dd8bf" x="488.41535" y="369.852216" style="fill: #ed90ae; stroke: #ed90ae"/>
     <use xlink:href="#me41c6dd8bf" x="513.570828" y="362.829131" style="fill: #ed90ae; stroke: #ed90ae"/>
     <use xlink:href="#me41c6dd8bf" x="538.726305" y="360.32885" style="fill: #ed90ae; stroke: #ed90ae"/>
     <use xlink:href="#me41c6dd8bf" x="563.881783" y="347.365606" style="fill: #ed90ae; stroke: #ed90ae"/>
     <use xlink:href="#me41c6dd8bf" x="589.037261" y="357.908195" style="fill: #ed90ae; stroke: #ed90ae"/>
     <use xlink:href="#me41c6dd8bf" x="614.192739" y="343.495743" style="fill: #ed90ae; stroke: #ed90ae"/>
     <use xlink:href="#me41c6dd8bf" x="639.348217" y="326.981143" style="fill: #ed90ae; stroke: #ed90ae"/>
     <use xlink:href="#me41c6dd8bf" x="664.503695" y="330.80323" style="fill: #ed90ae; stroke: #ed90ae"/>
     <use xlink:href="#me41c6dd8bf" x="689.659172" y="297.407747" style="fill: #ed90ae; stroke: #ed90ae"/>
     <use xlink:href="#me41c6dd8bf" x="714.81465" y="201.107087" style="fill: #ed90ae; stroke: #ed90ae"/>
     <use xlink:href="#me41c6dd8bf" x="739.970128" y="174.272853" style="fill: #ed90ae; stroke: #ed90ae"/>
     <use xlink:href="#me41c6dd8bf" x="765.125606" y="264.792607" style="fill: #ed90ae; stroke: #ed90ae"/>
     <use xlink:href="#me41c6dd8bf" x="790.281084" y="238.436134" style="fill: #ed90ae; stroke: #ed90ae"/>
     <use xlink:href="#me41c6dd8bf" x="815.436562" y="280.638342" style="fill: #ed90ae; stroke: #ed90ae"/>
     <use xlink:href="#me41c6dd8bf" x="840.59204" y="290.894274" style="fill: #ed90ae; stroke: #ed90ae"/>
     <use xlink:href="#me41c6dd8bf" x="865.747517" y="291.483513" style="fill: #ed90ae; stroke: #ed90ae"/>
     <use xlink:href="#me41c6dd8bf" x="890.902995" y="318.636254" style="fill: #ed90ae; stroke: #ed90ae"/>
     <use xlink:href="#me41c6dd8bf" x="916.058473" y="366.221233" style="fill: #ed90ae; stroke: #ed90ae"/>
     <use xlink:href="#me41c6dd8bf" x="941.213951" y="358.895567" style="fill: #ed90ae; stroke: #ed90ae"/>
     <use xlink:href="#me41c6dd8bf" x="966.369429" y="365.329413" style="fill: #ed90ae; stroke: #ed90ae"/>
     <use xlink:href="#me41c6dd8bf" x="991.524907" y="350.709931" style="fill: #ed90ae; stroke: #ed90ae"/>
     <use xlink:href="#me41c6dd8bf" x="1016.680385" y="348.416679" style="fill: #ed90ae; stroke: #ed90ae"/>
     <use xlink:href="#me41c6dd8bf" x="1041.835862" y="353.019109" style="fill: #ed90ae; stroke: #ed90ae"/>
     <use xlink:href="#me41c6dd8bf" x="1066.99134" y="366.762696" style="fill: #ed90ae; stroke: #ed90ae"/>
     <use xlink:href="#me41c6dd8bf" x="1092.146818" y="354.086108" style="fill: #ed90ae; stroke: #ed90ae"/>
    </g>
   </g>
   <g id="line2d_16">
    <path d="M 111.083182 373.467273 
L 136.23866 373.467273 
L 161.394138 373.467273 
L 186.549615 373.467273 
L 211.705093 373.467273 
L 236.860571 373.467273 
L 262.016049 373.467273 
L 287.171527 373.467273 
L 312.327005 337.539658 
L 337.482483 373.467273 
L 362.63796 369.1515 
L 387.793438 364.51722 
L 412.948916 373.467273 
L 438.104394 373.467273 
L 463.259872 373.467273 
L 488.41535 373.467273 
L 513.570828 280.861297 
L 538.726305 265.557024 
L 563.881783 234.343316 
L 589.037261 316.502255 
L 614.192739 362.653952 
L 639.348217 351.378797 
L 664.503695 369.740738 
L 689.659172 373.467273 
L 714.81465 299.350641 
L 739.970128 373.467273 
L 765.125606 359.421104 
L 790.281084 355.360137 
L 815.436562 333.701645 
L 840.59204 265.971084 
L 865.747517 324.401234 
L 890.902995 314.463809 
L 916.058473 350.614379 
L 941.213951 321.35949 
L 966.369429 313.906421 
L 991.524907 329.529201 
L 1016.680385 347.907068 
L 1041.835862 305.195249 
L 1066.99134 318.349597 
L 1092.146818 328.494052 
" clip-path="url(#p2dc215312b)" style="fill: none; stroke: #59a689; stroke-width: 1.5; stroke-linecap: round"/>
    <defs>
     <path id="m4ee54f9bbc" d="M 0 3 
C 0.795609 3 1.55874 2.683901 2.12132 2.12132 
C 2.683901 1.55874 3 0.795609 3 0 
C 3 -0.795609 2.683901 -1.55874 2.12132 -2.12132 
C 1.55874 -2.683901 0.795609 -3 0 -3 
C -0.795609 -3 -1.55874 -2.683901 -2.12132 -2.12132 
C -2.683901 -1.55874 -3 -0.795609 -3 0 
C -3 0.795609 -2.683901 1.55874 -2.12132 2.12132 
C -1.55874 2.683901 -0.795609 3 0 3 
z
" style="stroke: #59a689"/>
    </defs>
    <g clip-path="url(#p2dc215312b)">
     <use xlink:href="#m4ee54f9bbc" x="111.083182" y="373.467273" style="fill: #59a689; stroke: #59a689"/>
     <use xlink:href="#m4ee54f9bbc" x="136.23866" y="373.467273" style="fill: #59a689; stroke: #59a689"/>
     <use xlink:href="#m4ee54f9bbc" x="161.394138" y="373.467273" style="fill: #59a689; stroke: #59a689"/>
     <use xlink:href="#m4ee54f9bbc" x="186.549615" y="373.467273" style="fill: #59a689; stroke: #59a689"/>
     <use xlink:href="#m4ee54f9bbc" x="211.705093" y="373.467273" style="fill: #59a689; stroke: #59a689"/>
     <use xlink:href="#m4ee54f9bbc" x="236.860571" y="373.467273" style="fill: #59a689; stroke: #59a689"/>
     <use xlink:href="#m4ee54f9bbc" x="262.016049" y="373.467273" style="fill: #59a689; stroke: #59a689"/>
     <use xlink:href="#m4ee54f9bbc" x="287.171527" y="373.467273" style="fill: #59a689; stroke: #59a689"/>
     <use xlink:href="#m4ee54f9bbc" x="312.327005" y="337.539658" style="fill: #59a689; stroke: #59a689"/>
     <use xlink:href="#m4ee54f9bbc" x="337.482483" y="373.467273" style="fill: #59a689; stroke: #59a689"/>
     <use xlink:href="#m4ee54f9bbc" x="362.63796" y="369.1515" style="fill: #59a689; stroke: #59a689"/>
     <use xlink:href="#m4ee54f9bbc" x="387.793438" y="364.51722" style="fill: #59a689; stroke: #59a689"/>
     <use xlink:href="#m4ee54f9bbc" x="412.948916" y="373.467273" style="fill: #59a689; stroke: #59a689"/>
     <use xlink:href="#m4ee54f9bbc" x="438.104394" y="373.467273" style="fill: #59a689; stroke: #59a689"/>
     <use xlink:href="#m4ee54f9bbc" x="463.259872" y="373.467273" style="fill: #59a689; stroke: #59a689"/>
     <use xlink:href="#m4ee54f9bbc" x="488.41535" y="373.467273" style="fill: #59a689; stroke: #59a689"/>
     <use xlink:href="#m4ee54f9bbc" x="513.570828" y="280.861297" style="fill: #59a689; stroke: #59a689"/>
     <use xlink:href="#m4ee54f9bbc" x="538.726305" y="265.557024" style="fill: #59a689; stroke: #59a689"/>
     <use xlink:href="#m4ee54f9bbc" x="563.881783" y="234.343316" style="fill: #59a689; stroke: #59a689"/>
     <use xlink:href="#m4ee54f9bbc" x="589.037261" y="316.502255" style="fill: #59a689; stroke: #59a689"/>
     <use xlink:href="#m4ee54f9bbc" x="614.192739" y="362.653952" style="fill: #59a689; stroke: #59a689"/>
     <use xlink:href="#m4ee54f9bbc" x="639.348217" y="351.378797" style="fill: #59a689; stroke: #59a689"/>
     <use xlink:href="#m4ee54f9bbc" x="664.503695" y="369.740738" style="fill: #59a689; stroke: #59a689"/>
     <use xlink:href="#m4ee54f9bbc" x="689.659172" y="373.467273" style="fill: #59a689; stroke: #59a689"/>
     <use xlink:href="#m4ee54f9bbc" x="714.81465" y="299.350641" style="fill: #59a689; stroke: #59a689"/>
     <use xlink:href="#m4ee54f9bbc" x="739.970128" y="373.467273" style="fill: #59a689; stroke: #59a689"/>
     <use xlink:href="#m4ee54f9bbc" x="765.125606" y="359.421104" style="fill: #59a689; stroke: #59a689"/>
     <use xlink:href="#m4ee54f9bbc" x="790.281084" y="355.360137" style="fill: #59a689; stroke: #59a689"/>
     <use xlink:href="#m4ee54f9bbc" x="815.436562" y="333.701645" style="fill: #59a689; stroke: #59a689"/>
     <use xlink:href="#m4ee54f9bbc" x="840.59204" y="265.971084" style="fill: #59a689; stroke: #59a689"/>
     <use xlink:href="#m4ee54f9bbc" x="865.747517" y="324.401234" style="fill: #59a689; stroke: #59a689"/>
     <use xlink:href="#m4ee54f9bbc" x="890.902995" y="314.463809" style="fill: #59a689; stroke: #59a689"/>
     <use xlink:href="#m4ee54f9bbc" x="916.058473" y="350.614379" style="fill: #59a689; stroke: #59a689"/>
     <use xlink:href="#m4ee54f9bbc" x="941.213951" y="321.35949" style="fill: #59a689; stroke: #59a689"/>
     <use xlink:href="#m4ee54f9bbc" x="966.369429" y="313.906421" style="fill: #59a689; stroke: #59a689"/>
     <use xlink:href="#m4ee54f9bbc" x="991.524907" y="329.529201" style="fill: #59a689; stroke: #59a689"/>
     <use xlink:href="#m4ee54f9bbc" x="1016.680385" y="347.907068" style="fill: #59a689; stroke: #59a689"/>
     <use xlink:href="#m4ee54f9bbc" x="1041.835862" y="305.195249" style="fill: #59a689; stroke: #59a689"/>
     <use xlink:href="#m4ee54f9bbc" x="1066.99134" y="318.349597" style="fill: #59a689; stroke: #59a689"/>
     <use xlink:href="#m4ee54f9bbc" x="1092.146818" y="328.494052" style="fill: #59a689; stroke: #59a689"/>
    </g>
   </g>
   <g id="line2d_17">
    <path d="M 111.083182 235.426241 
L 136.23866 373.467273 
L 161.394138 368.578187 
L 186.549615 370.664409 
L 211.705093 367.240456 
L 236.860571 365.297562 
L 262.016049 373.212467 
L 287.171527 367.622665 
L 312.327005 372.511751 
L 337.482483 371.030692 
L 362.63796 371.651782 
L 387.793438 368.355232 
L 412.948916 369.549634 
L 438.104394 364.373891 
L 463.259872 367.19268 
L 488.41535 368.418933 
L 513.570828 372.384348 
L 538.726305 363.752802 
L 563.881783 366.698994 
L 589.037261 357.0323 
L 614.192739 363.068012 
L 639.348217 358.704463 
L 664.503695 362.399147 
L 689.659172 350.375499 
L 714.81465 359.277776 
L 739.970128 102.513175 
L 765.125606 345.35901 
L 790.281084 349.674783 
L 815.436562 352.923557 
L 840.59204 358.258553 
L 865.747517 349.483679 
L 890.902995 324.767518 
L 916.058473 358.019672 
L 941.213951 356.236032 
L 966.369429 327.95259 
L 991.524907 340.581402 
L 1016.680385 323.636817 
L 1041.835862 358.879642 
L 1066.99134 345.980099 
L 1092.146818 347.285979 
" clip-path="url(#p2dc215312b)" style="fill: none; stroke: #5daa53; stroke-width: 1.5; stroke-linecap: round"/>
    <defs>
     <path id="me84bdb3be1" d="M 0 3 
C 0.795609 3 1.55874 2.683901 2.12132 2.12132 
C 2.683901 1.55874 3 0.795609 3 0 
C 3 -0.795609 2.683901 -1.55874 2.12132 -2.12132 
C 1.55874 -2.683901 0.795609 -3 0 -3 
C -0.795609 -3 -1.55874 -2.683901 -2.12132 -2.12132 
C -2.683901 -1.55874 -3 -0.795609 -3 0 
C -3 0.795609 -2.683901 1.55874 -2.12132 2.12132 
C -1.55874 2.683901 -0.795609 3 0 3 
z
" style="stroke: #5daa53"/>
    </defs>
    <g clip-path="url(#p2dc215312b)">
     <use xlink:href="#me84bdb3be1" x="111.083182" y="235.426241" style="fill: #5daa53; stroke: #5daa53"/>
     <use xlink:href="#me84bdb3be1" x="136.23866" y="373.467273" style="fill: #5daa53; stroke: #5daa53"/>
     <use xlink:href="#me84bdb3be1" x="161.394138" y="368.578187" style="fill: #5daa53; stroke: #5daa53"/>
     <use xlink:href="#me84bdb3be1" x="186.549615" y="370.664409" style="fill: #5daa53; stroke: #5daa53"/>
     <use xlink:href="#me84bdb3be1" x="211.705093" y="367.240456" style="fill: #5daa53; stroke: #5daa53"/>
     <use xlink:href="#me84bdb3be1" x="236.860571" y="365.297562" style="fill: #5daa53; stroke: #5daa53"/>
     <use xlink:href="#me84bdb3be1" x="262.016049" y="373.212467" style="fill: #5daa53; stroke: #5daa53"/>
     <use xlink:href="#me84bdb3be1" x="287.171527" y="367.622665" style="fill: #5daa53; stroke: #5daa53"/>
     <use xlink:href="#me84bdb3be1" x="312.327005" y="372.511751" style="fill: #5daa53; stroke: #5daa53"/>
     <use xlink:href="#me84bdb3be1" x="337.482483" y="371.030692" style="fill: #5daa53; stroke: #5daa53"/>
     <use xlink:href="#me84bdb3be1" x="362.63796" y="371.651782" style="fill: #5daa53; stroke: #5daa53"/>
     <use xlink:href="#me84bdb3be1" x="387.793438" y="368.355232" style="fill: #5daa53; stroke: #5daa53"/>
     <use xlink:href="#me84bdb3be1" x="412.948916" y="369.549634" style="fill: #5daa53; stroke: #5daa53"/>
     <use xlink:href="#me84bdb3be1" x="438.104394" y="364.373891" style="fill: #5daa53; stroke: #5daa53"/>
     <use xlink:href="#me84bdb3be1" x="463.259872" y="367.19268" style="fill: #5daa53; stroke: #5daa53"/>
     <use xlink:href="#me84bdb3be1" x="488.41535" y="368.418933" style="fill: #5daa53; stroke: #5daa53"/>
     <use xlink:href="#me84bdb3be1" x="513.570828" y="372.384348" style="fill: #5daa53; stroke: #5daa53"/>
     <use xlink:href="#me84bdb3be1" x="538.726305" y="363.752802" style="fill: #5daa53; stroke: #5daa53"/>
     <use xlink:href="#me84bdb3be1" x="563.881783" y="366.698994" style="fill: #5daa53; stroke: #5daa53"/>
     <use xlink:href="#me84bdb3be1" x="589.037261" y="357.0323" style="fill: #5daa53; stroke: #5daa53"/>
     <use xlink:href="#me84bdb3be1" x="614.192739" y="363.068012" style="fill: #5daa53; stroke: #5daa53"/>
     <use xlink:href="#me84bdb3be1" x="639.348217" y="358.704463" style="fill: #5daa53; stroke: #5daa53"/>
     <use xlink:href="#me84bdb3be1" x="664.503695" y="362.399147" style="fill: #5daa53; stroke: #5daa53"/>
     <use xlink:href="#me84bdb3be1" x="689.659172" y="350.375499" style="fill: #5daa53; stroke: #5daa53"/>
     <use xlink:href="#me84bdb3be1" x="714.81465" y="359.277776" style="fill: #5daa53; stroke: #5daa53"/>
     <use xlink:href="#me84bdb3be1" x="739.970128" y="102.513175" style="fill: #5daa53; stroke: #5daa53"/>
     <use xlink:href="#me84bdb3be1" x="765.125606" y="345.35901" style="fill: #5daa53; stroke: #5daa53"/>
     <use xlink:href="#me84bdb3be1" x="790.281084" y="349.674783" style="fill: #5daa53; stroke: #5daa53"/>
     <use xlink:href="#me84bdb3be1" x="815.436562" y="352.923557" style="fill: #5daa53; stroke: #5daa53"/>
     <use xlink:href="#me84bdb3be1" x="840.59204" y="358.258553" style="fill: #5daa53; stroke: #5daa53"/>
     <use xlink:href="#me84bdb3be1" x="865.747517" y="349.483679" style="fill: #5daa53; stroke: #5daa53"/>
     <use xlink:href="#me84bdb3be1" x="890.902995" y="324.767518" style="fill: #5daa53; stroke: #5daa53"/>
     <use xlink:href="#me84bdb3be1" x="916.058473" y="358.019672" style="fill: #5daa53; stroke: #5daa53"/>
     <use xlink:href="#me84bdb3be1" x="941.213951" y="356.236032" style="fill: #5daa53; stroke: #5daa53"/>
     <use xlink:href="#me84bdb3be1" x="966.369429" y="327.95259" style="fill: #5daa53; stroke: #5daa53"/>
     <use xlink:href="#me84bdb3be1" x="991.524907" y="340.581402" style="fill: #5daa53; stroke: #5daa53"/>
     <use xlink:href="#me84bdb3be1" x="1016.680385" y="323.636817" style="fill: #5daa53; stroke: #5daa53"/>
     <use xlink:href="#me84bdb3be1" x="1041.835862" y="358.879642" style="fill: #5daa53; stroke: #5daa53"/>
     <use xlink:href="#me84bdb3be1" x="1066.99134" y="345.980099" style="fill: #5daa53; stroke: #5daa53"/>
     <use xlink:href="#me84bdb3be1" x="1092.146818" y="347.285979" style="fill: #5daa53; stroke: #5daa53"/>
    </g>
   </g>
   <g id="line2d_18">
    <path d="M 111.083182 373.467273 
L 136.23866 373.467273 
L 161.394138 373.467273 
L 186.549615 373.467273 
L 211.705093 373.467273 
L 236.860571 373.467273 
L 262.016049 373.467273 
L 287.171527 373.467273 
L 312.327005 373.467273 
L 337.482483 372.957661 
L 362.63796 370.441454 
L 387.793438 373.069139 
L 412.948916 372.846184 
L 438.104394 367.750068 
L 463.259872 360.997715 
L 488.41535 355.169033 
L 513.570828 365.918651 
L 538.726305 344.514966 
L 563.881783 351.808781 
L 589.037261 350.471051 
L 614.192739 284.253399 
L 639.348217 318.508851 
L 664.503695 340.469924 
L 689.659172 302.774594 
L 714.81465 306.740009 
L 739.970128 310.036559 
L 765.125606 348.305202 
L 790.281084 357.780792 
L 815.436562 357.430434 
L 840.59204 344.355712 
L 865.747517 368.450784 
L 890.902995 363.673176 
L 916.058473 372.68693 
L 941.213951 372.846184 
L 966.369429 370.234424 
L 991.524907 370.329977 
L 1016.680385 373.467273 
L 1041.835862 371.3492 
L 1066.99134 373.260243 
L 1092.146818 373.037288 
" clip-path="url(#p2dc215312b)" style="fill: none; stroke: #0a4e6b; stroke-width: 1.5; stroke-linecap: round"/>
    <defs>
     <path id="m1e7ea5c7f9" d="M 0 3 
C 0.795609 3 1.55874 2.683901 2.12132 2.12132 
C 2.683901 1.55874 3 0.795609 3 0 
C 3 -0.795609 2.683901 -1.55874 2.12132 -2.12132 
C 1.55874 -2.683901 0.795609 -3 0 -3 
C -0.795609 -3 -1.55874 -2.683901 -2.12132 -2.12132 
C -2.683901 -1.55874 -3 -0.795609 -3 0 
C -3 0.795609 -2.683901 1.55874 -2.12132 2.12132 
C -1.55874 2.683901 -0.795609 3 0 3 
z
" style="stroke: #0a4e6b"/>
    </defs>
    <g clip-path="url(#p2dc215312b)">
     <use xlink:href="#m1e7ea5c7f9" x="111.083182" y="373.467273" style="fill: #0a4e6b; stroke: #0a4e6b"/>
     <use xlink:href="#m1e7ea5c7f9" x="136.23866" y="373.467273" style="fill: #0a4e6b; stroke: #0a4e6b"/>
     <use xlink:href="#m1e7ea5c7f9" x="161.394138" y="373.467273" style="fill: #0a4e6b; stroke: #0a4e6b"/>
     <use xlink:href="#m1e7ea5c7f9" x="186.549615" y="373.467273" style="fill: #0a4e6b; stroke: #0a4e6b"/>
     <use xlink:href="#m1e7ea5c7f9" x="211.705093" y="373.467273" style="fill: #0a4e6b; stroke: #0a4e6b"/>
     <use xlink:href="#m1e7ea5c7f9" x="236.860571" y="373.467273" style="fill: #0a4e6b; stroke: #0a4e6b"/>
     <use xlink:href="#m1e7ea5c7f9" x="262.016049" y="373.467273" style="fill: #0a4e6b; stroke: #0a4e6b"/>
     <use xlink:href="#m1e7ea5c7f9" x="287.171527" y="373.467273" style="fill: #0a4e6b; stroke: #0a4e6b"/>
     <use xlink:href="#m1e7ea5c7f9" x="312.327005" y="373.467273" style="fill: #0a4e6b; stroke: #0a4e6b"/>
     <use xlink:href="#m1e7ea5c7f9" x="337.482483" y="372.957661" style="fill: #0a4e6b; stroke: #0a4e6b"/>
     <use xlink:href="#m1e7ea5c7f9" x="362.63796" y="370.441454" style="fill: #0a4e6b; stroke: #0a4e6b"/>
     <use xlink:href="#m1e7ea5c7f9" x="387.793438" y="373.069139" style="fill: #0a4e6b; stroke: #0a4e6b"/>
     <use xlink:href="#m1e7ea5c7f9" x="412.948916" y="372.846184" style="fill: #0a4e6b; stroke: #0a4e6b"/>
     <use xlink:href="#m1e7ea5c7f9" x="438.104394" y="367.750068" style="fill: #0a4e6b; stroke: #0a4e6b"/>
     <use xlink:href="#m1e7ea5c7f9" x="463.259872" y="360.997715" style="fill: #0a4e6b; stroke: #0a4e6b"/>
     <use xlink:href="#m1e7ea5c7f9" x="488.41535" y="355.169033" style="fill: #0a4e6b; stroke: #0a4e6b"/>
     <use xlink:href="#m1e7ea5c7f9" x="513.570828" y="365.918651" style="fill: #0a4e6b; stroke: #0a4e6b"/>
     <use xlink:href="#m1e7ea5c7f9" x="538.726305" y="344.514966" style="fill: #0a4e6b; stroke: #0a4e6b"/>
     <use xlink:href="#m1e7ea5c7f9" x="563.881783" y="351.808781" style="fill: #0a4e6b; stroke: #0a4e6b"/>
     <use xlink:href="#m1e7ea5c7f9" x="589.037261" y="350.471051" style="fill: #0a4e6b; stroke: #0a4e6b"/>
     <use xlink:href="#m1e7ea5c7f9" x="614.192739" y="284.253399" style="fill: #0a4e6b; stroke: #0a4e6b"/>
     <use xlink:href="#m1e7ea5c7f9" x="639.348217" y="318.508851" style="fill: #0a4e6b; stroke: #0a4e6b"/>
     <use xlink:href="#m1e7ea5c7f9" x="664.503695" y="340.469924" style="fill: #0a4e6b; stroke: #0a4e6b"/>
     <use xlink:href="#m1e7ea5c7f9" x="689.659172" y="302.774594" style="fill: #0a4e6b; stroke: #0a4e6b"/>
     <use xlink:href="#m1e7ea5c7f9" x="714.81465" y="306.740009" style="fill: #0a4e6b; stroke: #0a4e6b"/>
     <use xlink:href="#m1e7ea5c7f9" x="739.970128" y="310.036559" style="fill: #0a4e6b; stroke: #0a4e6b"/>
     <use xlink:href="#m1e7ea5c7f9" x="765.125606" y="348.305202" style="fill: #0a4e6b; stroke: #0a4e6b"/>
     <use xlink:href="#m1e7ea5c7f9" x="790.281084" y="357.780792" style="fill: #0a4e6b; stroke: #0a4e6b"/>
     <use xlink:href="#m1e7ea5c7f9" x="815.436562" y="357.430434" style="fill: #0a4e6b; stroke: #0a4e6b"/>
     <use xlink:href="#m1e7ea5c7f9" x="840.59204" y="344.355712" style="fill: #0a4e6b; stroke: #0a4e6b"/>
     <use xlink:href="#m1e7ea5c7f9" x="865.747517" y="368.450784" style="fill: #0a4e6b; stroke: #0a4e6b"/>
     <use xlink:href="#m1e7ea5c7f9" x="890.902995" y="363.673176" style="fill: #0a4e6b; stroke: #0a4e6b"/>
     <use xlink:href="#m1e7ea5c7f9" x="916.058473" y="372.68693" style="fill: #0a4e6b; stroke: #0a4e6b"/>
     <use xlink:href="#m1e7ea5c7f9" x="941.213951" y="372.846184" style="fill: #0a4e6b; stroke: #0a4e6b"/>
     <use xlink:href="#m1e7ea5c7f9" x="966.369429" y="370.234424" style="fill: #0a4e6b; stroke: #0a4e6b"/>
     <use xlink:href="#m1e7ea5c7f9" x="991.524907" y="370.329977" style="fill: #0a4e6b; stroke: #0a4e6b"/>
     <use xlink:href="#m1e7ea5c7f9" x="1016.680385" y="373.467273" style="fill: #0a4e6b; stroke: #0a4e6b"/>
     <use xlink:href="#m1e7ea5c7f9" x="1041.835862" y="371.3492" style="fill: #0a4e6b; stroke: #0a4e6b"/>
     <use xlink:href="#m1e7ea5c7f9" x="1066.99134" y="373.260243" style="fill: #0a4e6b; stroke: #0a4e6b"/>
     <use xlink:href="#m1e7ea5c7f9" x="1092.146818" y="373.037288" style="fill: #0a4e6b; stroke: #0a4e6b"/>
    </g>
   </g>
   <g id="text_16">
    <!-- Reads for Top Dark Matter Models Over Time when keyword = dark matter -->
    <g style="fill: #fff8e8" transform="translate(352.374063 19.44) scale(0.12 -0.12)">
     <defs>
      <path id="DejaVuSansMono-52" d="M 2375 2203 
Q 2619 2141 2791 1967 
Q 2963 1794 3219 1275 
L 3853 0 
L 3175 0 
L 2619 1178 
Q 2378 1681 2186 1826 
Q 1994 1972 1684 1972 
L 1081 1972 
L 1081 0 
L 447 0 
L 447 4666 
L 1747 4666 
Q 2516 4666 2925 4319 
Q 3334 3972 3334 3316 
Q 3334 2853 3082 2561 
Q 2831 2269 2375 2203 
z
M 1081 4147 
L 1081 2491 
L 1772 2491 
Q 2225 2491 2447 2694 
Q 2669 2897 2669 3316 
Q 2669 3719 2433 3933 
Q 2197 4147 1747 4147 
L 1081 4147 
z
" transform="scale(0.015625)"/>
      <path id="DejaVuSansMono-66" d="M 3322 4863 
L 3322 4384 
L 2669 4384 
Q 2359 4384 2239 4257 
Q 2119 4131 2119 3809 
L 2119 3500 
L 3322 3500 
L 3322 3053 
L 2119 3053 
L 2119 0 
L 1544 0 
L 1544 3053 
L 609 3053 
L 609 3500 
L 1544 3500 
L 1544 3744 
Q 1544 4319 1808 4591 
Q 2072 4863 2631 4863 
L 3322 4863 
z
" transform="scale(0.015625)"/>
      <path id="DejaVuSansMono-70" d="M 1172 441 
L 1172 -1331 
L 594 -1331 
L 594 3500 
L 1172 3500 
L 1172 3053 
Q 1316 3313 1555 3448 
Q 1794 3584 2106 3584 
Q 2741 3584 3102 3093 
Q 3463 2603 3463 1734 
Q 3463 881 3100 395 
Q 2738 -91 2106 -91 
Q 1788 -91 1548 45 
Q 1309 181 1172 441 
z
M 2859 1747 
Q 2859 2416 2648 2756 
Q 2438 3097 2022 3097 
Q 1603 3097 1387 2755 
Q 1172 2413 1172 1747 
Q 1172 1084 1387 740 
Q 1603 397 2022 397 
Q 2438 397 2648 737 
Q 2859 1078 2859 1747 
z
" transform="scale(0.015625)"/>
      <path id="DejaVuSansMono-44" d="M 1363 519 
Q 2159 519 2475 911 
Q 2791 1303 2791 2328 
Q 2791 3363 2477 3755 
Q 2163 4147 1363 4147 
L 1063 4147 
L 1063 519 
L 1363 519 
z
M 1375 4666 
Q 2444 4666 2950 4097 
Q 3456 3528 3456 2328 
Q 3456 1134 2950 567 
Q 2444 0 1375 0 
L 428 0 
L 428 4666 
L 1375 4666 
z
" transform="scale(0.015625)"/>
      <path id="DejaVuSansMono-6b" d="M 738 4863 
L 1331 4863 
L 1331 2047 
L 2841 3500 
L 3541 3500 
L 2163 2181 
L 3756 0 
L 3053 0 
L 1759 1806 
L 1331 1403 
L 1331 0 
L 738 0 
L 738 4863 
z
" transform="scale(0.015625)"/>
      <path id="DejaVuSansMono-4d" d="M 269 4666 
L 1113 4666 
L 1919 2291 
L 2731 4666 
L 3578 4666 
L 3578 0 
L 2994 0 
L 2994 4122 
L 2163 1663 
L 1684 1663 
L 850 4122 
L 850 0 
L 269 0 
L 269 4666 
z
" transform="scale(0.015625)"/>
      <path id="DejaVuSansMono-4f" d="M 2828 2328 
Q 2828 3356 2617 3797 
Q 2406 4238 1925 4238 
Q 1447 4238 1236 3797 
Q 1025 3356 1025 2328 
Q 1025 1303 1236 862 
Q 1447 422 1925 422 
Q 2406 422 2617 861 
Q 2828 1300 2828 2328 
z
M 3488 2328 
Q 3488 1109 3102 509 
Q 2716 -91 1925 -91 
Q 1134 -91 750 506 
Q 366 1103 366 2328 
Q 366 3550 752 4150 
Q 1138 4750 1925 4750 
Q 2716 4750 3102 4150 
Q 3488 3550 3488 2328 
z
" transform="scale(0.015625)"/>
      <path id="DejaVuSansMono-76" d="M 313 3500 
L 909 3500 
L 1925 563 
L 2944 3500 
L 3541 3500 
L 2297 0 
L 1556 0 
L 313 3500 
z
" transform="scale(0.015625)"/>
      <path id="DejaVuSansMono-69" d="M 800 3500 
L 2272 3500 
L 2272 447 
L 3413 447 
L 3413 0 
L 556 0 
L 556 447 
L 1697 447 
L 1697 3053 
L 800 3053 
L 800 3500 
z
M 1697 4863 
L 2272 4863 
L 2272 4134 
L 1697 4134 
L 1697 4863 
z
" transform="scale(0.015625)"/>
      <path id="DejaVuSansMono-6d" d="M 2113 3144 
Q 2219 3369 2383 3476 
Q 2547 3584 2778 3584 
Q 3200 3584 3373 3257 
Q 3547 2931 3547 2028 
L 3547 0 
L 3022 0 
L 3022 2003 
Q 3022 2744 2939 2923 
Q 2856 3103 2638 3103 
Q 2388 3103 2295 2911 
Q 2203 2719 2203 2003 
L 2203 0 
L 1678 0 
L 1678 2003 
Q 1678 2753 1589 2928 
Q 1500 3103 1269 3103 
Q 1041 3103 952 2911 
Q 863 2719 863 2003 
L 863 0 
L 341 0 
L 341 3500 
L 863 3500 
L 863 3200 
Q 966 3388 1120 3486 
Q 1275 3584 1472 3584 
Q 1709 3584 1867 3475 
Q 2025 3366 2113 3144 
z
" transform="scale(0.015625)"/>
      <path id="DejaVuSansMono-77" d="M 0 3500 
L 569 3500 
L 1178 672 
L 1678 2478 
L 2169 2478 
L 2675 672 
L 3284 3500 
L 3853 3500 
L 3034 0 
L 2484 0 
L 1925 1919 
L 1369 0 
L 819 0 
L 0 3500 
z
" transform="scale(0.015625)"/>
      <path id="DejaVuSansMono-68" d="M 3284 2169 
L 3284 0 
L 2706 0 
L 2706 2169 
Q 2706 2641 2540 2862 
Q 2375 3084 2022 3084 
Q 1619 3084 1401 2798 
Q 1184 2513 1184 1978 
L 1184 0 
L 609 0 
L 609 4863 
L 1184 4863 
L 1184 2975 
Q 1338 3275 1600 3429 
Q 1863 3584 2222 3584 
Q 2756 3584 3020 3232 
Q 3284 2881 3284 2169 
z
" transform="scale(0.015625)"/>
      <path id="DejaVuSansMono-6e" d="M 3284 2169 
L 3284 0 
L 2706 0 
L 2706 2169 
Q 2706 2641 2540 2862 
Q 2375 3084 2022 3084 
Q 1619 3084 1401 2798 
Q 1184 2513 1184 1978 
L 1184 0 
L 609 0 
L 609 3500 
L 1184 3500 
L 1184 2975 
Q 1338 3275 1600 3429 
Q 1863 3584 2222 3584 
Q 2756 3584 3020 3232 
Q 3284 2881 3284 2169 
z
" transform="scale(0.015625)"/>
      <path id="DejaVuSansMono-79" d="M 2681 1125 
Q 2538 759 2316 163 
Q 2006 -663 1900 -844 
Q 1756 -1088 1540 -1209 
Q 1325 -1331 1038 -1331 
L 575 -1331 
L 575 -850 
L 916 -850 
Q 1169 -850 1312 -703 
Q 1456 -556 1678 56 
L 325 3500 
L 934 3500 
L 1972 763 
L 2994 3500 
L 3603 3500 
L 2681 1125 
z
" transform="scale(0.015625)"/>
      <path id="DejaVuSansMono-3d" d="M 275 1638 
L 3578 1638 
L 3578 1100 
L 275 1100 
L 275 1638 
z
M 275 2906 
L 3578 2906 
L 3578 2375 
L 275 2375 
L 275 2906 
z
" transform="scale(0.015625)"/>
     </defs>
     <use xlink:href="#DejaVuSansMono-52"/>
     <use xlink:href="#DejaVuSansMono-65" x="60.205078"/>
     <use xlink:href="#DejaVuSansMono-61" x="120.410156"/>
     <use xlink:href="#DejaVuSansMono-64" x="180.615234"/>
     <use xlink:href="#DejaVuSansMono-73" x="240.820312"/>
     <use xlink:href="#DejaVuSansMono-20" x="301.025391"/>
     <use xlink:href="#DejaVuSansMono-66" x="361.230469"/>
     <use xlink:href="#DejaVuSansMono-6f" x="421.435547"/>
     <use xlink:href="#DejaVuSansMono-72" x="481.640625"/>
     <use xlink:href="#DejaVuSansMono-20" x="541.845703"/>
     <use xlink:href="#DejaVuSansMono-54" x="602.050781"/>
     <use xlink:href="#DejaVuSansMono-6f" x="662.255859"/>
     <use xlink:href="#DejaVuSansMono-70" x="722.460938"/>
     <use xlink:href="#DejaVuSansMono-20" x="782.666016"/>
     <use xlink:href="#DejaVuSansMono-44" x="842.871094"/>
     <use xlink:href="#DejaVuSansMono-61" x="903.076172"/>
     <use xlink:href="#DejaVuSansMono-72" x="963.28125"/>
     <use xlink:href="#DejaVuSansMono-6b" x="1023.486328"/>
     <use xlink:href="#DejaVuSansMono-20" x="1083.691406"/>
     <use xlink:href="#DejaVuSansMono-4d" x="1143.896484"/>
     <use xlink:href="#DejaVuSansMono-61" x="1204.101562"/>
     <use xlink:href="#DejaVuSansMono-74" x="1264.306641"/>
     <use xlink:href="#DejaVuSansMono-74" x="1324.511719"/>
     <use xlink:href="#DejaVuSansMono-65" x="1384.716797"/>
     <use xlink:href="#DejaVuSansMono-72" x="1444.921875"/>
     <use xlink:href="#DejaVuSansMono-20" x="1505.126953"/>
     <use xlink:href="#DejaVuSansMono-4d" x="1565.332031"/>
     <use xlink:href="#DejaVuSansMono-6f" x="1625.537109"/>
     <use xlink:href="#DejaVuSansMono-64" x="1685.742188"/>
     <use xlink:href="#DejaVuSansMono-65" x="1745.947266"/>
     <use xlink:href="#DejaVuSansMono-6c" x="1806.152344"/>
     <use xlink:href="#DejaVuSansMono-73" x="1866.357422"/>
     <use xlink:href="#DejaVuSansMono-20" x="1926.5625"/>
     <use xlink:href="#DejaVuSansMono-4f" x="1986.767578"/>
     <use xlink:href="#DejaVuSansMono-76" x="2046.972656"/>
     <use xlink:href="#DejaVuSansMono-65" x="2107.177734"/>
     <use xlink:href="#DejaVuSansMono-72" x="2167.382812"/>
     <use xlink:href="#DejaVuSansMono-20" x="2227.587891"/>
     <use xlink:href="#DejaVuSansMono-54" x="2287.792969"/>
     <use xlink:href="#DejaVuSansMono-69" x="2347.998047"/>
     <use xlink:href="#DejaVuSansMono-6d" x="2408.203125"/>
     <use xlink:href="#DejaVuSansMono-65" x="2468.408203"/>
     <use xlink:href="#DejaVuSansMono-20" x="2528.613281"/>
     <use xlink:href="#DejaVuSansMono-77" x="2588.818359"/>
     <use xlink:href="#DejaVuSansMono-68" x="2649.023438"/>
     <use xlink:href="#DejaVuSansMono-65" x="2709.228516"/>
     <use xlink:href="#DejaVuSansMono-6e" x="2769.433594"/>
     <use xlink:href="#DejaVuSansMono-20" x="2829.638672"/>
     <use xlink:href="#DejaVuSansMono-6b" x="2889.84375"/>
     <use xlink:href="#DejaVuSansMono-65" x="2950.048828"/>
     <use xlink:href="#DejaVuSansMono-79" x="3010.253906"/>
     <use xlink:href="#DejaVuSansMono-77" x="3070.458984"/>
     <use xlink:href="#DejaVuSansMono-6f" x="3130.664062"/>
     <use xlink:href="#DejaVuSansMono-72" x="3190.869141"/>
     <use xlink:href="#DejaVuSansMono-64" x="3251.074219"/>
     <use xlink:href="#DejaVuSansMono-20" x="3311.279297"/>
     <use xlink:href="#DejaVuSansMono-3d" x="3371.484375"/>
     <use xlink:href="#DejaVuSansMono-20" x="3431.689453"/>
     <use xlink:href="#DejaVuSansMono-64" x="3491.894531"/>
     <use xlink:href="#DejaVuSansMono-61" x="3552.099609"/>
     <use xlink:href="#DejaVuSansMono-72" x="3612.304688"/>
     <use xlink:href="#DejaVuSansMono-6b" x="3672.509766"/>
     <use xlink:href="#DejaVuSansMono-20" x="3732.714844"/>
     <use xlink:href="#DejaVuSansMono-6d" x="3792.919922"/>
     <use xlink:href="#DejaVuSansMono-61" x="3853.125"/>
     <use xlink:href="#DejaVuSansMono-74" x="3913.330078"/>
     <use xlink:href="#DejaVuSansMono-74" x="3973.535156"/>
     <use xlink:href="#DejaVuSansMono-65" x="4033.740234"/>
     <use xlink:href="#DejaVuSansMono-72" x="4093.945312"/>
    </g>
   </g>
   <g id="legend_1">
    <g id="patch_3">
     <path d="M 891.489063 121.965 
L 1134.2 121.965 
Q 1136.2 121.965 1136.2 119.965 
L 1136.2 32.44 
Q 1136.2 30.44 1134.2 30.44 
L 891.489063 30.44 
Q 889.489063 30.44 889.489063 32.44 
L 889.489063 119.965 
Q 889.489063 121.965 891.489063 121.965 
z
" style="fill: #20272d; opacity: 0.8; stroke: #cccccc; stroke-linejoin: miter"/>
    </g>
    <g id="text_17">
     <!-- Dark Matter Models -->
     <g style="fill: #fff8e8" transform="translate(958.661719 42.091563) scale(0.1 -0.1)">
      <use xlink:href="#DejaVuSansMono-44"/>
      <use xlink:href="#DejaVuSansMono-61" x="60.205078"/>
      <use xlink:href="#DejaVuSansMono-72" x="120.410156"/>
      <use xlink:href="#DejaVuSansMono-6b" x="180.615234"/>
      <use xlink:href="#DejaVuSansMono-20" x="240.820312"/>
      <use xlink:href="#DejaVuSansMono-4d" x="301.025391"/>
      <use xlink:href="#DejaVuSansMono-61" x="361.230469"/>
      <use xlink:href="#DejaVuSansMono-74" x="421.435547"/>
      <use xlink:href="#DejaVuSansMono-74" x="481.640625"/>
      <use xlink:href="#DejaVuSansMono-65" x="541.845703"/>
      <use xlink:href="#DejaVuSansMono-72" x="602.050781"/>
      <use xlink:href="#DejaVuSansMono-20" x="662.255859"/>
      <use xlink:href="#DejaVuSansMono-4d" x="722.460938"/>
      <use xlink:href="#DejaVuSansMono-6f" x="782.666016"/>
      <use xlink:href="#DejaVuSansMono-64" x="842.871094"/>
      <use xlink:href="#DejaVuSansMono-65" x="903.076172"/>
      <use xlink:href="#DejaVuSansMono-6c" x="963.28125"/>
      <use xlink:href="#DejaVuSansMono-73" x="1023.486328"/>
     </g>
    </g>
    <g id="line2d_19">
     <path d="M 893.489063 53.322812 
L 903.489063 53.322812 
L 913.489063 53.322812 
" style="fill: none; stroke: #f2a604; stroke-width: 1.5; stroke-linecap: round"/>
     <g>
      <use xlink:href="#m2f43dccf1c" x="903.489063" y="53.322812" style="fill: #f2a604; stroke: #f2a604"/>
     </g>
    </g>
    <g id="text_18">
     <!-- warm dark matter -->
     <g style="fill: #fff8e8" transform="translate(921.489063 56.822812) scale(0.1 -0.1)">
      <use xlink:href="#DejaVuSansMono-77"/>
      <use xlink:href="#DejaVuSansMono-61" x="60.205078"/>
      <use xlink:href="#DejaVuSansMono-72" x="120.410156"/>
      <use xlink:href="#DejaVuSansMono-6d" x="180.615234"/>
      <use xlink:href="#DejaVuSansMono-20" x="240.820312"/>
      <use xlink:href="#DejaVuSansMono-64" x="301.025391"/>
      <use xlink:href="#DejaVuSansMono-61" x="361.230469"/>
      <use xlink:href="#DejaVuSansMono-72" x="421.435547"/>
      <use xlink:href="#DejaVuSansMono-6b" x="481.640625"/>
      <use xlink:href="#DejaVuSansMono-20" x="541.845703"/>
      <use xlink:href="#DejaVuSansMono-6d" x="602.050781"/>
      <use xlink:href="#DejaVuSansMono-61" x="662.255859"/>
      <use xlink:href="#DejaVuSansMono-74" x="722.460938"/>
      <use xlink:href="#DejaVuSansMono-74" x="782.666016"/>
      <use xlink:href="#DejaVuSansMono-65" x="842.871094"/>
      <use xlink:href="#DejaVuSansMono-72" x="903.076172"/>
     </g>
    </g>
    <g id="line2d_20">
     <path d="M 893.489063 68.054062 
L 903.489063 68.054062 
L 913.489063 68.054062 
" style="fill: none; stroke: #ed90ae; stroke-width: 1.5; stroke-linecap: round"/>
     <g>
      <use xlink:href="#me41c6dd8bf" x="903.489063" y="68.054062" style="fill: #ed90ae; stroke: #ed90ae"/>
     </g>
    </g>
    <g id="text_19">
     <!-- weakly interacting massive particle -->
     <g style="fill: #fff8e8" transform="translate(921.489063 71.554062) scale(0.1 -0.1)">
      <defs>
       <path id="DejaVuSansMono-63" d="M 3316 178 
Q 3084 44 2839 -23 
Q 2594 -91 2338 -91 
Q 1525 -91 1067 396 
Q 609 884 609 1747 
Q 609 2609 1067 3096 
Q 1525 3584 2338 3584 
Q 2591 3584 2831 3518 
Q 3072 3453 3316 3316 
L 3316 2713 
Q 3088 2916 2858 3006 
Q 2628 3097 2338 3097 
Q 1797 3097 1506 2747 
Q 1216 2397 1216 1747 
Q 1216 1100 1508 748 
Q 1800 397 2338 397 
Q 2638 397 2875 489 
Q 3113 581 3316 775 
L 3316 178 
z
" transform="scale(0.015625)"/>
       <path id="DejaVuSansMono-67" d="M 2681 1778 
Q 2681 2425 2470 2761 
Q 2259 3097 1856 3097 
Q 1434 3097 1212 2761 
Q 991 2425 991 1778 
Q 991 1131 1214 792 
Q 1438 453 1863 453 
Q 2259 453 2470 793 
Q 2681 1134 2681 1778 
z
M 3256 225 
Q 3256 -563 2884 -969 
Q 2513 -1375 1791 -1375 
Q 1553 -1375 1293 -1331 
Q 1034 -1288 775 -1203 
L 775 -634 
Q 1081 -778 1331 -847 
Q 1581 -916 1791 -916 
Q 2256 -916 2468 -662 
Q 2681 -409 2681 141 
L 2681 166 
L 2681 556 
Q 2544 263 2306 119 
Q 2069 -25 1728 -25 
Q 1116 -25 750 465 
Q 384 956 384 1778 
Q 384 2603 750 3093 
Q 1116 3584 1728 3584 
Q 2066 3584 2300 3450 
Q 2534 3316 2681 3034 
L 2681 3488 
L 3256 3488 
L 3256 225 
z
" transform="scale(0.015625)"/>
      </defs>
      <use xlink:href="#DejaVuSansMono-77"/>
      <use xlink:href="#DejaVuSansMono-65" x="60.205078"/>
      <use xlink:href="#DejaVuSansMono-61" x="120.410156"/>
      <use xlink:href="#DejaVuSansMono-6b" x="180.615234"/>
      <use xlink:href="#DejaVuSansMono-6c" x="240.820312"/>
      <use xlink:href="#DejaVuSansMono-79" x="301.025391"/>
      <use xlink:href="#DejaVuSansMono-20" x="361.230469"/>
      <use xlink:href="#DejaVuSansMono-69" x="421.435547"/>
      <use xlink:href="#DejaVuSansMono-6e" x="481.640625"/>
      <use xlink:href="#DejaVuSansMono-74" x="541.845703"/>
      <use xlink:href="#DejaVuSansMono-65" x="602.050781"/>
      <use xlink:href="#DejaVuSansMono-72" x="662.255859"/>
      <use xlink:href="#DejaVuSansMono-61" x="722.460938"/>
      <use xlink:href="#DejaVuSansMono-63" x="782.666016"/>
      <use xlink:href="#DejaVuSansMono-74" x="842.871094"/>
      <use xlink:href="#DejaVuSansMono-69" x="903.076172"/>
      <use xlink:href="#DejaVuSansMono-6e" x="963.28125"/>
      <use xlink:href="#DejaVuSansMono-67" x="1023.486328"/>
      <use xlink:href="#DejaVuSansMono-20" x="1083.691406"/>
      <use xlink:href="#DejaVuSansMono-6d" x="1143.896484"/>
      <use xlink:href="#DejaVuSansMono-61" x="1204.101562"/>
      <use xlink:href="#DejaVuSansMono-73" x="1264.306641"/>
      <use xlink:href="#DejaVuSansMono-73" x="1324.511719"/>
      <use xlink:href="#DejaVuSansMono-69" x="1384.716797"/>
      <use xlink:href="#DejaVuSansMono-76" x="1444.921875"/>
      <use xlink:href="#DejaVuSansMono-65" x="1505.126953"/>
      <use xlink:href="#DejaVuSansMono-20" x="1565.332031"/>
      <use xlink:href="#DejaVuSansMono-70" x="1625.537109"/>
      <use xlink:href="#DejaVuSansMono-61" x="1685.742188"/>
      <use xlink:href="#DejaVuSansMono-72" x="1745.947266"/>
      <use xlink:href="#DejaVuSansMono-74" x="1806.152344"/>
      <use xlink:href="#DejaVuSansMono-69" x="1866.357422"/>
      <use xlink:href="#DejaVuSansMono-63" x="1926.5625"/>
      <use xlink:href="#DejaVuSansMono-6c" x="1986.767578"/>
      <use xlink:href="#DejaVuSansMono-65" x="2046.972656"/>
     </g>
    </g>
    <g id="line2d_21">
     <path d="M 893.489063 82.854062 
L 903.489063 82.854062 
L 913.489063 82.854062 
" style="fill: none; stroke: #59a689; stroke-width: 1.5; stroke-linecap: round"/>
     <g>
      <use xlink:href="#m4ee54f9bbc" x="903.489063" y="82.854062" style="fill: #59a689; stroke: #59a689"/>
     </g>
    </g>
    <g id="text_20">
     <!-- self interacting dark matter -->
     <g style="fill: #fff8e8" transform="translate(921.489063 86.354062) scale(0.1 -0.1)">
      <use xlink:href="#DejaVuSansMono-73"/>
      <use xlink:href="#DejaVuSansMono-65" x="60.205078"/>
      <use xlink:href="#DejaVuSansMono-6c" x="120.410156"/>
      <use xlink:href="#DejaVuSansMono-66" x="180.615234"/>
      <use xlink:href="#DejaVuSansMono-20" x="240.820312"/>
      <use xlink:href="#DejaVuSansMono-69" x="301.025391"/>
      <use xlink:href="#DejaVuSansMono-6e" x="361.230469"/>
      <use xlink:href="#DejaVuSansMono-74" x="421.435547"/>
      <use xlink:href="#DejaVuSansMono-65" x="481.640625"/>
      <use xlink:href="#DejaVuSansMono-72" x="541.845703"/>
      <use xlink:href="#DejaVuSansMono-61" x="602.050781"/>
      <use xlink:href="#DejaVuSansMono-63" x="662.255859"/>
      <use xlink:href="#DejaVuSansMono-74" x="722.460938"/>
      <use xlink:href="#DejaVuSansMono-69" x="782.666016"/>
      <use xlink:href="#DejaVuSansMono-6e" x="842.871094"/>
      <use xlink:href="#DejaVuSansMono-67" x="903.076172"/>
      <use xlink:href="#DejaVuSansMono-20" x="963.28125"/>
      <use xlink:href="#DejaVuSansMono-64" x="1023.486328"/>
      <use xlink:href="#DejaVuSansMono-61" x="1083.691406"/>
      <use xlink:href="#DejaVuSansMono-72" x="1143.896484"/>
      <use xlink:href="#DejaVuSansMono-6b" x="1204.101562"/>
      <use xlink:href="#DejaVuSansMono-20" x="1264.306641"/>
      <use xlink:href="#DejaVuSansMono-6d" x="1324.511719"/>
      <use xlink:href="#DejaVuSansMono-61" x="1384.716797"/>
      <use xlink:href="#DejaVuSansMono-74" x="1444.921875"/>
      <use xlink:href="#DejaVuSansMono-74" x="1505.126953"/>
      <use xlink:href="#DejaVuSansMono-65" x="1565.332031"/>
      <use xlink:href="#DejaVuSansMono-72" x="1625.537109"/>
     </g>
    </g>
    <g id="line2d_22">
     <path d="M 893.489063 97.654063 
L 903.489063 97.654063 
L 913.489063 97.654063 
" style="fill: none; stroke: #5daa53; stroke-width: 1.5; stroke-linecap: round"/>
     <g>
      <use xlink:href="#me84bdb3be1" x="903.489063" y="97.654063" style="fill: #5daa53; stroke: #5daa53"/>
     </g>
    </g>
    <g id="text_21">
     <!-- axion -->
     <g style="fill: #fff8e8" transform="translate(921.489063 101.154063) scale(0.1 -0.1)">
      <defs>
       <path id="DejaVuSansMono-78" d="M 3494 3500 
L 2241 1825 
L 3616 0 
L 2950 0 
L 1925 1403 
L 903 0 
L 238 0 
L 1613 1825 
L 359 3500 
L 997 3500 
L 1925 2234 
L 2847 3500 
L 3494 3500 
z
" transform="scale(0.015625)"/>
      </defs>
      <use xlink:href="#DejaVuSansMono-61"/>
      <use xlink:href="#DejaVuSansMono-78" x="60.205078"/>
      <use xlink:href="#DejaVuSansMono-69" x="120.410156"/>
      <use xlink:href="#DejaVuSansMono-6f" x="180.615234"/>
      <use xlink:href="#DejaVuSansMono-6e" x="240.820312"/>
     </g>
    </g>
    <g id="line2d_23">
     <path d="M 893.489063 112.385312 
L 903.489063 112.385312 
L 913.489063 112.385312 
" style="fill: none; stroke: #0a4e6b; stroke-width: 1.5; stroke-linecap: round"/>
     <g>
      <use xlink:href="#m1e7ea5c7f9" x="903.489063" y="112.385312" style="fill: #0a4e6b; stroke: #0a4e6b"/>
     </g>
    </g>
    <g id="text_22">
     <!-- neutralino dark matter -->
     <g style="fill: #fff8e8" transform="translate(921.489063 115.885312) scale(0.1 -0.1)">
      <defs>
       <path id="DejaVuSansMono-75" d="M 609 1325 
L 609 3494 
L 1184 3494 
L 1184 1325 
Q 1184 853 1351 631 
Q 1519 409 1869 409 
Q 2275 409 2490 695 
Q 2706 981 2706 1516 
L 2706 3494 
L 3284 3494 
L 3284 0 
L 2706 0 
L 2706 525 
Q 2553 222 2289 65 
Q 2025 -91 1672 -91 
Q 1134 -91 871 261 
Q 609 613 609 1325 
z
" transform="scale(0.015625)"/>
      </defs>
      <use xlink:href="#DejaVuSansMono-6e"/>
      <use xlink:href="#DejaVuSansMono-65" x="60.205078"/>
      <use xlink:href="#DejaVuSansMono-75" x="120.410156"/>
      <use xlink:href="#DejaVuSansMono-74" x="180.615234"/>
      <use xlink:href="#DejaVuSansMono-72" x="240.820312"/>
      <use xlink:href="#DejaVuSansMono-61" x="301.025391"/>
      <use xlink:href="#DejaVuSansMono-6c" x="361.230469"/>
      <use xlink:href="#DejaVuSansMono-69" x="421.435547"/>
      <use xlink:href="#DejaVuSansMono-6e" x="481.640625"/>
      <use xlink:href="#DejaVuSansMono-6f" x="541.845703"/>
      <use xlink:href="#DejaVuSansMono-20" x="602.050781"/>
      <use xlink:href="#DejaVuSansMono-64" x="662.255859"/>
      <use xlink:href="#DejaVuSansMono-61" x="722.460938"/>
      <use xlink:href="#DejaVuSansMono-72" x="782.666016"/>
      <use xlink:href="#DejaVuSansMono-6b" x="842.871094"/>
      <use xlink:href="#DejaVuSansMono-20" x="903.076172"/>
      <use xlink:href="#DejaVuSansMono-6d" x="963.28125"/>
      <use xlink:href="#DejaVuSansMono-61" x="1023.486328"/>
      <use xlink:href="#DejaVuSansMono-74" x="1083.691406"/>
      <use xlink:href="#DejaVuSansMono-74" x="1143.896484"/>
      <use xlink:href="#DejaVuSansMono-65" x="1204.101562"/>
      <use xlink:href="#DejaVuSansMono-72" x="1264.306641"/>
     </g>
    </g>
   </g>
  </g>
 </g>
 <defs>
  <clipPath id="p2dc215312b">
   <rect x="62.03" y="25.44" width="1079.17" height="364.6"/>
  </clipPath>
 </defs>
</svg>
