<?xml version="1.0" encoding="utf-8" standalone="no"?>
<!DOCTYPE svg PUBLIC "-//W3C//DTD SVG 1.1//EN"
  "http://www.w3.org/Graphics/SVG/1.1/DTD/svg11.dtd">
<svg xmlns:xlink="http://www.w3.org/1999/xlink" width="1152pt" height="432pt" viewBox="0 0 1152 432" xmlns="http://www.w3.org/2000/svg" version="1.1">
 <metadata>
  <rdf:RDF xmlns:dc="http://purl.org/dc/elements/1.1/" xmlns:cc="http://creativecommons.org/ns#" xmlns:rdf="http://www.w3.org/1999/02/22-rdf-syntax-ns#">
   <cc:Work>
    <dc:type rdf:resource="http://purl.org/dc/dcmitype/StillImage"/>
    <dc:date>2024-10-29T15:38:11.465029</dc:date>
    <dc:format>image/svg+xml</dc:format>
    <dc:creator>
     <cc:Agent>
      <dc:title>Matplotlib v3.9.2, https://matplotlib.org/</dc:title>
     </cc:Agent>
    </dc:creator>
   </cc:Work>
  </rdf:RDF>
 </metadata>
 <defs>
  <style type="text/css">*{stroke-linejoin: round; stroke-linecap: butt}</style>
 </defs>
 <g id="figure_1">
  <g id="patch_1">
   <path d="M 0 432 
L 1152 432 
L 1152 0 
L 0 0 
z
" style="fill: #20272d"/>
  </g>
  <g id="axes_1">
   <g id="patch_2">
    <path d="M 43.94 390.04 
L 1141.2 390.04 
L 1141.2 25.44 
L 43.94 25.44 
z
" style="fill: #20272d"/>
   </g>
   <g id="matplotlib.axis_1">
    <g id="xtick_1">
     <g id="line2d_1">
      <path d="M 119.392611 390.04 
L 119.392611 25.44 
" clip-path="url(#p35c2c6f66b)" style="fill: none; stroke-dasharray: 1.85,0.8; stroke-dashoffset: 0; stroke: #fff8e8; stroke-opacity: 0.3; stroke-width: 0.5"/>
     </g>
     <g id="text_1">
      <!-- 1985 -->
      <g style="fill: #fff8e8" transform="translate(107.351986 404.691562) scale(0.1 -0.1)">
       <defs>
        <path id="DejaVuSansMono-31" d="M 844 531 
L 1825 531 
L 1825 4097 
L 769 3859 
L 769 4434 
L 1819 4666 
L 2450 4666 
L 2450 531 
L 3419 531 
L 3419 0 
L 844 0 
L 844 531 
z
" transform="scale(0.015625)"/>
        <path id="DejaVuSansMono-39" d="M 1863 2069 
Q 2266 2069 2495 2359 
Q 2725 2650 2725 3163 
Q 2725 3675 2495 3965 
Q 2266 4256 1863 4256 
Q 1444 4256 1231 3979 
Q 1019 3703 1019 3163 
Q 1019 2619 1230 2344 
Q 1441 2069 1863 2069 
z
M 738 97 
L 738 678 
Q 934 563 1156 502 
Q 1378 441 1619 441 
Q 2219 441 2526 892 
Q 2834 1344 2834 2222 
Q 2688 1909 2422 1742 
Q 2156 1575 1813 1575 
Q 1138 1575 767 1990 
Q 397 2406 397 3169 
Q 397 3922 776 4336 
Q 1156 4750 1850 4750 
Q 2663 4750 3041 4165 
Q 3419 3581 3419 2328 
Q 3419 1150 2964 529 
Q 2509 -91 1644 -91 
Q 1416 -91 1184 -42 
Q 953 6 738 97 
z
" transform="scale(0.015625)"/>
        <path id="DejaVuSansMono-38" d="M 1925 2216 
Q 1503 2216 1273 1980 
Q 1044 1744 1044 1313 
Q 1044 881 1276 642 
Q 1509 403 1925 403 
Q 2350 403 2579 639 
Q 2809 875 2809 1313 
Q 2809 1741 2576 1978 
Q 2344 2216 1925 2216 
z
M 1375 2478 
Q 972 2581 745 2862 
Q 519 3144 519 3541 
Q 519 4097 897 4423 
Q 1275 4750 1925 4750 
Q 2578 4750 2956 4423 
Q 3334 4097 3334 3541 
Q 3334 3144 3107 2862 
Q 2881 2581 2478 2478 
Q 2947 2375 3195 2062 
Q 3444 1750 3444 1253 
Q 3444 622 3041 265 
Q 2638 -91 1925 -91 
Q 1213 -91 811 264 
Q 409 619 409 1247 
Q 409 1747 657 2061 
Q 906 2375 1375 2478 
z
M 1147 3481 
Q 1147 3106 1347 2909 
Q 1547 2713 1925 2713 
Q 2306 2713 2506 2909 
Q 2706 3106 2706 3481 
Q 2706 3863 2507 4063 
Q 2309 4263 1925 4263 
Q 1547 4263 1347 4061 
Q 1147 3859 1147 3481 
z
" transform="scale(0.015625)"/>
        <path id="DejaVuSansMono-35" d="M 647 4666 
L 3009 4666 
L 3009 4134 
L 1222 4134 
L 1222 2988 
Q 1356 3038 1492 3061 
Q 1628 3084 1766 3084 
Q 2491 3084 2916 2656 
Q 3341 2228 3341 1497 
Q 3341 759 2895 334 
Q 2450 -91 1678 -91 
Q 1306 -91 998 -41 
Q 691 9 447 109 
L 447 750 
Q 734 594 1025 517 
Q 1316 441 1619 441 
Q 2141 441 2423 716 
Q 2706 991 2706 1497 
Q 2706 1997 2414 2275 
Q 2122 2553 1600 2553 
Q 1347 2553 1106 2495 
Q 866 2438 647 2322 
L 647 4666 
z
" transform="scale(0.015625)"/>
       </defs>
       <use xlink:href="#DejaVuSansMono-31"/>
       <use xlink:href="#DejaVuSansMono-39" x="60.205078"/>
       <use xlink:href="#DejaVuSansMono-38" x="120.410156"/>
       <use xlink:href="#DejaVuSansMono-35" x="180.615234"/>
      </g>
     </g>
    </g>
    <g id="xtick_2">
     <g id="line2d_2">
      <path d="M 247.278392 390.04 
L 247.278392 25.44 
" clip-path="url(#p35c2c6f66b)" style="fill: none; stroke-dasharray: 1.85,0.8; stroke-dashoffset: 0; stroke: #fff8e8; stroke-opacity: 0.3; stroke-width: 0.5"/>
     </g>
     <g id="text_2">
      <!-- 1990 -->
      <g style="fill: #fff8e8" transform="translate(235.237767 404.691562) scale(0.1 -0.1)">
       <defs>
        <path id="DejaVuSansMono-30" d="M 1509 2344 
Q 1509 2516 1629 2641 
Q 1750 2766 1919 2766 
Q 2094 2766 2219 2641 
Q 2344 2516 2344 2344 
Q 2344 2169 2220 2047 
Q 2097 1925 1919 1925 
Q 1744 1925 1626 2044 
Q 1509 2163 1509 2344 
z
M 1925 4250 
Q 1484 4250 1267 3775 
Q 1050 3300 1050 2328 
Q 1050 1359 1267 884 
Q 1484 409 1925 409 
Q 2369 409 2586 884 
Q 2803 1359 2803 2328 
Q 2803 3300 2586 3775 
Q 2369 4250 1925 4250 
z
M 1925 4750 
Q 2672 4750 3055 4137 
Q 3438 3525 3438 2328 
Q 3438 1134 3055 521 
Q 2672 -91 1925 -91 
Q 1178 -91 797 521 
Q 416 1134 416 2328 
Q 416 3525 797 4137 
Q 1178 4750 1925 4750 
z
" transform="scale(0.015625)"/>
       </defs>
       <use xlink:href="#DejaVuSansMono-31"/>
       <use xlink:href="#DejaVuSansMono-39" x="60.205078"/>
       <use xlink:href="#DejaVuSansMono-39" x="120.410156"/>
       <use xlink:href="#DejaVuSansMono-30" x="180.615234"/>
      </g>
     </g>
    </g>
    <g id="xtick_3">
     <g id="line2d_3">
      <path d="M 375.164172 390.04 
L 375.164172 25.44 
" clip-path="url(#p35c2c6f66b)" style="fill: none; stroke-dasharray: 1.85,0.8; stroke-dashoffset: 0; stroke: #fff8e8; stroke-opacity: 0.3; stroke-width: 0.5"/>
     </g>
     <g id="text_3">
      <!-- 1995 -->
      <g style="fill: #fff8e8" transform="translate(363.123547 404.691562) scale(0.1 -0.1)">
       <use xlink:href="#DejaVuSansMono-31"/>
       <use xlink:href="#DejaVuSansMono-39" x="60.205078"/>
       <use xlink:href="#DejaVuSansMono-39" x="120.410156"/>
       <use xlink:href="#DejaVuSansMono-35" x="180.615234"/>
      </g>
     </g>
    </g>
    <g id="xtick_4">
     <g id="line2d_4">
      <path d="M 503.049953 390.04 
L 503.049953 25.44 
" clip-path="url(#p35c2c6f66b)" style="fill: none; stroke-dasharray: 1.85,0.8; stroke-dashoffset: 0; stroke: #fff8e8; stroke-opacity: 0.3; stroke-width: 0.5"/>
     </g>
     <g id="text_4">
      <!-- 2000 -->
      <g style="fill: #fff8e8" transform="translate(491.009328 404.691562) scale(0.1 -0.1)">
       <defs>
        <path id="DejaVuSansMono-32" d="M 1166 531 
L 3309 531 
L 3309 0 
L 475 0 
L 475 531 
Q 1059 1147 1496 1619 
Q 1934 2091 2100 2284 
Q 2413 2666 2522 2902 
Q 2631 3138 2631 3384 
Q 2631 3775 2401 3997 
Q 2172 4219 1772 4219 
Q 1488 4219 1175 4116 
Q 863 4013 513 3803 
L 513 4441 
Q 834 4594 1145 4672 
Q 1456 4750 1759 4750 
Q 2444 4750 2861 4386 
Q 3278 4022 3278 3431 
Q 3278 3131 3139 2831 
Q 3000 2531 2688 2169 
Q 2513 1966 2180 1606 
Q 1847 1247 1166 531 
z
" transform="scale(0.015625)"/>
       </defs>
       <use xlink:href="#DejaVuSansMono-32"/>
       <use xlink:href="#DejaVuSansMono-30" x="60.205078"/>
       <use xlink:href="#DejaVuSansMono-30" x="120.410156"/>
       <use xlink:href="#DejaVuSansMono-30" x="180.615234"/>
      </g>
     </g>
    </g>
    <g id="xtick_5">
     <g id="line2d_5">
      <path d="M 630.935734 390.04 
L 630.935734 25.44 
" clip-path="url(#p35c2c6f66b)" style="fill: none; stroke-dasharray: 1.85,0.8; stroke-dashoffset: 0; stroke: #fff8e8; stroke-opacity: 0.3; stroke-width: 0.5"/>
     </g>
     <g id="text_5">
      <!-- 2005 -->
      <g style="fill: #fff8e8" transform="translate(618.895109 404.691562) scale(0.1 -0.1)">
       <use xlink:href="#DejaVuSansMono-32"/>
       <use xlink:href="#DejaVuSansMono-30" x="60.205078"/>
       <use xlink:href="#DejaVuSansMono-30" x="120.410156"/>
       <use xlink:href="#DejaVuSansMono-35" x="180.615234"/>
      </g>
     </g>
    </g>
    <g id="xtick_6">
     <g id="line2d_6">
      <path d="M 758.821515 390.04 
L 758.821515 25.44 
" clip-path="url(#p35c2c6f66b)" style="fill: none; stroke-dasharray: 1.85,0.8; stroke-dashoffset: 0; stroke: #fff8e8; stroke-opacity: 0.3; stroke-width: 0.5"/>
     </g>
     <g id="text_6">
      <!-- 2010 -->
      <g style="fill: #fff8e8" transform="translate(746.78089 404.691562) scale(0.1 -0.1)">
       <use xlink:href="#DejaVuSansMono-32"/>
       <use xlink:href="#DejaVuSansMono-30" x="60.205078"/>
       <use xlink:href="#DejaVuSansMono-31" x="120.410156"/>
       <use xlink:href="#DejaVuSansMono-30" x="180.615234"/>
      </g>
     </g>
    </g>
    <g id="xtick_7">
     <g id="line2d_7">
      <path d="M 886.707296 390.04 
L 886.707296 25.44 
" clip-path="url(#p35c2c6f66b)" style="fill: none; stroke-dasharray: 1.85,0.8; stroke-dashoffset: 0; stroke: #fff8e8; stroke-opacity: 0.3; stroke-width: 0.5"/>
     </g>
     <g id="text_7">
      <!-- 2015 -->
      <g style="fill: #fff8e8" transform="translate(874.666671 404.691562) scale(0.1 -0.1)">
       <use xlink:href="#DejaVuSansMono-32"/>
       <use xlink:href="#DejaVuSansMono-30" x="60.205078"/>
       <use xlink:href="#DejaVuSansMono-31" x="120.410156"/>
       <use xlink:href="#DejaVuSansMono-35" x="180.615234"/>
      </g>
     </g>
    </g>
    <g id="xtick_8">
     <g id="line2d_8">
      <path d="M 1014.593077 390.04 
L 1014.593077 25.44 
" clip-path="url(#p35c2c6f66b)" style="fill: none; stroke-dasharray: 1.85,0.8; stroke-dashoffset: 0; stroke: #fff8e8; stroke-opacity: 0.3; stroke-width: 0.5"/>
     </g>
     <g id="text_8">
      <!-- 2020 -->
      <g style="fill: #fff8e8" transform="translate(1002.552452 404.691562) scale(0.1 -0.1)">
       <use xlink:href="#DejaVuSansMono-32"/>
       <use xlink:href="#DejaVuSansMono-30" x="60.205078"/>
       <use xlink:href="#DejaVuSansMono-32" x="120.410156"/>
       <use xlink:href="#DejaVuSansMono-30" x="180.615234"/>
      </g>
     </g>
    </g>
    <g id="text_9">
     <!-- Year -->
     <g style="fill: #fff8e8" transform="translate(580.529375 418.422812) scale(0.1 -0.1)">
      <defs>
       <path id="DejaVuSansMono-59" d="M 116 4666 
L 788 4666 
L 1925 2606 
L 3059 4666 
L 3738 4666 
L 2241 2094 
L 2241 0 
L 1606 0 
L 1606 2094 
L 116 4666 
z
" transform="scale(0.015625)"/>
       <path id="DejaVuSansMono-65" d="M 3475 1894 
L 3475 1613 
L 984 1613 
L 984 1594 
Q 984 1022 1282 709 
Q 1581 397 2125 397 
Q 2400 397 2700 484 
Q 3000 572 3341 750 
L 3341 178 
Q 3013 44 2708 -23 
Q 2403 -91 2119 -91 
Q 1303 -91 843 398 
Q 384 888 384 1747 
Q 384 2584 834 3084 
Q 1284 3584 2034 3584 
Q 2703 3584 3089 3131 
Q 3475 2678 3475 1894 
z
M 2900 2063 
Q 2888 2569 2661 2833 
Q 2434 3097 2009 3097 
Q 1594 3097 1325 2822 
Q 1056 2547 1006 2059 
L 2900 2063 
z
" transform="scale(0.015625)"/>
       <path id="DejaVuSansMono-61" d="M 2194 1759 
L 2003 1759 
Q 1500 1759 1245 1582 
Q 991 1406 991 1056 
Q 991 741 1181 566 
Q 1372 391 1709 391 
Q 2184 391 2456 720 
Q 2728 1050 2731 1631 
L 2731 1759 
L 2194 1759 
z
M 3309 1997 
L 3309 0 
L 2731 0 
L 2731 519 
Q 2547 206 2267 57 
Q 1988 -91 1588 -91 
Q 1053 -91 734 211 
Q 416 513 416 1019 
Q 416 1603 808 1906 
Q 1200 2209 1959 2209 
L 2731 2209 
L 2731 2300 
Q 2728 2719 2518 2908 
Q 2309 3097 1850 3097 
Q 1556 3097 1256 3012 
Q 956 2928 672 2766 
L 672 3341 
Q 991 3463 1283 3523 
Q 1575 3584 1850 3584 
Q 2284 3584 2592 3456 
Q 2900 3328 3091 3072 
Q 3209 2916 3259 2686 
Q 3309 2456 3309 1997 
z
" transform="scale(0.015625)"/>
       <path id="DejaVuSansMono-72" d="M 3609 2778 
Q 3425 2922 3234 2987 
Q 3044 3053 2816 3053 
Q 2278 3053 1993 2715 
Q 1709 2378 1709 1741 
L 1709 0 
L 1131 0 
L 1131 3500 
L 1709 3500 
L 1709 2816 
Q 1853 3188 2151 3386 
Q 2450 3584 2859 3584 
Q 3072 3584 3256 3531 
Q 3441 3478 3609 3366 
L 3609 2778 
z
" transform="scale(0.015625)"/>
      </defs>
      <use xlink:href="#DejaVuSansMono-59"/>
      <use xlink:href="#DejaVuSansMono-65" x="60.205078"/>
      <use xlink:href="#DejaVuSansMono-61" x="120.410156"/>
      <use xlink:href="#DejaVuSansMono-72" x="180.615234"/>
     </g>
    </g>
   </g>
   <g id="matplotlib.axis_2">
    <g id="ytick_1">
     <g id="line2d_9">
      <path d="M 43.94 373.467273 
L 1141.2 373.467273 
" clip-path="url(#p35c2c6f66b)" style="fill: none; stroke-dasharray: 1.85,0.8; stroke-dashoffset: 0; stroke: #fff8e8; stroke-opacity: 0.3; stroke-width: 0.5"/>
     </g>
     <g id="text_10">
      <!-- 0 -->
      <g style="fill: #fff8e8" transform="translate(30.919688 377.293054) scale(0.1 -0.1)">
       <use xlink:href="#DejaVuSansMono-30"/>
      </g>
     </g>
    </g>
    <g id="ytick_2">
     <g id="line2d_10">
      <path d="M 43.94 331.511001 
L 1141.2 331.511001 
" clip-path="url(#p35c2c6f66b)" style="fill: none; stroke-dasharray: 1.85,0.8; stroke-dashoffset: 0; stroke: #fff8e8; stroke-opacity: 0.3; stroke-width: 0.5"/>
     </g>
     <g id="text_11">
      <!-- 10 -->
      <g style="fill: #fff8e8" transform="translate(24.899375 335.336782) scale(0.1 -0.1)">
       <use xlink:href="#DejaVuSansMono-31"/>
       <use xlink:href="#DejaVuSansMono-30" x="60.205078"/>
      </g>
     </g>
    </g>
    <g id="ytick_3">
     <g id="line2d_11">
      <path d="M 43.94 289.55473 
L 1141.2 289.55473 
" clip-path="url(#p35c2c6f66b)" style="fill: none; stroke-dasharray: 1.85,0.8; stroke-dashoffset: 0; stroke: #fff8e8; stroke-opacity: 0.3; stroke-width: 0.5"/>
     </g>
     <g id="text_12">
      <!-- 20 -->
      <g style="fill: #fff8e8" transform="translate(24.899375 293.380511) scale(0.1 -0.1)">
       <use xlink:href="#DejaVuSansMono-32"/>
       <use xlink:href="#DejaVuSansMono-30" x="60.205078"/>
      </g>
     </g>
    </g>
    <g id="ytick_4">
     <g id="line2d_12">
      <path d="M 43.94 247.598458 
L 1141.2 247.598458 
" clip-path="url(#p35c2c6f66b)" style="fill: none; stroke-dasharray: 1.85,0.8; stroke-dashoffset: 0; stroke: #fff8e8; stroke-opacity: 0.3; stroke-width: 0.5"/>
     </g>
     <g id="text_13">
      <!-- 30 -->
      <g style="fill: #fff8e8" transform="translate(24.899375 251.424239) scale(0.1 -0.1)">
       <defs>
        <path id="DejaVuSansMono-33" d="M 2425 2497 
Q 2884 2375 3128 2064 
Q 3372 1753 3372 1288 
Q 3372 644 2939 276 
Q 2506 -91 1741 -91 
Q 1419 -91 1084 -31 
Q 750 28 428 141 
L 428 769 
Q 747 603 1056 522 
Q 1366 441 1672 441 
Q 2191 441 2469 675 
Q 2747 909 2747 1350 
Q 2747 1756 2469 1995 
Q 2191 2234 1716 2234 
L 1234 2234 
L 1234 2753 
L 1716 2753 
Q 2150 2753 2394 2943 
Q 2638 3134 2638 3475 
Q 2638 3834 2411 4026 
Q 2184 4219 1766 4219 
Q 1488 4219 1191 4156 
Q 894 4094 569 3969 
L 569 4550 
Q 947 4650 1242 4700 
Q 1538 4750 1766 4750 
Q 2447 4750 2855 4408 
Q 3263 4066 3263 3500 
Q 3263 3116 3048 2859 
Q 2834 2603 2425 2497 
z
" transform="scale(0.015625)"/>
       </defs>
       <use xlink:href="#DejaVuSansMono-33"/>
       <use xlink:href="#DejaVuSansMono-30" x="60.205078"/>
      </g>
     </g>
    </g>
    <g id="ytick_5">
     <g id="line2d_13">
      <path d="M 43.94 205.642186 
L 1141.2 205.642186 
" clip-path="url(#p35c2c6f66b)" style="fill: none; stroke-dasharray: 1.85,0.8; stroke-dashoffset: 0; stroke: #fff8e8; stroke-opacity: 0.3; stroke-width: 0.5"/>
     </g>
     <g id="text_14">
      <!-- 40 -->
      <g style="fill: #fff8e8" transform="translate(24.899375 209.467968) scale(0.1 -0.1)">
       <defs>
        <path id="DejaVuSansMono-34" d="M 2297 4091 
L 825 1625 
L 2297 1625 
L 2297 4091 
z
M 2194 4666 
L 2925 4666 
L 2925 1625 
L 3547 1625 
L 3547 1113 
L 2925 1113 
L 2925 0 
L 2297 0 
L 2297 1113 
L 319 1113 
L 319 1709 
L 2194 4666 
z
" transform="scale(0.015625)"/>
       </defs>
       <use xlink:href="#DejaVuSansMono-34"/>
       <use xlink:href="#DejaVuSansMono-30" x="60.205078"/>
      </g>
     </g>
    </g>
    <g id="ytick_6">
     <g id="line2d_14">
      <path d="M 43.94 163.685915 
L 1141.2 163.685915 
" clip-path="url(#p35c2c6f66b)" style="fill: none; stroke-dasharray: 1.85,0.8; stroke-dashoffset: 0; stroke: #fff8e8; stroke-opacity: 0.3; stroke-width: 0.5"/>
     </g>
     <g id="text_15">
      <!-- 50 -->
      <g style="fill: #fff8e8" transform="translate(24.899375 167.511696) scale(0.1 -0.1)">
       <use xlink:href="#DejaVuSansMono-35"/>
       <use xlink:href="#DejaVuSansMono-30" x="60.205078"/>
      </g>
     </g>
    </g>
    <g id="ytick_7">
     <g id="line2d_15">
      <path d="M 43.94 121.729643 
L 1141.2 121.729643 
" clip-path="url(#p35c2c6f66b)" style="fill: none; stroke-dasharray: 1.85,0.8; stroke-dashoffset: 0; stroke: #fff8e8; stroke-opacity: 0.3; stroke-width: 0.5"/>
     </g>
     <g id="text_16">
      <!-- 60 -->
      <g style="fill: #fff8e8" transform="translate(24.899375 125.555425) scale(0.1 -0.1)">
       <defs>
        <path id="DejaVuSansMono-36" d="M 3097 4563 
L 3097 3981 
Q 2900 4097 2678 4158 
Q 2456 4219 2216 4219 
Q 1616 4219 1306 3767 
Q 997 3316 997 2438 
Q 1147 2750 1412 2917 
Q 1678 3084 2022 3084 
Q 2697 3084 3067 2670 
Q 3438 2256 3438 1497 
Q 3438 741 3056 325 
Q 2675 -91 1984 -91 
Q 1172 -91 794 492 
Q 416 1075 416 2328 
Q 416 3509 870 4129 
Q 1325 4750 2188 4750 
Q 2419 4750 2650 4701 
Q 2881 4653 3097 4563 
z
M 1972 2591 
Q 1569 2591 1337 2300 
Q 1106 2009 1106 1497 
Q 1106 984 1337 693 
Q 1569 403 1972 403 
Q 2391 403 2603 679 
Q 2816 956 2816 1497 
Q 2816 2041 2603 2316 
Q 2391 2591 1972 2591 
z
" transform="scale(0.015625)"/>
       </defs>
       <use xlink:href="#DejaVuSansMono-36"/>
       <use xlink:href="#DejaVuSansMono-30" x="60.205078"/>
      </g>
     </g>
    </g>
    <g id="ytick_8">
     <g id="line2d_16">
      <path d="M 43.94 79.773372 
L 1141.2 79.773372 
" clip-path="url(#p35c2c6f66b)" style="fill: none; stroke-dasharray: 1.85,0.8; stroke-dashoffset: 0; stroke: #fff8e8; stroke-opacity: 0.3; stroke-width: 0.5"/>
     </g>
     <g id="text_17">
      <!-- 70 -->
      <g style="fill: #fff8e8" transform="translate(24.899375 83.599153) scale(0.1 -0.1)">
       <defs>
        <path id="DejaVuSansMono-37" d="M 434 4666 
L 3372 4666 
L 3372 4397 
L 1703 0 
L 1044 0 
L 2669 4134 
L 434 4134 
L 434 4666 
z
" transform="scale(0.015625)"/>
       </defs>
       <use xlink:href="#DejaVuSansMono-37"/>
       <use xlink:href="#DejaVuSansMono-30" x="60.205078"/>
      </g>
     </g>
    </g>
    <g id="ytick_9">
     <g id="line2d_17">
      <path d="M 43.94 37.8171 
L 1141.2 37.8171 
" clip-path="url(#p35c2c6f66b)" style="fill: none; stroke-dasharray: 1.85,0.8; stroke-dashoffset: 0; stroke: #fff8e8; stroke-opacity: 0.3; stroke-width: 0.5"/>
     </g>
     <g id="text_18">
      <!-- 80 -->
      <g style="fill: #fff8e8" transform="translate(24.899375 41.642881) scale(0.1 -0.1)">
       <use xlink:href="#DejaVuSansMono-38"/>
       <use xlink:href="#DejaVuSansMono-30" x="60.205078"/>
      </g>
     </g>
    </g>
    <g id="text_19">
     <!-- Number of Papers -->
     <g style="fill: #fff8e8" transform="translate(18.819688 255.9025) rotate(-90) scale(0.1 -0.1)">
      <defs>
       <path id="DejaVuSansMono-4e" d="M 434 4666 
L 1234 4666 
L 2809 825 
L 2809 4666 
L 3419 4666 
L 3419 0 
L 2619 0 
L 1044 3841 
L 1044 0 
L 434 0 
L 434 4666 
z
" transform="scale(0.015625)"/>
       <path id="DejaVuSansMono-75" d="M 609 1325 
L 609 3494 
L 1184 3494 
L 1184 1325 
Q 1184 853 1351 631 
Q 1519 409 1869 409 
Q 2275 409 2490 695 
Q 2706 981 2706 1516 
L 2706 3494 
L 3284 3494 
L 3284 0 
L 2706 0 
L 2706 525 
Q 2553 222 2289 65 
Q 2025 -91 1672 -91 
Q 1134 -91 871 261 
Q 609 613 609 1325 
z
" transform="scale(0.015625)"/>
       <path id="DejaVuSansMono-6d" d="M 2113 3144 
Q 2219 3369 2383 3476 
Q 2547 3584 2778 3584 
Q 3200 3584 3373 3257 
Q 3547 2931 3547 2028 
L 3547 0 
L 3022 0 
L 3022 2003 
Q 3022 2744 2939 2923 
Q 2856 3103 2638 3103 
Q 2388 3103 2295 2911 
Q 2203 2719 2203 2003 
L 2203 0 
L 1678 0 
L 1678 2003 
Q 1678 2753 1589 2928 
Q 1500 3103 1269 3103 
Q 1041 3103 952 2911 
Q 863 2719 863 2003 
L 863 0 
L 341 0 
L 341 3500 
L 863 3500 
L 863 3200 
Q 966 3388 1120 3486 
Q 1275 3584 1472 3584 
Q 1709 3584 1867 3475 
Q 2025 3366 2113 3144 
z
" transform="scale(0.015625)"/>
       <path id="DejaVuSansMono-62" d="M 2869 1747 
Q 2869 2416 2656 2756 
Q 2444 3097 2028 3097 
Q 1609 3097 1393 2755 
Q 1178 2413 1178 1747 
Q 1178 1084 1393 740 
Q 1609 397 2028 397 
Q 2444 397 2656 737 
Q 2869 1078 2869 1747 
z
M 1178 3053 
Q 1316 3309 1558 3446 
Q 1800 3584 2119 3584 
Q 2750 3584 3112 3098 
Q 3475 2613 3475 1759 
Q 3475 894 3111 401 
Q 2747 -91 2113 -91 
Q 1800 -91 1561 45 
Q 1322 181 1178 441 
L 1178 0 
L 603 0 
L 603 4863 
L 1178 4863 
L 1178 3053 
z
" transform="scale(0.015625)"/>
       <path id="DejaVuSansMono-20" transform="scale(0.015625)"/>
       <path id="DejaVuSansMono-6f" d="M 1925 3097 
Q 1488 3097 1263 2756 
Q 1038 2416 1038 1747 
Q 1038 1081 1263 739 
Q 1488 397 1925 397 
Q 2366 397 2591 739 
Q 2816 1081 2816 1747 
Q 2816 2416 2591 2756 
Q 2366 3097 1925 3097 
z
M 1925 3584 
Q 2653 3584 3039 3112 
Q 3425 2641 3425 1747 
Q 3425 850 3040 379 
Q 2656 -91 1925 -91 
Q 1197 -91 812 379 
Q 428 850 428 1747 
Q 428 2641 812 3112 
Q 1197 3584 1925 3584 
z
" transform="scale(0.015625)"/>
       <path id="DejaVuSansMono-66" d="M 3322 4863 
L 3322 4384 
L 2669 4384 
Q 2359 4384 2239 4257 
Q 2119 4131 2119 3809 
L 2119 3500 
L 3322 3500 
L 3322 3053 
L 2119 3053 
L 2119 0 
L 1544 0 
L 1544 3053 
L 609 3053 
L 609 3500 
L 1544 3500 
L 1544 3744 
Q 1544 4319 1808 4591 
Q 2072 4863 2631 4863 
L 3322 4863 
z
" transform="scale(0.015625)"/>
       <path id="DejaVuSansMono-50" d="M 1247 4147 
L 1247 2394 
L 1978 2394 
Q 2416 2394 2661 2625 
Q 2906 2856 2906 3272 
Q 2906 3688 2662 3917 
Q 2419 4147 1978 4147 
L 1247 4147 
z
M 616 4666 
L 1978 4666 
Q 2759 4666 3162 4311 
Q 3566 3956 3566 3272 
Q 3566 2581 3164 2228 
Q 2763 1875 1978 1875 
L 1247 1875 
L 1247 0 
L 616 0 
L 616 4666 
z
" transform="scale(0.015625)"/>
       <path id="DejaVuSansMono-70" d="M 1172 441 
L 1172 -1331 
L 594 -1331 
L 594 3500 
L 1172 3500 
L 1172 3053 
Q 1316 3313 1555 3448 
Q 1794 3584 2106 3584 
Q 2741 3584 3102 3093 
Q 3463 2603 3463 1734 
Q 3463 881 3100 395 
Q 2738 -91 2106 -91 
Q 1788 -91 1548 45 
Q 1309 181 1172 441 
z
M 2859 1747 
Q 2859 2416 2648 2756 
Q 2438 3097 2022 3097 
Q 1603 3097 1387 2755 
Q 1172 2413 1172 1747 
Q 1172 1084 1387 740 
Q 1603 397 2022 397 
Q 2438 397 2648 737 
Q 2859 1078 2859 1747 
z
" transform="scale(0.015625)"/>
       <path id="DejaVuSansMono-73" d="M 3041 3378 
L 3041 2816 
Q 2794 2959 2544 3031 
Q 2294 3103 2034 3103 
Q 1644 3103 1451 2976 
Q 1259 2850 1259 2591 
Q 1259 2356 1403 2240 
Q 1547 2125 2119 2016 
L 2350 1972 
Q 2778 1891 2998 1647 
Q 3219 1403 3219 1013 
Q 3219 494 2850 201 
Q 2481 -91 1825 -91 
Q 1566 -91 1281 -36 
Q 997 19 666 128 
L 666 722 
Q 988 556 1281 473 
Q 1575 391 1838 391 
Q 2219 391 2428 545 
Q 2638 700 2638 978 
Q 2638 1378 1872 1531 
L 1847 1538 
L 1631 1581 
Q 1134 1678 906 1908 
Q 678 2138 678 2534 
Q 678 3038 1018 3311 
Q 1359 3584 1991 3584 
Q 2272 3584 2531 3532 
Q 2791 3481 3041 3378 
z
" transform="scale(0.015625)"/>
      </defs>
      <use xlink:href="#DejaVuSansMono-4e"/>
      <use xlink:href="#DejaVuSansMono-75" x="60.205078"/>
      <use xlink:href="#DejaVuSansMono-6d" x="120.410156"/>
      <use xlink:href="#DejaVuSansMono-62" x="180.615234"/>
      <use xlink:href="#DejaVuSansMono-65" x="240.820312"/>
      <use xlink:href="#DejaVuSansMono-72" x="301.025391"/>
      <use xlink:href="#DejaVuSansMono-20" x="361.230469"/>
      <use xlink:href="#DejaVuSansMono-6f" x="421.435547"/>
      <use xlink:href="#DejaVuSansMono-66" x="481.640625"/>
      <use xlink:href="#DejaVuSansMono-20" x="541.845703"/>
      <use xlink:href="#DejaVuSansMono-50" x="602.050781"/>
      <use xlink:href="#DejaVuSansMono-61" x="662.255859"/>
      <use xlink:href="#DejaVuSansMono-70" x="722.460938"/>
      <use xlink:href="#DejaVuSansMono-65" x="782.666016"/>
      <use xlink:href="#DejaVuSansMono-72" x="842.871094"/>
      <use xlink:href="#DejaVuSansMono-73" x="903.076172"/>
     </g>
    </g>
   </g>
   <g id="line2d_18">
    <path d="M 93.815455 373.467273 
L 119.392611 373.467273 
L 144.969767 373.467273 
L 170.546923 365.076018 
L 196.124079 352.489137 
L 221.701235 356.684764 
L 247.278392 344.097883 
L 272.855548 360.880391 
L 298.432704 365.076018 
L 324.00986 369.271646 
L 349.587016 369.271646 
L 375.164172 365.076018 
L 400.741329 373.467273 
L 426.318485 360.880391 
L 451.895641 339.902255 
L 477.472797 352.489137 
L 503.049953 356.684764 
L 528.62711 327.315374 
L 554.204266 318.92412 
L 579.781422 247.598458 
L 605.358578 306.337238 
L 630.935734 235.011577 
L 656.51289 255.989712 
L 682.090047 193.055305 
L 707.667203 100.751507 
L 733.244359 42.012727 
L 758.821515 146.903406 
L 784.398671 125.92527 
L 809.975828 184.664051 
L 835.552984 121.729643 
L 861.13014 172.077169 
L 886.707296 134.316525 
L 912.284452 281.163475 
L 937.861608 318.92412 
L 963.438765 331.511001 
L 989.015921 281.163475 
L 1014.593077 297.945984 
L 1040.170233 314.728493 
L 1065.747389 339.902255 
L 1091.324545 306.337238 
" clip-path="url(#p35c2c6f66b)" style="fill: none; stroke: #f2a604; stroke-width: 1.5; stroke-linecap: round"/>
    <defs>
     <path id="m8dd6124e76" d="M 0 3 
C 0.795609 3 1.55874 2.683901 2.12132 2.12132 
C 2.683901 1.55874 3 0.795609 3 0 
C 3 -0.795609 2.683901 -1.55874 2.12132 -2.12132 
C 1.55874 -2.683901 0.795609 -3 0 -3 
C -0.795609 -3 -1.55874 -2.683901 -2.12132 -2.12132 
C -2.683901 -1.55874 -3 -0.795609 -3 0 
C -3 0.795609 -2.683901 1.55874 -2.12132 2.12132 
C -1.55874 2.683901 -0.795609 3 0 3 
z
" style="stroke: #f2a604"/>
    </defs>
    <g clip-path="url(#p35c2c6f66b)">
     <use xlink:href="#m8dd6124e76" x="93.815455" y="373.467273" style="fill: #f2a604; stroke: #f2a604"/>
     <use xlink:href="#m8dd6124e76" x="119.392611" y="373.467273" style="fill: #f2a604; stroke: #f2a604"/>
     <use xlink:href="#m8dd6124e76" x="144.969767" y="373.467273" style="fill: #f2a604; stroke: #f2a604"/>
     <use xlink:href="#m8dd6124e76" x="170.546923" y="365.076018" style="fill: #f2a604; stroke: #f2a604"/>
     <use xlink:href="#m8dd6124e76" x="196.124079" y="352.489137" style="fill: #f2a604; stroke: #f2a604"/>
     <use xlink:href="#m8dd6124e76" x="221.701235" y="356.684764" style="fill: #f2a604; stroke: #f2a604"/>
     <use xlink:href="#m8dd6124e76" x="247.278392" y="344.097883" style="fill: #f2a604; stroke: #f2a604"/>
     <use xlink:href="#m8dd6124e76" x="272.855548" y="360.880391" style="fill: #f2a604; stroke: #f2a604"/>
     <use xlink:href="#m8dd6124e76" x="298.432704" y="365.076018" style="fill: #f2a604; stroke: #f2a604"/>
     <use xlink:href="#m8dd6124e76" x="324.00986" y="369.271646" style="fill: #f2a604; stroke: #f2a604"/>
     <use xlink:href="#m8dd6124e76" x="349.587016" y="369.271646" style="fill: #f2a604; stroke: #f2a604"/>
     <use xlink:href="#m8dd6124e76" x="375.164172" y="365.076018" style="fill: #f2a604; stroke: #f2a604"/>
     <use xlink:href="#m8dd6124e76" x="400.741329" y="373.467273" style="fill: #f2a604; stroke: #f2a604"/>
     <use xlink:href="#m8dd6124e76" x="426.318485" y="360.880391" style="fill: #f2a604; stroke: #f2a604"/>
     <use xlink:href="#m8dd6124e76" x="451.895641" y="339.902255" style="fill: #f2a604; stroke: #f2a604"/>
     <use xlink:href="#m8dd6124e76" x="477.472797" y="352.489137" style="fill: #f2a604; stroke: #f2a604"/>
     <use xlink:href="#m8dd6124e76" x="503.049953" y="356.684764" style="fill: #f2a604; stroke: #f2a604"/>
     <use xlink:href="#m8dd6124e76" x="528.62711" y="327.315374" style="fill: #f2a604; stroke: #f2a604"/>
     <use xlink:href="#m8dd6124e76" x="554.204266" y="318.92412" style="fill: #f2a604; stroke: #f2a604"/>
     <use xlink:href="#m8dd6124e76" x="579.781422" y="247.598458" style="fill: #f2a604; stroke: #f2a604"/>
     <use xlink:href="#m8dd6124e76" x="605.358578" y="306.337238" style="fill: #f2a604; stroke: #f2a604"/>
     <use xlink:href="#m8dd6124e76" x="630.935734" y="235.011577" style="fill: #f2a604; stroke: #f2a604"/>
     <use xlink:href="#m8dd6124e76" x="656.51289" y="255.989712" style="fill: #f2a604; stroke: #f2a604"/>
     <use xlink:href="#m8dd6124e76" x="682.090047" y="193.055305" style="fill: #f2a604; stroke: #f2a604"/>
     <use xlink:href="#m8dd6124e76" x="707.667203" y="100.751507" style="fill: #f2a604; stroke: #f2a604"/>
     <use xlink:href="#m8dd6124e76" x="733.244359" y="42.012727" style="fill: #f2a604; stroke: #f2a604"/>
     <use xlink:href="#m8dd6124e76" x="758.821515" y="146.903406" style="fill: #f2a604; stroke: #f2a604"/>
     <use xlink:href="#m8dd6124e76" x="784.398671" y="125.92527" style="fill: #f2a604; stroke: #f2a604"/>
     <use xlink:href="#m8dd6124e76" x="809.975828" y="184.664051" style="fill: #f2a604; stroke: #f2a604"/>
     <use xlink:href="#m8dd6124e76" x="835.552984" y="121.729643" style="fill: #f2a604; stroke: #f2a604"/>
     <use xlink:href="#m8dd6124e76" x="861.13014" y="172.077169" style="fill: #f2a604; stroke: #f2a604"/>
     <use xlink:href="#m8dd6124e76" x="886.707296" y="134.316525" style="fill: #f2a604; stroke: #f2a604"/>
     <use xlink:href="#m8dd6124e76" x="912.284452" y="281.163475" style="fill: #f2a604; stroke: #f2a604"/>
     <use xlink:href="#m8dd6124e76" x="937.861608" y="318.92412" style="fill: #f2a604; stroke: #f2a604"/>
     <use xlink:href="#m8dd6124e76" x="963.438765" y="331.511001" style="fill: #f2a604; stroke: #f2a604"/>
     <use xlink:href="#m8dd6124e76" x="989.015921" y="281.163475" style="fill: #f2a604; stroke: #f2a604"/>
     <use xlink:href="#m8dd6124e76" x="1014.593077" y="297.945984" style="fill: #f2a604; stroke: #f2a604"/>
     <use xlink:href="#m8dd6124e76" x="1040.170233" y="314.728493" style="fill: #f2a604; stroke: #f2a604"/>
     <use xlink:href="#m8dd6124e76" x="1065.747389" y="339.902255" style="fill: #f2a604; stroke: #f2a604"/>
     <use xlink:href="#m8dd6124e76" x="1091.324545" y="306.337238" style="fill: #f2a604; stroke: #f2a604"/>
    </g>
   </g>
   <g id="line2d_19">
    <path d="M 93.815455 373.467273 
L 119.392611 373.467273 
L 144.969767 373.467273 
L 170.546923 373.467273 
L 196.124079 373.467273 
L 221.701235 360.880391 
L 247.278392 373.467273 
L 272.855548 373.467273 
L 298.432704 373.467273 
L 324.00986 365.076018 
L 349.587016 352.489137 
L 375.164172 369.271646 
L 400.741329 360.880391 
L 426.318485 356.684764 
L 451.895641 339.902255 
L 477.472797 306.337238 
L 503.049953 352.489137 
L 528.62711 318.92412 
L 554.204266 331.511001 
L 579.781422 289.55473 
L 605.358578 235.011577 
L 630.935734 222.424695 
L 656.51289 260.185339 
L 682.090047 247.598458 
L 707.667203 209.837814 
L 733.244359 230.815949 
L 758.821515 230.815949 
L 784.398671 276.967848 
L 809.975828 306.337238 
L 835.552984 276.967848 
L 861.13014 323.119747 
L 886.707296 327.315374 
L 912.284452 369.271646 
L 937.861608 365.076018 
L 963.438765 360.880391 
L 989.015921 360.880391 
L 1014.593077 369.271646 
L 1040.170233 365.076018 
L 1065.747389 360.880391 
L 1091.324545 365.076018 
" clip-path="url(#p35c2c6f66b)" style="fill: none; stroke: #ed90ae; stroke-width: 1.5; stroke-linecap: round"/>
    <defs>
     <path id="m9424c8aaa9" d="M 0 3 
C 0.795609 3 1.55874 2.683901 2.12132 2.12132 
C 2.683901 1.55874 3 0.795609 3 0 
C 3 -0.795609 2.683901 -1.55874 2.12132 -2.12132 
C 1.55874 -2.683901 0.795609 -3 0 -3 
C -0.795609 -3 -1.55874 -2.683901 -2.12132 -2.12132 
C -2.683901 -1.55874 -3 -0.795609 -3 0 
C -3 0.795609 -2.683901 1.55874 -2.12132 2.12132 
C -1.55874 2.683901 -0.795609 3 0 3 
z
" style="stroke: #ed90ae"/>
    </defs>
    <g clip-path="url(#p35c2c6f66b)">
     <use xlink:href="#m9424c8aaa9" x="93.815455" y="373.467273" style="fill: #ed90ae; stroke: #ed90ae"/>
     <use xlink:href="#m9424c8aaa9" x="119.392611" y="373.467273" style="fill: #ed90ae; stroke: #ed90ae"/>
     <use xlink:href="#m9424c8aaa9" x="144.969767" y="373.467273" style="fill: #ed90ae; stroke: #ed90ae"/>
     <use xlink:href="#m9424c8aaa9" x="170.546923" y="373.467273" style="fill: #ed90ae; stroke: #ed90ae"/>
     <use xlink:href="#m9424c8aaa9" x="196.124079" y="373.467273" style="fill: #ed90ae; stroke: #ed90ae"/>
     <use xlink:href="#m9424c8aaa9" x="221.701235" y="360.880391" style="fill: #ed90ae; stroke: #ed90ae"/>
     <use xlink:href="#m9424c8aaa9" x="247.278392" y="373.467273" style="fill: #ed90ae; stroke: #ed90ae"/>
     <use xlink:href="#m9424c8aaa9" x="272.855548" y="373.467273" style="fill: #ed90ae; stroke: #ed90ae"/>
     <use xlink:href="#m9424c8aaa9" x="298.432704" y="373.467273" style="fill: #ed90ae; stroke: #ed90ae"/>
     <use xlink:href="#m9424c8aaa9" x="324.00986" y="365.076018" style="fill: #ed90ae; stroke: #ed90ae"/>
     <use xlink:href="#m9424c8aaa9" x="349.587016" y="352.489137" style="fill: #ed90ae; stroke: #ed90ae"/>
     <use xlink:href="#m9424c8aaa9" x="375.164172" y="369.271646" style="fill: #ed90ae; stroke: #ed90ae"/>
     <use xlink:href="#m9424c8aaa9" x="400.741329" y="360.880391" style="fill: #ed90ae; stroke: #ed90ae"/>
     <use xlink:href="#m9424c8aaa9" x="426.318485" y="356.684764" style="fill: #ed90ae; stroke: #ed90ae"/>
     <use xlink:href="#m9424c8aaa9" x="451.895641" y="339.902255" style="fill: #ed90ae; stroke: #ed90ae"/>
     <use xlink:href="#m9424c8aaa9" x="477.472797" y="306.337238" style="fill: #ed90ae; stroke: #ed90ae"/>
     <use xlink:href="#m9424c8aaa9" x="503.049953" y="352.489137" style="fill: #ed90ae; stroke: #ed90ae"/>
     <use xlink:href="#m9424c8aaa9" x="528.62711" y="318.92412" style="fill: #ed90ae; stroke: #ed90ae"/>
     <use xlink:href="#m9424c8aaa9" x="554.204266" y="331.511001" style="fill: #ed90ae; stroke: #ed90ae"/>
     <use xlink:href="#m9424c8aaa9" x="579.781422" y="289.55473" style="fill: #ed90ae; stroke: #ed90ae"/>
     <use xlink:href="#m9424c8aaa9" x="605.358578" y="235.011577" style="fill: #ed90ae; stroke: #ed90ae"/>
     <use xlink:href="#m9424c8aaa9" x="630.935734" y="222.424695" style="fill: #ed90ae; stroke: #ed90ae"/>
     <use xlink:href="#m9424c8aaa9" x="656.51289" y="260.185339" style="fill: #ed90ae; stroke: #ed90ae"/>
     <use xlink:href="#m9424c8aaa9" x="682.090047" y="247.598458" style="fill: #ed90ae; stroke: #ed90ae"/>
     <use xlink:href="#m9424c8aaa9" x="707.667203" y="209.837814" style="fill: #ed90ae; stroke: #ed90ae"/>
     <use xlink:href="#m9424c8aaa9" x="733.244359" y="230.815949" style="fill: #ed90ae; stroke: #ed90ae"/>
     <use xlink:href="#m9424c8aaa9" x="758.821515" y="230.815949" style="fill: #ed90ae; stroke: #ed90ae"/>
     <use xlink:href="#m9424c8aaa9" x="784.398671" y="276.967848" style="fill: #ed90ae; stroke: #ed90ae"/>
     <use xlink:href="#m9424c8aaa9" x="809.975828" y="306.337238" style="fill: #ed90ae; stroke: #ed90ae"/>
     <use xlink:href="#m9424c8aaa9" x="835.552984" y="276.967848" style="fill: #ed90ae; stroke: #ed90ae"/>
     <use xlink:href="#m9424c8aaa9" x="861.13014" y="323.119747" style="fill: #ed90ae; stroke: #ed90ae"/>
     <use xlink:href="#m9424c8aaa9" x="886.707296" y="327.315374" style="fill: #ed90ae; stroke: #ed90ae"/>
     <use xlink:href="#m9424c8aaa9" x="912.284452" y="369.271646" style="fill: #ed90ae; stroke: #ed90ae"/>
     <use xlink:href="#m9424c8aaa9" x="937.861608" y="365.076018" style="fill: #ed90ae; stroke: #ed90ae"/>
     <use xlink:href="#m9424c8aaa9" x="963.438765" y="360.880391" style="fill: #ed90ae; stroke: #ed90ae"/>
     <use xlink:href="#m9424c8aaa9" x="989.015921" y="360.880391" style="fill: #ed90ae; stroke: #ed90ae"/>
     <use xlink:href="#m9424c8aaa9" x="1014.593077" y="369.271646" style="fill: #ed90ae; stroke: #ed90ae"/>
     <use xlink:href="#m9424c8aaa9" x="1040.170233" y="365.076018" style="fill: #ed90ae; stroke: #ed90ae"/>
     <use xlink:href="#m9424c8aaa9" x="1065.747389" y="360.880391" style="fill: #ed90ae; stroke: #ed90ae"/>
     <use xlink:href="#m9424c8aaa9" x="1091.324545" y="365.076018" style="fill: #ed90ae; stroke: #ed90ae"/>
    </g>
   </g>
   <g id="line2d_20">
    <path d="M 93.815455 369.271646 
L 119.392611 373.467273 
L 144.969767 339.902255 
L 170.546923 352.489137 
L 196.124079 356.684764 
L 221.701235 331.511001 
L 247.278392 360.880391 
L 272.855548 327.315374 
L 298.432704 360.880391 
L 324.00986 369.271646 
L 349.587016 344.097883 
L 375.164172 348.29351 
L 400.741329 365.076018 
L 426.318485 356.684764 
L 451.895641 348.29351 
L 477.472797 344.097883 
L 503.049953 365.076018 
L 528.62711 352.489137 
L 554.204266 356.684764 
L 579.781422 331.511001 
L 605.358578 348.29351 
L 630.935734 348.29351 
L 656.51289 335.706628 
L 682.090047 339.902255 
L 707.667203 335.706628 
L 733.244359 297.945984 
L 758.821515 264.380967 
L 784.398671 331.511001 
L 809.975828 331.511001 
L 835.552984 323.119747 
L 861.13014 302.141611 
L 886.707296 272.772221 
L 912.284452 327.315374 
L 937.861608 289.55473 
L 963.438765 310.532865 
L 989.015921 327.315374 
L 1014.593077 251.794085 
L 1040.170233 260.185339 
L 1065.747389 247.598458 
L 1091.324545 268.576594 
" clip-path="url(#p35c2c6f66b)" style="fill: none; stroke: #59a689; stroke-width: 1.5; stroke-linecap: round"/>
    <defs>
     <path id="m23abe4eb01" d="M 0 3 
C 0.795609 3 1.55874 2.683901 2.12132 2.12132 
C 2.683901 1.55874 3 0.795609 3 0 
C 3 -0.795609 2.683901 -1.55874 2.12132 -2.12132 
C 1.55874 -2.683901 0.795609 -3 0 -3 
C -0.795609 -3 -1.55874 -2.683901 -2.12132 -2.12132 
C -2.683901 -1.55874 -3 -0.795609 -3 0 
C -3 0.795609 -2.683901 1.55874 -2.12132 2.12132 
C -1.55874 2.683901 -0.795609 3 0 3 
z
" style="stroke: #59a689"/>
    </defs>
    <g clip-path="url(#p35c2c6f66b)">
     <use xlink:href="#m23abe4eb01" x="93.815455" y="369.271646" style="fill: #59a689; stroke: #59a689"/>
     <use xlink:href="#m23abe4eb01" x="119.392611" y="373.467273" style="fill: #59a689; stroke: #59a689"/>
     <use xlink:href="#m23abe4eb01" x="144.969767" y="339.902255" style="fill: #59a689; stroke: #59a689"/>
     <use xlink:href="#m23abe4eb01" x="170.546923" y="352.489137" style="fill: #59a689; stroke: #59a689"/>
     <use xlink:href="#m23abe4eb01" x="196.124079" y="356.684764" style="fill: #59a689; stroke: #59a689"/>
     <use xlink:href="#m23abe4eb01" x="221.701235" y="331.511001" style="fill: #59a689; stroke: #59a689"/>
     <use xlink:href="#m23abe4eb01" x="247.278392" y="360.880391" style="fill: #59a689; stroke: #59a689"/>
     <use xlink:href="#m23abe4eb01" x="272.855548" y="327.315374" style="fill: #59a689; stroke: #59a689"/>
     <use xlink:href="#m23abe4eb01" x="298.432704" y="360.880391" style="fill: #59a689; stroke: #59a689"/>
     <use xlink:href="#m23abe4eb01" x="324.00986" y="369.271646" style="fill: #59a689; stroke: #59a689"/>
     <use xlink:href="#m23abe4eb01" x="349.587016" y="344.097883" style="fill: #59a689; stroke: #59a689"/>
     <use xlink:href="#m23abe4eb01" x="375.164172" y="348.29351" style="fill: #59a689; stroke: #59a689"/>
     <use xlink:href="#m23abe4eb01" x="400.741329" y="365.076018" style="fill: #59a689; stroke: #59a689"/>
     <use xlink:href="#m23abe4eb01" x="426.318485" y="356.684764" style="fill: #59a689; stroke: #59a689"/>
     <use xlink:href="#m23abe4eb01" x="451.895641" y="348.29351" style="fill: #59a689; stroke: #59a689"/>
     <use xlink:href="#m23abe4eb01" x="477.472797" y="344.097883" style="fill: #59a689; stroke: #59a689"/>
     <use xlink:href="#m23abe4eb01" x="503.049953" y="365.076018" style="fill: #59a689; stroke: #59a689"/>
     <use xlink:href="#m23abe4eb01" x="528.62711" y="352.489137" style="fill: #59a689; stroke: #59a689"/>
     <use xlink:href="#m23abe4eb01" x="554.204266" y="356.684764" style="fill: #59a689; stroke: #59a689"/>
     <use xlink:href="#m23abe4eb01" x="579.781422" y="331.511001" style="fill: #59a689; stroke: #59a689"/>
     <use xlink:href="#m23abe4eb01" x="605.358578" y="348.29351" style="fill: #59a689; stroke: #59a689"/>
     <use xlink:href="#m23abe4eb01" x="630.935734" y="348.29351" style="fill: #59a689; stroke: #59a689"/>
     <use xlink:href="#m23abe4eb01" x="656.51289" y="335.706628" style="fill: #59a689; stroke: #59a689"/>
     <use xlink:href="#m23abe4eb01" x="682.090047" y="339.902255" style="fill: #59a689; stroke: #59a689"/>
     <use xlink:href="#m23abe4eb01" x="707.667203" y="335.706628" style="fill: #59a689; stroke: #59a689"/>
     <use xlink:href="#m23abe4eb01" x="733.244359" y="297.945984" style="fill: #59a689; stroke: #59a689"/>
     <use xlink:href="#m23abe4eb01" x="758.821515" y="264.380967" style="fill: #59a689; stroke: #59a689"/>
     <use xlink:href="#m23abe4eb01" x="784.398671" y="331.511001" style="fill: #59a689; stroke: #59a689"/>
     <use xlink:href="#m23abe4eb01" x="809.975828" y="331.511001" style="fill: #59a689; stroke: #59a689"/>
     <use xlink:href="#m23abe4eb01" x="835.552984" y="323.119747" style="fill: #59a689; stroke: #59a689"/>
     <use xlink:href="#m23abe4eb01" x="861.13014" y="302.141611" style="fill: #59a689; stroke: #59a689"/>
     <use xlink:href="#m23abe4eb01" x="886.707296" y="272.772221" style="fill: #59a689; stroke: #59a689"/>
     <use xlink:href="#m23abe4eb01" x="912.284452" y="327.315374" style="fill: #59a689; stroke: #59a689"/>
     <use xlink:href="#m23abe4eb01" x="937.861608" y="289.55473" style="fill: #59a689; stroke: #59a689"/>
     <use xlink:href="#m23abe4eb01" x="963.438765" y="310.532865" style="fill: #59a689; stroke: #59a689"/>
     <use xlink:href="#m23abe4eb01" x="989.015921" y="327.315374" style="fill: #59a689; stroke: #59a689"/>
     <use xlink:href="#m23abe4eb01" x="1014.593077" y="251.794085" style="fill: #59a689; stroke: #59a689"/>
     <use xlink:href="#m23abe4eb01" x="1040.170233" y="260.185339" style="fill: #59a689; stroke: #59a689"/>
     <use xlink:href="#m23abe4eb01" x="1065.747389" y="247.598458" style="fill: #59a689; stroke: #59a689"/>
     <use xlink:href="#m23abe4eb01" x="1091.324545" y="268.576594" style="fill: #59a689; stroke: #59a689"/>
    </g>
   </g>
   <g id="line2d_21">
    <path d="M 93.815455 373.467273 
L 119.392611 373.467273 
L 144.969767 373.467273 
L 170.546923 369.271646 
L 196.124079 373.467273 
L 221.701235 373.467273 
L 247.278392 373.467273 
L 272.855548 369.271646 
L 298.432704 369.271646 
L 324.00986 369.271646 
L 349.587016 369.271646 
L 375.164172 373.467273 
L 400.741329 369.271646 
L 426.318485 373.467273 
L 451.895641 369.271646 
L 477.472797 365.076018 
L 503.049953 356.684764 
L 528.62711 335.706628 
L 554.204266 348.29351 
L 579.781422 331.511001 
L 605.358578 360.880391 
L 630.935734 348.29351 
L 656.51289 369.271646 
L 682.090047 335.706628 
L 707.667203 339.902255 
L 733.244359 339.902255 
L 758.821515 365.076018 
L 784.398671 365.076018 
L 809.975828 327.315374 
L 835.552984 314.728493 
L 861.13014 310.532865 
L 886.707296 310.532865 
L 912.284452 306.337238 
L 937.861608 335.706628 
L 963.438765 348.29351 
L 989.015921 335.706628 
L 1014.593077 327.315374 
L 1040.170233 348.29351 
L 1065.747389 335.706628 
L 1091.324545 348.29351 
" clip-path="url(#p35c2c6f66b)" style="fill: none; stroke: #5daa53; stroke-width: 1.5; stroke-linecap: round"/>
    <defs>
     <path id="m1089a4bc52" d="M 0 3 
C 0.795609 3 1.55874 2.683901 2.12132 2.12132 
C 2.683901 1.55874 3 0.795609 3 0 
C 3 -0.795609 2.683901 -1.55874 2.12132 -2.12132 
C 1.55874 -2.683901 0.795609 -3 0 -3 
C -0.795609 -3 -1.55874 -2.683901 -2.12132 -2.12132 
C -2.683901 -1.55874 -3 -0.795609 -3 0 
C -3 0.795609 -2.683901 1.55874 -2.12132 2.12132 
C -1.55874 2.683901 -0.795609 3 0 3 
z
" style="stroke: #5daa53"/>
    </defs>
    <g clip-path="url(#p35c2c6f66b)">
     <use xlink:href="#m1089a4bc52" x="93.815455" y="373.467273" style="fill: #5daa53; stroke: #5daa53"/>
     <use xlink:href="#m1089a4bc52" x="119.392611" y="373.467273" style="fill: #5daa53; stroke: #5daa53"/>
     <use xlink:href="#m1089a4bc52" x="144.969767" y="373.467273" style="fill: #5daa53; stroke: #5daa53"/>
     <use xlink:href="#m1089a4bc52" x="170.546923" y="369.271646" style="fill: #5daa53; stroke: #5daa53"/>
     <use xlink:href="#m1089a4bc52" x="196.124079" y="373.467273" style="fill: #5daa53; stroke: #5daa53"/>
     <use xlink:href="#m1089a4bc52" x="221.701235" y="373.467273" style="fill: #5daa53; stroke: #5daa53"/>
     <use xlink:href="#m1089a4bc52" x="247.278392" y="373.467273" style="fill: #5daa53; stroke: #5daa53"/>
     <use xlink:href="#m1089a4bc52" x="272.855548" y="369.271646" style="fill: #5daa53; stroke: #5daa53"/>
     <use xlink:href="#m1089a4bc52" x="298.432704" y="369.271646" style="fill: #5daa53; stroke: #5daa53"/>
     <use xlink:href="#m1089a4bc52" x="324.00986" y="369.271646" style="fill: #5daa53; stroke: #5daa53"/>
     <use xlink:href="#m1089a4bc52" x="349.587016" y="369.271646" style="fill: #5daa53; stroke: #5daa53"/>
     <use xlink:href="#m1089a4bc52" x="375.164172" y="373.467273" style="fill: #5daa53; stroke: #5daa53"/>
     <use xlink:href="#m1089a4bc52" x="400.741329" y="369.271646" style="fill: #5daa53; stroke: #5daa53"/>
     <use xlink:href="#m1089a4bc52" x="426.318485" y="373.467273" style="fill: #5daa53; stroke: #5daa53"/>
     <use xlink:href="#m1089a4bc52" x="451.895641" y="369.271646" style="fill: #5daa53; stroke: #5daa53"/>
     <use xlink:href="#m1089a4bc52" x="477.472797" y="365.076018" style="fill: #5daa53; stroke: #5daa53"/>
     <use xlink:href="#m1089a4bc52" x="503.049953" y="356.684764" style="fill: #5daa53; stroke: #5daa53"/>
     <use xlink:href="#m1089a4bc52" x="528.62711" y="335.706628" style="fill: #5daa53; stroke: #5daa53"/>
     <use xlink:href="#m1089a4bc52" x="554.204266" y="348.29351" style="fill: #5daa53; stroke: #5daa53"/>
     <use xlink:href="#m1089a4bc52" x="579.781422" y="331.511001" style="fill: #5daa53; stroke: #5daa53"/>
     <use xlink:href="#m1089a4bc52" x="605.358578" y="360.880391" style="fill: #5daa53; stroke: #5daa53"/>
     <use xlink:href="#m1089a4bc52" x="630.935734" y="348.29351" style="fill: #5daa53; stroke: #5daa53"/>
     <use xlink:href="#m1089a4bc52" x="656.51289" y="369.271646" style="fill: #5daa53; stroke: #5daa53"/>
     <use xlink:href="#m1089a4bc52" x="682.090047" y="335.706628" style="fill: #5daa53; stroke: #5daa53"/>
     <use xlink:href="#m1089a4bc52" x="707.667203" y="339.902255" style="fill: #5daa53; stroke: #5daa53"/>
     <use xlink:href="#m1089a4bc52" x="733.244359" y="339.902255" style="fill: #5daa53; stroke: #5daa53"/>
     <use xlink:href="#m1089a4bc52" x="758.821515" y="365.076018" style="fill: #5daa53; stroke: #5daa53"/>
     <use xlink:href="#m1089a4bc52" x="784.398671" y="365.076018" style="fill: #5daa53; stroke: #5daa53"/>
     <use xlink:href="#m1089a4bc52" x="809.975828" y="327.315374" style="fill: #5daa53; stroke: #5daa53"/>
     <use xlink:href="#m1089a4bc52" x="835.552984" y="314.728493" style="fill: #5daa53; stroke: #5daa53"/>
     <use xlink:href="#m1089a4bc52" x="861.13014" y="310.532865" style="fill: #5daa53; stroke: #5daa53"/>
     <use xlink:href="#m1089a4bc52" x="886.707296" y="310.532865" style="fill: #5daa53; stroke: #5daa53"/>
     <use xlink:href="#m1089a4bc52" x="912.284452" y="306.337238" style="fill: #5daa53; stroke: #5daa53"/>
     <use xlink:href="#m1089a4bc52" x="937.861608" y="335.706628" style="fill: #5daa53; stroke: #5daa53"/>
     <use xlink:href="#m1089a4bc52" x="963.438765" y="348.29351" style="fill: #5daa53; stroke: #5daa53"/>
     <use xlink:href="#m1089a4bc52" x="989.015921" y="335.706628" style="fill: #5daa53; stroke: #5daa53"/>
     <use xlink:href="#m1089a4bc52" x="1014.593077" y="327.315374" style="fill: #5daa53; stroke: #5daa53"/>
     <use xlink:href="#m1089a4bc52" x="1040.170233" y="348.29351" style="fill: #5daa53; stroke: #5daa53"/>
     <use xlink:href="#m1089a4bc52" x="1065.747389" y="335.706628" style="fill: #5daa53; stroke: #5daa53"/>
     <use xlink:href="#m1089a4bc52" x="1091.324545" y="348.29351" style="fill: #5daa53; stroke: #5daa53"/>
    </g>
   </g>
   <g id="line2d_22">
    <path d="M 93.815455 373.467273 
L 119.392611 369.271646 
L 144.969767 373.467273 
L 170.546923 373.467273 
L 196.124079 373.467273 
L 221.701235 369.271646 
L 247.278392 373.467273 
L 272.855548 369.271646 
L 298.432704 373.467273 
L 324.00986 369.271646 
L 349.587016 373.467273 
L 375.164172 373.467273 
L 400.741329 369.271646 
L 426.318485 365.076018 
L 451.895641 356.684764 
L 477.472797 348.29351 
L 503.049953 365.076018 
L 528.62711 369.271646 
L 554.204266 360.880391 
L 579.781422 352.489137 
L 605.358578 369.271646 
L 630.935734 356.684764 
L 656.51289 369.271646 
L 682.090047 356.684764 
L 707.667203 369.271646 
L 733.244359 352.489137 
L 758.821515 352.489137 
L 784.398671 356.684764 
L 809.975828 356.684764 
L 835.552984 344.097883 
L 861.13014 352.489137 
L 886.707296 352.489137 
L 912.284452 352.489137 
L 937.861608 348.29351 
L 963.438765 318.92412 
L 989.015921 352.489137 
L 1014.593077 314.728493 
L 1040.170233 268.576594 
L 1065.747389 293.750357 
L 1091.324545 327.315374 
" clip-path="url(#p35c2c6f66b)" style="fill: none; stroke: #0a4e6b; stroke-width: 1.5; stroke-linecap: round"/>
    <defs>
     <path id="mf2b3822a82" d="M 0 3 
C 0.795609 3 1.55874 2.683901 2.12132 2.12132 
C 2.683901 1.55874 3 0.795609 3 0 
C 3 -0.795609 2.683901 -1.55874 2.12132 -2.12132 
C 1.55874 -2.683901 0.795609 -3 0 -3 
C -0.795609 -3 -1.55874 -2.683901 -2.12132 -2.12132 
C -2.683901 -1.55874 -3 -0.795609 -3 0 
C -3 0.795609 -2.683901 1.55874 -2.12132 2.12132 
C -1.55874 2.683901 -0.795609 3 0 3 
z
" style="stroke: #0a4e6b"/>
    </defs>
    <g clip-path="url(#p35c2c6f66b)">
     <use xlink:href="#mf2b3822a82" x="93.815455" y="373.467273" style="fill: #0a4e6b; stroke: #0a4e6b"/>
     <use xlink:href="#mf2b3822a82" x="119.392611" y="369.271646" style="fill: #0a4e6b; stroke: #0a4e6b"/>
     <use xlink:href="#mf2b3822a82" x="144.969767" y="373.467273" style="fill: #0a4e6b; stroke: #0a4e6b"/>
     <use xlink:href="#mf2b3822a82" x="170.546923" y="373.467273" style="fill: #0a4e6b; stroke: #0a4e6b"/>
     <use xlink:href="#mf2b3822a82" x="196.124079" y="373.467273" style="fill: #0a4e6b; stroke: #0a4e6b"/>
     <use xlink:href="#mf2b3822a82" x="221.701235" y="369.271646" style="fill: #0a4e6b; stroke: #0a4e6b"/>
     <use xlink:href="#mf2b3822a82" x="247.278392" y="373.467273" style="fill: #0a4e6b; stroke: #0a4e6b"/>
     <use xlink:href="#mf2b3822a82" x="272.855548" y="369.271646" style="fill: #0a4e6b; stroke: #0a4e6b"/>
     <use xlink:href="#mf2b3822a82" x="298.432704" y="373.467273" style="fill: #0a4e6b; stroke: #0a4e6b"/>
     <use xlink:href="#mf2b3822a82" x="324.00986" y="369.271646" style="fill: #0a4e6b; stroke: #0a4e6b"/>
     <use xlink:href="#mf2b3822a82" x="349.587016" y="373.467273" style="fill: #0a4e6b; stroke: #0a4e6b"/>
     <use xlink:href="#mf2b3822a82" x="375.164172" y="373.467273" style="fill: #0a4e6b; stroke: #0a4e6b"/>
     <use xlink:href="#mf2b3822a82" x="400.741329" y="369.271646" style="fill: #0a4e6b; stroke: #0a4e6b"/>
     <use xlink:href="#mf2b3822a82" x="426.318485" y="365.076018" style="fill: #0a4e6b; stroke: #0a4e6b"/>
     <use xlink:href="#mf2b3822a82" x="451.895641" y="356.684764" style="fill: #0a4e6b; stroke: #0a4e6b"/>
     <use xlink:href="#mf2b3822a82" x="477.472797" y="348.29351" style="fill: #0a4e6b; stroke: #0a4e6b"/>
     <use xlink:href="#mf2b3822a82" x="503.049953" y="365.076018" style="fill: #0a4e6b; stroke: #0a4e6b"/>
     <use xlink:href="#mf2b3822a82" x="528.62711" y="369.271646" style="fill: #0a4e6b; stroke: #0a4e6b"/>
     <use xlink:href="#mf2b3822a82" x="554.204266" y="360.880391" style="fill: #0a4e6b; stroke: #0a4e6b"/>
     <use xlink:href="#mf2b3822a82" x="579.781422" y="352.489137" style="fill: #0a4e6b; stroke: #0a4e6b"/>
     <use xlink:href="#mf2b3822a82" x="605.358578" y="369.271646" style="fill: #0a4e6b; stroke: #0a4e6b"/>
     <use xlink:href="#mf2b3822a82" x="630.935734" y="356.684764" style="fill: #0a4e6b; stroke: #0a4e6b"/>
     <use xlink:href="#mf2b3822a82" x="656.51289" y="369.271646" style="fill: #0a4e6b; stroke: #0a4e6b"/>
     <use xlink:href="#mf2b3822a82" x="682.090047" y="356.684764" style="fill: #0a4e6b; stroke: #0a4e6b"/>
     <use xlink:href="#mf2b3822a82" x="707.667203" y="369.271646" style="fill: #0a4e6b; stroke: #0a4e6b"/>
     <use xlink:href="#mf2b3822a82" x="733.244359" y="352.489137" style="fill: #0a4e6b; stroke: #0a4e6b"/>
     <use xlink:href="#mf2b3822a82" x="758.821515" y="352.489137" style="fill: #0a4e6b; stroke: #0a4e6b"/>
     <use xlink:href="#mf2b3822a82" x="784.398671" y="356.684764" style="fill: #0a4e6b; stroke: #0a4e6b"/>
     <use xlink:href="#mf2b3822a82" x="809.975828" y="356.684764" style="fill: #0a4e6b; stroke: #0a4e6b"/>
     <use xlink:href="#mf2b3822a82" x="835.552984" y="344.097883" style="fill: #0a4e6b; stroke: #0a4e6b"/>
     <use xlink:href="#mf2b3822a82" x="861.13014" y="352.489137" style="fill: #0a4e6b; stroke: #0a4e6b"/>
     <use xlink:href="#mf2b3822a82" x="886.707296" y="352.489137" style="fill: #0a4e6b; stroke: #0a4e6b"/>
     <use xlink:href="#mf2b3822a82" x="912.284452" y="352.489137" style="fill: #0a4e6b; stroke: #0a4e6b"/>
     <use xlink:href="#mf2b3822a82" x="937.861608" y="348.29351" style="fill: #0a4e6b; stroke: #0a4e6b"/>
     <use xlink:href="#mf2b3822a82" x="963.438765" y="318.92412" style="fill: #0a4e6b; stroke: #0a4e6b"/>
     <use xlink:href="#mf2b3822a82" x="989.015921" y="352.489137" style="fill: #0a4e6b; stroke: #0a4e6b"/>
     <use xlink:href="#mf2b3822a82" x="1014.593077" y="314.728493" style="fill: #0a4e6b; stroke: #0a4e6b"/>
     <use xlink:href="#mf2b3822a82" x="1040.170233" y="268.576594" style="fill: #0a4e6b; stroke: #0a4e6b"/>
     <use xlink:href="#mf2b3822a82" x="1065.747389" y="293.750357" style="fill: #0a4e6b; stroke: #0a4e6b"/>
     <use xlink:href="#mf2b3822a82" x="1091.324545" y="327.315374" style="fill: #0a4e6b; stroke: #0a4e6b"/>
    </g>
   </g>
   <g id="text_20">
    <!-- Dark Matter Model Paper Count Over Time -->
    <g style="fill: #fff8e8" transform="translate(451.694688 19.44) scale(0.12 -0.12)">
     <defs>
      <path id="DejaVuSansMono-44" d="M 1363 519 
Q 2159 519 2475 911 
Q 2791 1303 2791 2328 
Q 2791 3363 2477 3755 
Q 2163 4147 1363 4147 
L 1063 4147 
L 1063 519 
L 1363 519 
z
M 1375 4666 
Q 2444 4666 2950 4097 
Q 3456 3528 3456 2328 
Q 3456 1134 2950 567 
Q 2444 0 1375 0 
L 428 0 
L 428 4666 
L 1375 4666 
z
" transform="scale(0.015625)"/>
      <path id="DejaVuSansMono-6b" d="M 738 4863 
L 1331 4863 
L 1331 2047 
L 2841 3500 
L 3541 3500 
L 2163 2181 
L 3756 0 
L 3053 0 
L 1759 1806 
L 1331 1403 
L 1331 0 
L 738 0 
L 738 4863 
z
" transform="scale(0.015625)"/>
      <path id="DejaVuSansMono-4d" d="M 269 4666 
L 1113 4666 
L 1919 2291 
L 2731 4666 
L 3578 4666 
L 3578 0 
L 2994 0 
L 2994 4122 
L 2163 1663 
L 1684 1663 
L 850 4122 
L 850 0 
L 269 0 
L 269 4666 
z
" transform="scale(0.015625)"/>
      <path id="DejaVuSansMono-74" d="M 1919 4494 
L 1919 3500 
L 3225 3500 
L 3225 3053 
L 1919 3053 
L 1919 1153 
Q 1919 766 2066 612 
Q 2213 459 2578 459 
L 3225 459 
L 3225 0 
L 2522 0 
Q 1875 0 1609 259 
Q 1344 519 1344 1153 
L 1344 3053 
L 409 3053 
L 409 3500 
L 1344 3500 
L 1344 4494 
L 1919 4494 
z
" transform="scale(0.015625)"/>
      <path id="DejaVuSansMono-64" d="M 2681 3053 
L 2681 4863 
L 3256 4863 
L 3256 0 
L 2681 0 
L 2681 441 
Q 2538 181 2298 45 
Q 2059 -91 1747 -91 
Q 1113 -91 748 401 
Q 384 894 384 1759 
Q 384 2613 750 3098 
Q 1116 3584 1747 3584 
Q 2063 3584 2303 3448 
Q 2544 3313 2681 3053 
z
M 991 1747 
Q 991 1078 1203 737 
Q 1416 397 1831 397 
Q 2247 397 2464 740 
Q 2681 1084 2681 1747 
Q 2681 2413 2464 2755 
Q 2247 3097 1831 3097 
Q 1416 3097 1203 2756 
Q 991 2416 991 1747 
z
" transform="scale(0.015625)"/>
      <path id="DejaVuSansMono-6c" d="M 1997 1269 
Q 1997 881 2139 684 
Q 2281 488 2559 488 
L 3231 488 
L 3231 0 
L 2503 0 
Q 1988 0 1705 331 
Q 1422 663 1422 1269 
L 1422 4447 
L 500 4447 
L 500 4897 
L 1997 4897 
L 1997 1269 
z
" transform="scale(0.015625)"/>
      <path id="DejaVuSansMono-43" d="M 3353 166 
Q 3113 38 2859 -26 
Q 2606 -91 2322 -91 
Q 1425 -91 929 543 
Q 434 1178 434 2328 
Q 434 3472 932 4111 
Q 1431 4750 2322 4750 
Q 2606 4750 2859 4686 
Q 3113 4622 3353 4494 
L 3353 3847 
Q 3122 4038 2856 4138 
Q 2591 4238 2322 4238 
Q 1706 4238 1400 3763 
Q 1094 3288 1094 2328 
Q 1094 1372 1400 897 
Q 1706 422 2322 422 
Q 2597 422 2861 522 
Q 3125 622 3353 813 
L 3353 166 
z
" transform="scale(0.015625)"/>
      <path id="DejaVuSansMono-6e" d="M 3284 2169 
L 3284 0 
L 2706 0 
L 2706 2169 
Q 2706 2641 2540 2862 
Q 2375 3084 2022 3084 
Q 1619 3084 1401 2798 
Q 1184 2513 1184 1978 
L 1184 0 
L 609 0 
L 609 3500 
L 1184 3500 
L 1184 2975 
Q 1338 3275 1600 3429 
Q 1863 3584 2222 3584 
Q 2756 3584 3020 3232 
Q 3284 2881 3284 2169 
z
" transform="scale(0.015625)"/>
      <path id="DejaVuSansMono-4f" d="M 2828 2328 
Q 2828 3356 2617 3797 
Q 2406 4238 1925 4238 
Q 1447 4238 1236 3797 
Q 1025 3356 1025 2328 
Q 1025 1303 1236 862 
Q 1447 422 1925 422 
Q 2406 422 2617 861 
Q 2828 1300 2828 2328 
z
M 3488 2328 
Q 3488 1109 3102 509 
Q 2716 -91 1925 -91 
Q 1134 -91 750 506 
Q 366 1103 366 2328 
Q 366 3550 752 4150 
Q 1138 4750 1925 4750 
Q 2716 4750 3102 4150 
Q 3488 3550 3488 2328 
z
" transform="scale(0.015625)"/>
      <path id="DejaVuSansMono-76" d="M 313 3500 
L 909 3500 
L 1925 563 
L 2944 3500 
L 3541 3500 
L 2297 0 
L 1556 0 
L 313 3500 
z
" transform="scale(0.015625)"/>
      <path id="DejaVuSansMono-54" d="M 147 4666 
L 3706 4666 
L 3706 4134 
L 2247 4134 
L 2247 0 
L 1613 0 
L 1613 4134 
L 147 4134 
L 147 4666 
z
" transform="scale(0.015625)"/>
      <path id="DejaVuSansMono-69" d="M 800 3500 
L 2272 3500 
L 2272 447 
L 3413 447 
L 3413 0 
L 556 0 
L 556 447 
L 1697 447 
L 1697 3053 
L 800 3053 
L 800 3500 
z
M 1697 4863 
L 2272 4863 
L 2272 4134 
L 1697 4134 
L 1697 4863 
z
" transform="scale(0.015625)"/>
     </defs>
     <use xlink:href="#DejaVuSansMono-44"/>
     <use xlink:href="#DejaVuSansMono-61" x="60.205078"/>
     <use xlink:href="#DejaVuSansMono-72" x="120.410156"/>
     <use xlink:href="#DejaVuSansMono-6b" x="180.615234"/>
     <use xlink:href="#DejaVuSansMono-20" x="240.820312"/>
     <use xlink:href="#DejaVuSansMono-4d" x="301.025391"/>
     <use xlink:href="#DejaVuSansMono-61" x="361.230469"/>
     <use xlink:href="#DejaVuSansMono-74" x="421.435547"/>
     <use xlink:href="#DejaVuSansMono-74" x="481.640625"/>
     <use xlink:href="#DejaVuSansMono-65" x="541.845703"/>
     <use xlink:href="#DejaVuSansMono-72" x="602.050781"/>
     <use xlink:href="#DejaVuSansMono-20" x="662.255859"/>
     <use xlink:href="#DejaVuSansMono-4d" x="722.460938"/>
     <use xlink:href="#DejaVuSansMono-6f" x="782.666016"/>
     <use xlink:href="#DejaVuSansMono-64" x="842.871094"/>
     <use xlink:href="#DejaVuSansMono-65" x="903.076172"/>
     <use xlink:href="#DejaVuSansMono-6c" x="963.28125"/>
     <use xlink:href="#DejaVuSansMono-20" x="1023.486328"/>
     <use xlink:href="#DejaVuSansMono-50" x="1083.691406"/>
     <use xlink:href="#DejaVuSansMono-61" x="1143.896484"/>
     <use xlink:href="#DejaVuSansMono-70" x="1204.101562"/>
     <use xlink:href="#DejaVuSansMono-65" x="1264.306641"/>
     <use xlink:href="#DejaVuSansMono-72" x="1324.511719"/>
     <use xlink:href="#DejaVuSansMono-20" x="1384.716797"/>
     <use xlink:href="#DejaVuSansMono-43" x="1444.921875"/>
     <use xlink:href="#DejaVuSansMono-6f" x="1505.126953"/>
     <use xlink:href="#DejaVuSansMono-75" x="1565.332031"/>
     <use xlink:href="#DejaVuSansMono-6e" x="1625.537109"/>
     <use xlink:href="#DejaVuSansMono-74" x="1685.742188"/>
     <use xlink:href="#DejaVuSansMono-20" x="1745.947266"/>
     <use xlink:href="#DejaVuSansMono-4f" x="1806.152344"/>
     <use xlink:href="#DejaVuSansMono-76" x="1866.357422"/>
     <use xlink:href="#DejaVuSansMono-65" x="1926.5625"/>
     <use xlink:href="#DejaVuSansMono-72" x="1986.767578"/>
     <use xlink:href="#DejaVuSansMono-20" x="2046.972656"/>
     <use xlink:href="#DejaVuSansMono-54" x="2107.177734"/>
     <use xlink:href="#DejaVuSansMono-69" x="2167.382812"/>
     <use xlink:href="#DejaVuSansMono-6d" x="2227.587891"/>
     <use xlink:href="#DejaVuSansMono-65" x="2287.792969"/>
    </g>
   </g>
   <g id="legend_1">
    <g id="patch_3">
     <path d="M 891.489063 121.89625 
L 1134.2 121.89625 
Q 1136.2 121.89625 1136.2 119.89625 
L 1136.2 32.44 
Q 1136.2 30.44 1134.2 30.44 
L 891.489063 30.44 
Q 889.489063 30.44 889.489063 32.44 
L 889.489063 119.89625 
Q 889.489063 121.89625 891.489063 121.89625 
z
" style="fill: #20272d; opacity: 0.8; stroke: #cccccc; stroke-linejoin: miter"/>
    </g>
    <g id="text_21">
     <!-- Dark Matter Models -->
     <g style="fill: #fff8e8" transform="translate(958.661719 42.091563) scale(0.1 -0.1)">
      <use xlink:href="#DejaVuSansMono-44"/>
      <use xlink:href="#DejaVuSansMono-61" x="60.205078"/>
      <use xlink:href="#DejaVuSansMono-72" x="120.410156"/>
      <use xlink:href="#DejaVuSansMono-6b" x="180.615234"/>
      <use xlink:href="#DejaVuSansMono-20" x="240.820312"/>
      <use xlink:href="#DejaVuSansMono-4d" x="301.025391"/>
      <use xlink:href="#DejaVuSansMono-61" x="361.230469"/>
      <use xlink:href="#DejaVuSansMono-74" x="421.435547"/>
      <use xlink:href="#DejaVuSansMono-74" x="481.640625"/>
      <use xlink:href="#DejaVuSansMono-65" x="541.845703"/>
      <use xlink:href="#DejaVuSansMono-72" x="602.050781"/>
      <use xlink:href="#DejaVuSansMono-20" x="662.255859"/>
      <use xlink:href="#DejaVuSansMono-4d" x="722.460938"/>
      <use xlink:href="#DejaVuSansMono-6f" x="782.666016"/>
      <use xlink:href="#DejaVuSansMono-64" x="842.871094"/>
      <use xlink:href="#DejaVuSansMono-65" x="903.076172"/>
      <use xlink:href="#DejaVuSansMono-6c" x="963.28125"/>
      <use xlink:href="#DejaVuSansMono-73" x="1023.486328"/>
     </g>
    </g>
    <g id="line2d_23">
     <path d="M 893.489063 53.322812 
L 903.489063 53.322812 
L 913.489063 53.322812 
" style="fill: none; stroke: #f2a604; stroke-width: 1.5; stroke-linecap: round"/>
     <g>
      <use xlink:href="#m8dd6124e76" x="903.489063" y="53.322812" style="fill: #f2a604; stroke: #f2a604"/>
     </g>
    </g>
    <g id="text_22">
     <!-- weakly interacting massive particle -->
     <g style="fill: #fff8e8" transform="translate(921.489063 56.822812) scale(0.1 -0.1)">
      <defs>
       <path id="DejaVuSansMono-77" d="M 0 3500 
L 569 3500 
L 1178 672 
L 1678 2478 
L 2169 2478 
L 2675 672 
L 3284 3500 
L 3853 3500 
L 3034 0 
L 2484 0 
L 1925 1919 
L 1369 0 
L 819 0 
L 0 3500 
z
" transform="scale(0.015625)"/>
       <path id="DejaVuSansMono-79" d="M 2681 1125 
Q 2538 759 2316 163 
Q 2006 -663 1900 -844 
Q 1756 -1088 1540 -1209 
Q 1325 -1331 1038 -1331 
L 575 -1331 
L 575 -850 
L 916 -850 
Q 1169 -850 1312 -703 
Q 1456 -556 1678 56 
L 325 3500 
L 934 3500 
L 1972 763 
L 2994 3500 
L 3603 3500 
L 2681 1125 
z
" transform="scale(0.015625)"/>
       <path id="DejaVuSansMono-63" d="M 3316 178 
Q 3084 44 2839 -23 
Q 2594 -91 2338 -91 
Q 1525 -91 1067 396 
Q 609 884 609 1747 
Q 609 2609 1067 3096 
Q 1525 3584 2338 3584 
Q 2591 3584 2831 3518 
Q 3072 3453 3316 3316 
L 3316 2713 
Q 3088 2916 2858 3006 
Q 2628 3097 2338 3097 
Q 1797 3097 1506 2747 
Q 1216 2397 1216 1747 
Q 1216 1100 1508 748 
Q 1800 397 2338 397 
Q 2638 397 2875 489 
Q 3113 581 3316 775 
L 3316 178 
z
" transform="scale(0.015625)"/>
       <path id="DejaVuSansMono-67" d="M 2681 1778 
Q 2681 2425 2470 2761 
Q 2259 3097 1856 3097 
Q 1434 3097 1212 2761 
Q 991 2425 991 1778 
Q 991 1131 1214 792 
Q 1438 453 1863 453 
Q 2259 453 2470 793 
Q 2681 1134 2681 1778 
z
M 3256 225 
Q 3256 -563 2884 -969 
Q 2513 -1375 1791 -1375 
Q 1553 -1375 1293 -1331 
Q 1034 -1288 775 -1203 
L 775 -634 
Q 1081 -778 1331 -847 
Q 1581 -916 1791 -916 
Q 2256 -916 2468 -662 
Q 2681 -409 2681 141 
L 2681 166 
L 2681 556 
Q 2544 263 2306 119 
Q 2069 -25 1728 -25 
Q 1116 -25 750 465 
Q 384 956 384 1778 
Q 384 2603 750 3093 
Q 1116 3584 1728 3584 
Q 2066 3584 2300 3450 
Q 2534 3316 2681 3034 
L 2681 3488 
L 3256 3488 
L 3256 225 
z
" transform="scale(0.015625)"/>
      </defs>
      <use xlink:href="#DejaVuSansMono-77"/>
      <use xlink:href="#DejaVuSansMono-65" x="60.205078"/>
      <use xlink:href="#DejaVuSansMono-61" x="120.410156"/>
      <use xlink:href="#DejaVuSansMono-6b" x="180.615234"/>
      <use xlink:href="#DejaVuSansMono-6c" x="240.820312"/>
      <use xlink:href="#DejaVuSansMono-79" x="301.025391"/>
      <use xlink:href="#DejaVuSansMono-20" x="361.230469"/>
      <use xlink:href="#DejaVuSansMono-69" x="421.435547"/>
      <use xlink:href="#DejaVuSansMono-6e" x="481.640625"/>
      <use xlink:href="#DejaVuSansMono-74" x="541.845703"/>
      <use xlink:href="#DejaVuSansMono-65" x="602.050781"/>
      <use xlink:href="#DejaVuSansMono-72" x="662.255859"/>
      <use xlink:href="#DejaVuSansMono-61" x="722.460938"/>
      <use xlink:href="#DejaVuSansMono-63" x="782.666016"/>
      <use xlink:href="#DejaVuSansMono-74" x="842.871094"/>
      <use xlink:href="#DejaVuSansMono-69" x="903.076172"/>
      <use xlink:href="#DejaVuSansMono-6e" x="963.28125"/>
      <use xlink:href="#DejaVuSansMono-67" x="1023.486328"/>
      <use xlink:href="#DejaVuSansMono-20" x="1083.691406"/>
      <use xlink:href="#DejaVuSansMono-6d" x="1143.896484"/>
      <use xlink:href="#DejaVuSansMono-61" x="1204.101562"/>
      <use xlink:href="#DejaVuSansMono-73" x="1264.306641"/>
      <use xlink:href="#DejaVuSansMono-73" x="1324.511719"/>
      <use xlink:href="#DejaVuSansMono-69" x="1384.716797"/>
      <use xlink:href="#DejaVuSansMono-76" x="1444.921875"/>
      <use xlink:href="#DejaVuSansMono-65" x="1505.126953"/>
      <use xlink:href="#DejaVuSansMono-20" x="1565.332031"/>
      <use xlink:href="#DejaVuSansMono-70" x="1625.537109"/>
      <use xlink:href="#DejaVuSansMono-61" x="1685.742188"/>
      <use xlink:href="#DejaVuSansMono-72" x="1745.947266"/>
      <use xlink:href="#DejaVuSansMono-74" x="1806.152344"/>
      <use xlink:href="#DejaVuSansMono-69" x="1866.357422"/>
      <use xlink:href="#DejaVuSansMono-63" x="1926.5625"/>
      <use xlink:href="#DejaVuSansMono-6c" x="1986.767578"/>
      <use xlink:href="#DejaVuSansMono-65" x="2046.972656"/>
     </g>
    </g>
    <g id="line2d_24">
     <path d="M 893.489063 68.122813 
L 903.489063 68.122813 
L 913.489063 68.122813 
" style="fill: none; stroke: #ed90ae; stroke-width: 1.5; stroke-linecap: round"/>
     <g>
      <use xlink:href="#m9424c8aaa9" x="903.489063" y="68.122813" style="fill: #ed90ae; stroke: #ed90ae"/>
     </g>
    </g>
    <g id="text_23">
     <!-- neutralino dark matter -->
     <g style="fill: #fff8e8" transform="translate(921.489063 71.622813) scale(0.1 -0.1)">
      <use xlink:href="#DejaVuSansMono-6e"/>
      <use xlink:href="#DejaVuSansMono-65" x="60.205078"/>
      <use xlink:href="#DejaVuSansMono-75" x="120.410156"/>
      <use xlink:href="#DejaVuSansMono-74" x="180.615234"/>
      <use xlink:href="#DejaVuSansMono-72" x="240.820312"/>
      <use xlink:href="#DejaVuSansMono-61" x="301.025391"/>
      <use xlink:href="#DejaVuSansMono-6c" x="361.230469"/>
      <use xlink:href="#DejaVuSansMono-69" x="421.435547"/>
      <use xlink:href="#DejaVuSansMono-6e" x="481.640625"/>
      <use xlink:href="#DejaVuSansMono-6f" x="541.845703"/>
      <use xlink:href="#DejaVuSansMono-20" x="602.050781"/>
      <use xlink:href="#DejaVuSansMono-64" x="662.255859"/>
      <use xlink:href="#DejaVuSansMono-61" x="722.460938"/>
      <use xlink:href="#DejaVuSansMono-72" x="782.666016"/>
      <use xlink:href="#DejaVuSansMono-6b" x="842.871094"/>
      <use xlink:href="#DejaVuSansMono-20" x="903.076172"/>
      <use xlink:href="#DejaVuSansMono-6d" x="963.28125"/>
      <use xlink:href="#DejaVuSansMono-61" x="1023.486328"/>
      <use xlink:href="#DejaVuSansMono-74" x="1083.691406"/>
      <use xlink:href="#DejaVuSansMono-74" x="1143.896484"/>
      <use xlink:href="#DejaVuSansMono-65" x="1204.101562"/>
      <use xlink:href="#DejaVuSansMono-72" x="1264.306641"/>
     </g>
    </g>
    <g id="line2d_25">
     <path d="M 893.489063 82.854062 
L 903.489063 82.854062 
L 913.489063 82.854062 
" style="fill: none; stroke: #59a689; stroke-width: 1.5; stroke-linecap: round"/>
     <g>
      <use xlink:href="#m23abe4eb01" x="903.489063" y="82.854062" style="fill: #59a689; stroke: #59a689"/>
     </g>
    </g>
    <g id="text_24">
     <!-- axion -->
     <g style="fill: #fff8e8" transform="translate(921.489063 86.354062) scale(0.1 -0.1)">
      <defs>
       <path id="DejaVuSansMono-78" d="M 3494 3500 
L 2241 1825 
L 3616 0 
L 2950 0 
L 1925 1403 
L 903 0 
L 238 0 
L 1613 1825 
L 359 3500 
L 997 3500 
L 1925 2234 
L 2847 3500 
L 3494 3500 
z
" transform="scale(0.015625)"/>
      </defs>
      <use xlink:href="#DejaVuSansMono-61"/>
      <use xlink:href="#DejaVuSansMono-78" x="60.205078"/>
      <use xlink:href="#DejaVuSansMono-69" x="120.410156"/>
      <use xlink:href="#DejaVuSansMono-6f" x="180.615234"/>
      <use xlink:href="#DejaVuSansMono-6e" x="240.820312"/>
     </g>
    </g>
    <g id="line2d_26">
     <path d="M 893.489063 97.585312 
L 903.489063 97.585312 
L 913.489063 97.585312 
" style="fill: none; stroke: #5daa53; stroke-width: 1.5; stroke-linecap: round"/>
     <g>
      <use xlink:href="#m1089a4bc52" x="903.489063" y="97.585312" style="fill: #5daa53; stroke: #5daa53"/>
     </g>
    </g>
    <g id="text_25">
     <!-- warm dark matter -->
     <g style="fill: #fff8e8" transform="translate(921.489063 101.085312) scale(0.1 -0.1)">
      <use xlink:href="#DejaVuSansMono-77"/>
      <use xlink:href="#DejaVuSansMono-61" x="60.205078"/>
      <use xlink:href="#DejaVuSansMono-72" x="120.410156"/>
      <use xlink:href="#DejaVuSansMono-6d" x="180.615234"/>
      <use xlink:href="#DejaVuSansMono-20" x="240.820312"/>
      <use xlink:href="#DejaVuSansMono-64" x="301.025391"/>
      <use xlink:href="#DejaVuSansMono-61" x="361.230469"/>
      <use xlink:href="#DejaVuSansMono-72" x="421.435547"/>
      <use xlink:href="#DejaVuSansMono-6b" x="481.640625"/>
      <use xlink:href="#DejaVuSansMono-20" x="541.845703"/>
      <use xlink:href="#DejaVuSansMono-6d" x="602.050781"/>
      <use xlink:href="#DejaVuSansMono-61" x="662.255859"/>
      <use xlink:href="#DejaVuSansMono-74" x="722.460938"/>
      <use xlink:href="#DejaVuSansMono-74" x="782.666016"/>
      <use xlink:href="#DejaVuSansMono-65" x="842.871094"/>
      <use xlink:href="#DejaVuSansMono-72" x="903.076172"/>
     </g>
    </g>
    <g id="line2d_27">
     <path d="M 893.489063 112.316563 
L 903.489063 112.316563 
L 913.489063 112.316563 
" style="fill: none; stroke: #0a4e6b; stroke-width: 1.5; stroke-linecap: round"/>
     <g>
      <use xlink:href="#mf2b3822a82" x="903.489063" y="112.316563" style="fill: #0a4e6b; stroke: #0a4e6b"/>
     </g>
    </g>
    <g id="text_26">
     <!-- primordial black holes -->
     <g style="fill: #fff8e8" transform="translate(921.489063 115.816563) scale(0.1 -0.1)">
      <defs>
       <path id="DejaVuSansMono-68" d="M 3284 2169 
L 3284 0 
L 2706 0 
L 2706 2169 
Q 2706 2641 2540 2862 
Q 2375 3084 2022 3084 
Q 1619 3084 1401 2798 
Q 1184 2513 1184 1978 
L 1184 0 
L 609 0 
L 609 4863 
L 1184 4863 
L 1184 2975 
Q 1338 3275 1600 3429 
Q 1863 3584 2222 3584 
Q 2756 3584 3020 3232 
Q 3284 2881 3284 2169 
z
" transform="scale(0.015625)"/>
      </defs>
      <use xlink:href="#DejaVuSansMono-70"/>
      <use xlink:href="#DejaVuSansMono-72" x="60.205078"/>
      <use xlink:href="#DejaVuSansMono-69" x="120.410156"/>
      <use xlink:href="#DejaVuSansMono-6d" x="180.615234"/>
      <use xlink:href="#DejaVuSansMono-6f" x="240.820312"/>
      <use xlink:href="#DejaVuSansMono-72" x="301.025391"/>
      <use xlink:href="#DejaVuSansMono-64" x="361.230469"/>
      <use xlink:href="#DejaVuSansMono-69" x="421.435547"/>
      <use xlink:href="#DejaVuSansMono-61" x="481.640625"/>
      <use xlink:href="#DejaVuSansMono-6c" x="541.845703"/>
      <use xlink:href="#DejaVuSansMono-20" x="602.050781"/>
      <use xlink:href="#DejaVuSansMono-62" x="662.255859"/>
      <use xlink:href="#DejaVuSansMono-6c" x="722.460938"/>
      <use xlink:href="#DejaVuSansMono-61" x="782.666016"/>
      <use xlink:href="#DejaVuSansMono-63" x="842.871094"/>
      <use xlink:href="#DejaVuSansMono-6b" x="903.076172"/>
      <use xlink:href="#DejaVuSansMono-20" x="963.28125"/>
      <use xlink:href="#DejaVuSansMono-68" x="1023.486328"/>
      <use xlink:href="#DejaVuSansMono-6f" x="1083.691406"/>
      <use xlink:href="#DejaVuSansMono-6c" x="1143.896484"/>
      <use xlink:href="#DejaVuSansMono-65" x="1204.101562"/>
      <use xlink:href="#DejaVuSansMono-73" x="1264.306641"/>
     </g>
    </g>
   </g>
  </g>
 </g>
 <defs>
  <clipPath id="p35c2c6f66b">
   <rect x="43.94" y="25.44" width="1097.26" height="364.6"/>
  </clipPath>
 </defs>
</svg>
